<?xml version="1.0" encoding="UTF-8"?>
<svg width="50px" height="50px" viewBox="0 0 50 50" version="1.1" xmlns="http://www.w3.org/2000/svg" xmlns:xlink="http://www.w3.org/1999/xlink">
    <!-- Generator: Sketch 60.1 (88133) - https://sketch.com -->
    <title>my order-To examine</title>
    <desc>Created with Sketch.</desc>
    <g id="我的-订单" stroke="none" stroke-width="1" fill="none" fill-rule="evenodd" opacity="0.702869234">
        <g id="订单详情-等待审核-状态1" transform="translate(-285.000000, -91.000000)" fill="#FFFFFF" fill-rule="nonzero">
            <g id="my-order-To-examine" transform="translate(285.000000, 91.000000)">
                <path d="M0.0170330669,24.9616149 C0.0170330669,18.9272489 -0.00567768895,12.8872381 0.0227107558,6.85287211 C0.0340661337,4.49896134 0.965207122,2.56277095 2.92400981,1.15719834 C3.97438227,0.406430636 5.09856468,0.0282243497 6.41011083,0.0338069556 C17.5724473,0.0564486994 28.7347838,0.0395140896 39.8971203,0.0508038295 C43.8544695,0.0564486994 46.6138263,2.82243497 46.6251817,6.73997471 C46.6312253,8.16248194 46.6138263,9.57934429 46.6312253,11.0018515 C46.6422148,11.8542269 46.3923964,12.542901 45.4499001,12.6275741 C44.4790153,12.717892 44.0248001,12.1251806 43.8431141,11.2163566 C43.6160065,10.070448 43.7011719,8.91889451 43.6898165,7.76734104 C43.6557504,4.42557803 42.3044604,3.07080925 38.971657,3.07080925 L8.02825218,3.07080925 C4.25258903,3.07080925 2.9296875,4.37477421 2.9296875,8.08345376 L2.9296875,41.3768967 C2.9296875,41.9075145 2.92400981,42.4437771 2.95807594,42.9743949 C3.10569586,45.096866 4.36046512,46.4516348 6.49527616,46.5984014 C9.39089753,46.7959718 12.2921966,46.8975795 15.187818,47.0161217 C16.0508267,47.049991 16.8513808,47.1515986 16.9251908,48.2241239 C17.0046784,49.4039017 16.1246366,49.5901824 15.2389172,49.652276 C12.2581305,49.8780708 9.27734375,50.0756413 6.28520167,49.7256593 C2.32217478,49.26278 0.0283884448,46.8185513 0.0170330669,42.8106936 C0.00567768895,36.8610007 0.0227107558,30.9113078 0.0170330669,24.9616149 L0.0170330669,24.9616149 Z" id="路径"></path>
                <path d="M49.157431,47.0782153 C47.3178597,45.2041185 45.5293877,43.2792178 43.6387173,41.4615697 C42.6905432,40.5527457 42.5713118,39.7793985 43.3377998,38.7012283 C45.0638172,36.2739342 46.0403797,33.5587518 46.4945948,30.6121297 C48.1468023,19.8134935 39.7324673,8.92453938 27.0541879,9.3704841 C16.6413063,9.74304552 8.54492188,19.706241 9.59529433,28.7831918 C9.87917878,34.2756503 11.8323038,38.5036579 15.6533884,41.8962247 C22.0748547,47.5918985 31.3805868,48.1846098 38.7672602,43.2509935 C40.0220294,42.4099079 40.7374182,42.5736091 41.69127,43.578396 C43.4683866,45.4524928 45.3533794,47.2193371 47.1815952,49.0369852 C47.8629179,49.7143696 48.5555959,50.0191926 49.3675055,49.2289108 C50.2134811,48.4160495 49.8217206,47.7499548 49.157431,47.0782153 Z M28.1613372,43.5447142 C18.7477289,43.5896857 11.8379815,35.4667178 12.5817587,27.9421062 C11.974246,19.2377168 20.2693496,12.3848447 27.8490643,12.3791964 C36.6154161,12.3735549 43.6330396,19.4522218 43.6501022,28.4049855 C43.6671057,36.3021586 36.3031432,43.5106575 28.1613372,43.5447142 L28.1613372,43.5447142 Z" id="形状"></path>
                <path d="M28.6155523,40.2705022 C28.5247093,40.2592124 28.0648165,40.2535676 27.6503452,40.1293804 C27.0201217,39.9374548 26.7873365,39.4407063 26.7646257,38.7971911 C26.741915,38.1198067 27.0201217,37.6682171 27.6617006,37.5045159 C28.2635356,37.3464595 28.8880814,37.2900108 29.4955941,37.154534 C33.7027616,36.2344202 36.2861101,33.6829389 37.2342842,29.5113801 C37.3591933,28.9525379 37.4500363,28.3824061 37.5579124,27.8179191 C37.694177,27.1236001 38.0859375,26.7115246 38.8240371,26.69459 C39.5791697,26.6776553 40.1185501,26.9824783 40.3059139,27.7501806 C40.3683685,28.0041998 40.4421784,28.2751535 40.4251453,28.5291727 C40.0447402,35.4102691 34.1115552,40.3043714 28.6155523,40.2705022 Z" id="路径"></path>
                <path d="M24.8909884,18.3909863 C24.7944677,18.9498284 24.4821948,19.4183526 23.9768805,19.7513999 C22.16002,20.9481124 20.7292424,22.5117413 19.5993823,24.3519689 C19.1338118,25.1140264 18.4979106,25.6051301 17.6121911,25.1366059 C16.6356286,24.6172778 16.646984,23.826996 17.1068768,22.873013 C18.3275799,20.3328215 20.1898619,18.447435 22.6994004,17.1829841 C23.783839,16.6297868 24.9080214,17.2450777 24.8909884,18.3909863 Z" id="路径"></path>
            </g>
        </g>
    </g>
</svg>