<?xml version="1.0" encoding="UTF-8"?>
<svg width="48px" height="45px" viewBox="0 0 48 45" version="1.1" xmlns="http://www.w3.org/2000/svg" xmlns:xlink="http://www.w3.org/1999/xlink">
    <!-- Generator: Sketch 60.1 (88133) - https://sketch.com -->
    <title>my order_to be shipped</title>
    <desc>Created with Sketch.</desc>
    <g id="我的-订单" stroke="none" stroke-width="1" fill="none" fill-rule="evenodd" opacity="0.695545015">
        <g id="订单详情-等待发货-状态1" transform="translate(-286.000000, -93.000000)" fill="#FFFFFF" fill-rule="nonzero">
            <g id="my-order_to-be-shipped" transform="translate(310.000000, 116.000000) rotate(360.000000) translate(-310.000000, -116.000000) translate(285.000000, 91.000000)">
                <path d="M43.7438433,2 L16.6095264,2 C13.7821667,2 11.4810294,4.39032646 11.4810294,7.32753066 L11.4810294,15.1286871 L1.66342222,21.0230148 L1.30392379,21.2729125 L1.34386807,21.3453468 C1.12156951,21.6314616 1,21.9809563 1,22.3395051 L1,38.7096198 C1,39.6657504 1.68947286,40.4444174 2.5352494,40.4444174 C3.38276262,40.4444174 4.07223547,39.6639395 4.07223547,38.7041872 L4.07223547,23.2594187 L13.7040149,17.4646878 C14.3709105,17.2184118 14.818981,16.5628829 14.818981,15.8367307 L14.818981,7.58467181 C14.818981,6.42029313 15.7324892,5.47321681 16.8561389,5.47321681 L43.4972309,5.47321681 C44.6191439,5.47321681 45.5343887,6.42029313 45.5343887,7.58467181 L45.5343887,38.0577126 C45.5343887,39.0156541 46.2811729,39.7943209 47.2033646,39.7943209 C48.1238195,39.7943209 48.8723404,39.0138432 48.8723404,38.0540909 L48.8723404,7.32753066 C48.8723404,4.39032646 46.571203,2 43.7438433,2 Z M38.0613367,32.8623742 C34.8883721,32.8623742 32.1877921,35.2128619 31.612942,38.4633436 L19.9526883,38.4561002 C19.3743647,35.2092402 16.6737845,32.8623742 13.5042935,32.8623742 C9.87110158,32.8623742 6.91522552,35.9317706 6.91522552,39.7037782 C6.91522552,43.4757858 9.87110158,46.5433715 13.5042935,46.5433715 C16.4549594,46.5433715 19.0530738,44.4862422 19.8450124,41.5327403 L31.7240912,41.5381728 C32.5177665,44.4880529 35.1141441,46.5433715 38.0613367,46.5433715 C41.6945286,46.5433715 44.6486679,43.4757858 44.6486679,39.7037782 C44.6486679,35.9317706 41.6945286,32.8623742 38.0613367,32.8623742 Z M38.0613368,43.9615188 C35.8161841,43.9615188 33.9891569,42.0659674 33.9891569,39.7391781 C33.9891569,37.4100195 35.8161841,35.5168376 38.0613368,35.5168376 C40.3064895,35.5168376 42.1335166,37.4100195 42.1335166,39.7391781 C42.1335166,42.0659674 40.3064895,43.9615188 38.0613368,43.9615188 L38.0613368,43.9615188 Z M13.5045616,43.9620745 C11.2592611,43.9620745 9.43211381,42.0663983 9.43211381,39.739456 C9.43211381,37.4101441 11.2592611,35.5168376 13.5045616,35.5168376 C15.7498621,35.5168376 17.5747369,37.4101441 17.5747369,39.739456 C17.5747369,42.0663983 15.7498621,43.9620745 13.5045616,43.9620745 Z" id="形状"></path>
                <path d="M8.55120391,27.911501 C8.55120391,28.8368471 9.27541094,29.5901622 10.1680785,29.5901622 L16.4184887,29.5883512 C17.2989992,29.5883512 17.9919456,29.3149125 18.4834337,28.7716565 C19.2614787,27.9096903 19.1989571,26.6873642 19.1972205,26.6801208 L19.1972205,21.5735142 C19.1972205,20.6481681 18.4730134,19.8948531 17.5803459,19.8948531 C16.6876782,19.8948531 15.9634713,20.6481681 15.9634713,21.5735142 L15.965208,26.2274073 L10.1646052,26.2274073 C9.27367422,26.23284 8.55120391,26.9879658 8.55120391,27.911501 Z" id="路径"></path>
                <rect id="矩形" x="2.71428571" y="37.5774359" width="5.14285714" height="2.88"></rect>
                <rect id="矩形" x="43.8571429" y="35.8051282" width="2.88" height="3.84"></rect>
                <rect id="矩形" stroke="#FFFFFF" stroke-width="0.2" opacity="0" x="-5.68434189e-12" y="2.95585778e-12" width="50" height="50"></rect>
            </g>
        </g>
    </g>
</svg>