<?xml version="1.0" encoding="UTF-8"?>
<svg width="48px" height="45px" viewBox="0 0 48 45" version="1.1" xmlns="http://www.w3.org/2000/svg" xmlns:xlink="http://www.w3.org/1999/xlink">
    <!-- Generator: Sketch 60.1 (88133) - https://sketch.com -->
    <title>my order_goods to be received</title>
    <desc>Created with Sketch.</desc>
    <g id="我的-订单" stroke="none" stroke-width="1" fill="none" fill-rule="evenodd" opacity="0.699637277">
        <g id="订单详情-等待收货-状态1" transform="translate(-287.000000, -93.000000)" fill-rule="nonzero">
            <g id="my-order_goods-to-be-received" transform="translate(286.000000, 91.000000)">
                <path d="M4.6,19.584 L4.6,40.7296 C4.6,41.8525867 5.512,42.7605333 6.64,42.7605333 L43.12,42.7605333 C44.248,42.7605333 45.16,41.8525867 45.16,40.7296 L45.16,19.584 L4.6,19.584 Z M2.8,16 L46.96,16 C47.944,16 48.76,16.8123733 48.76,17.792 L48.76,40.7296 C48.76,43.8357333 46.24,46.3445333 43.12,46.3445333 L6.64,46.3445333 C3.52,46.3445333 1,43.8357333 1,40.7296 L1,17.792 C1,16.8123733 1.816,16 2.8,16 Z" id="形状" fill="#FFFFFF"></path>
                <path d="M40.53025,6.85221333 C40.21825,6.08762667 39.47425,5.58586667 38.63425,5.58586667 L11.17825,5.58586667 C10.33825,5.58586667 9.59425,6.08762667 9.28225,6.85221333 L5.49025,16.3378667 L44.32225,16.3378667 L40.53025,6.85221333 Z M11.17825,2.00186667 L38.61025,2.00186667 C40.91425,2.00186667 43.00225,3.38768 43.84225,5.53808 L48.64225,17.4608533 C49.00225,18.3688 48.57025,19.4201067 47.63425,19.7785067 C47.41825,19.87408 47.20225,19.8979733 46.96225,19.8979733 L2.82625,19.8979733 C1.84225,19.8979733 1.02625,19.0856 1.02625,18.1059733 C1.02625,17.86704 1.07425,17.652 1.14625,17.43696 L5.94625,5.51418667 C6.81025,3.38768 8.87425,2.00186667 11.17825,2.00186667 Z" id="形状" fill="#FFFFFF"></path>
                <g id="编组-2" transform="translate(21.000000, 25.000000)" fill="#FFFFFF">
                    <rect id="矩形" x="0" y="0" width="3" height="11" rx="1.5"></rect>
                    <rect id="矩形" x="0" y="9" width="11" height="3" rx="1.5"></rect>
                </g>
                <rect id="矩形" fill="#D8D8D8" opacity="0" x="0" y="0" width="50" height="50"></rect>
            </g>
        </g>
    </g>
</svg>