<?xml version="1.0" encoding="UTF-8"?>
<svg width="50px" height="50px" viewBox="0 0 50 50" version="1.1" xmlns="http://www.w3.org/2000/svg" xmlns:xlink="http://www.w3.org/1999/xlink">
    <!-- Generator: Sketch 60.1 (88133) - https://sketch.com -->
    <title>my order_successful trade</title>
    <desc>Created with Sketch.</desc>
    <g id="我的-订单" stroke="none" stroke-width="1" fill="none" fill-rule="evenodd" opacity="0.709030878">
        <g id="订单详情-交易成功-状态1" transform="translate(-285.000000, -91.000000)" fill-rule="nonzero">
            <g id="my-order_successful-trade" transform="translate(285.000000, 91.000000)">
                <polygon id="路径" fill-opacity="0" fill="#888888" points="0.492700906 0 49.7627915 0 49.7627915 49.2700906 0.492700906 49.2700906"></polygon>
                <path d="M18.9689849,49.0237401 L7.63686404,49.0237401 C3.69525679,49.0237401 0.492700906,45.8211842 0.246350453,41.879577 L0.246350453,7.39051358 C0.492700906,3.20255589 3.69525679,0 7.63686404,0 L37.6916193,0 C41.6332265,0 44.8357824,3.20255589 45.0821329,7.14416313 L45.0821329,15.2737281 C45.0821329,16.0127794 44.3430815,16.7518308 43.6040301,16.7518308 C42.8649788,16.7518308 42.1259274,16.0127794 42.1259274,15.2737281 L42.1259274,7.39051358 C42.1259274,5.17335951 40.1551238,3.20255589 37.9379697,3.20255589 L7.63686404,3.20255589 C5.41970996,3.20255589 3.44890634,4.92700906 3.44890634,7.39051358 L3.44890634,41.879577 C3.44890634,44.096731 5.41970996,46.0675347 7.63686404,46.0675347 L18.7226344,46.0675347 C19.4616858,46.0675347 20.2007371,46.806586 20.2007371,47.5456374 C20.2007371,48.2846887 19.7080362,49.0237401 18.9689849,49.0237401 Z" id="路径" fill="#FFFFFF"></path>
                <path d="M18.9689849,49.2700906 L7.63686404,49.2700906 C3.44890634,49.2700906 0.246350453,45.8211842 0,41.879577 L0,7.39051358 C0,3.20255589 3.44890634,0 7.63686404,0 L37.6916193,0 C41.879577,0 45.0821329,3.44890634 45.0821329,7.39051358 L45.0821329,15.5200785 C45.0821329,16.5054803 44.3430815,17.2445317 43.3576797,17.2445317 C42.3722779,17.2445317 41.6332265,16.5054803 41.6332265,15.5200785 L41.6332265,7.39051358 C41.6332265,5.17335951 39.9087733,3.44890634 37.6916193,3.44890634 L7.63686404,3.44890634 C5.66606041,3.44890634 3.69525679,5.17335951 3.69525679,7.39051358 L3.69525679,41.879577 C3.69525679,44.096731 5.41970996,45.8211842 7.63686404,45.8211842 L18.7226344,45.8211842 C19.7080362,45.8211842 20.4470876,46.5602356 20.4470876,47.5456374 C20.4470876,48.5310392 19.9543867,49.2700906 18.9689849,49.2700906 Z M7.63686404,0.246350453 C3.94160724,0.246350453 0.739051358,3.44890634 0.739051358,7.39051358 L0.739051358,41.879577 C0.739051358,45.8211842 3.94160724,48.7773896 7.88321449,48.7773896 L18.9689849,48.7773896 C19.7080362,48.7773896 20.2007371,48.2846887 20.2007371,47.5456374 C20.2007371,46.806586 19.7080362,46.3138851 18.9689849,46.3138851 L7.63686404,46.3138851 C5.17335951,46.3138851 3.20255589,44.3430815 3.20255589,41.879577 L3.20255589,7.39051358 C3.20255589,4.92700906 5.17335951,2.95620543 7.63686404,2.95620543 L37.6916193,2.95620543 C40.1551238,2.95620543 42.1259274,4.92700906 42.1259274,7.39051358 L42.1259274,15.5200785 C42.1259274,16.2591299 42.6186283,16.7518308 43.3576797,16.7518308 C44.096731,16.7518308 44.8357824,16.0127794 44.8357824,15.2737281 L44.8357824,7.39051358 C44.8357824,3.44890634 41.6332265,0.492700906 37.9379697,0.492700906 L7.63686404,0.492700906 L7.63686404,0.246350453 Z" id="形状" fill="#FFFFFF"></path>
                <path d="M33.9963625,15.2737281 L12.8102235,15.2737281 C12.0711722,15.2737281 11.3321208,14.5346767 11.3321208,13.7956254 C11.3321208,13.056574 12.0711722,12.3175226 12.8102235,12.3175226 L33.9963625,12.3175226 C34.7354138,12.3175226 35.4744652,13.056574 35.4744652,13.7956254 C35.4744652,14.5346767 34.9817643,15.2737281 33.9963625,15.2737281 L33.9963625,15.2737281 Z M21.9251903,26.113148 L12.8102235,26.113148 C12.0711722,26.113148 11.3321208,25.3740966 11.3321208,24.6350453 C11.3321208,23.8959939 12.0711722,23.1569426 12.8102235,23.1569426 L21.9251903,23.1569426 C22.6642417,23.1569426 23.403293,23.8959939 23.403293,24.6350453 C23.403293,25.3740966 22.9105921,26.113148 21.9251903,26.113148 Z M17.4908821,36.7062175 L12.8102235,36.7062175 C12.0711722,36.7062175 11.3321208,35.9671661 11.3321208,35.2281147 C11.3321208,34.4890634 12.0711722,33.750012 12.8102235,33.750012 L17.2445317,33.750012 C17.9835831,33.750012 18.7226344,34.4890634 18.7226344,35.2281147 C18.7226344,35.9671661 18.2299335,36.7062175 17.4908821,36.7062175 Z M36.459867,26.113148 C41.879577,26.113148 46.3138851,30.5474561 46.3138851,35.9671661 C46.3138851,41.3868761 41.879577,45.8211842 36.459867,45.8211842 C31.040157,45.8211842 26.6058489,41.3868761 26.6058489,35.9671661 C26.6058489,33.2573111 27.5912507,30.7938066 29.5620543,28.823003 C31.2865075,27.0985498 33.750012,26.113148 36.459867,26.113148 M36.459867,22.9105921 C29.3157039,22.9105921 23.403293,28.823003 23.403293,35.9671661 C23.403293,43.1113292 29.3157039,49.0237401 36.459867,49.0237401 C43.6040301,49.0237401 49.516441,43.1113292 49.516441,35.9671661 C49.516441,28.823003 43.6040301,22.9105921 36.459867,22.9105921 Z" id="形状" fill="#FFFFFF"></path>
                <path d="M36.459867,49.2700906 C33.0109607,49.2700906 29.5620543,47.7919878 27.0985498,45.3284833 C24.6350453,42.8649788 23.1569426,39.4160724 23.1569426,35.9671661 C23.1569426,28.5766525 29.0693534,22.6642417 36.459867,22.6642417 C43.8503806,22.6642417 49.7627915,28.5766525 49.7627915,35.9671661 C49.7627915,43.3576797 43.8503806,49.2700906 36.459867,49.2700906 Z M36.459867,23.1569426 C29.3157039,23.1569426 23.6496435,28.823003 23.6496435,35.9671661 C23.6496435,39.4160724 24.8813957,42.6186283 27.3449003,45.0821329 C29.8084048,47.5456374 33.0109607,48.7773896 36.459867,48.7773896 C43.6040301,48.7773896 49.2700906,43.1113292 49.2700906,35.9671661 C49.2700906,28.823003 43.6040301,23.1569426 36.459867,23.1569426 Z M36.459867,46.0675347 C30.7938066,46.0675347 26.3594984,41.3868761 26.3594984,35.9671661 C26.3594984,33.2573111 27.3449003,30.7938066 29.3157039,28.823003 C31.2865075,26.8521994 33.750012,25.8667975 36.459867,25.8667975 C42.1259274,25.8667975 46.5602356,30.5474561 46.5602356,35.9671661 C46.5602356,41.6332265 42.1259274,46.0675347 36.459867,46.0675347 Z M36.459867,26.3594984 C33.9963625,26.3594984 31.532858,27.3449003 29.5620543,29.3157039 C27.8376012,31.040157 26.6058489,33.5036616 26.6058489,36.2135166 C26.6058489,41.6332265 31.040157,45.8211842 36.2135166,45.8211842 C41.6332265,45.8211842 45.8211842,41.3868761 45.8211842,36.2135166 C46.0675347,30.5474561 41.879577,26.3594984 36.459867,26.3594984 L36.459867,26.3594984 Z M17.4908821,36.9525679 L12.8102235,36.9525679 C11.8248217,36.9525679 11.0857704,36.2135166 11.0857704,35.2281147 C11.0857704,34.2427129 11.8248217,33.5036616 12.8102235,33.5036616 L17.2445317,33.5036616 C18.2299335,33.5036616 18.9689849,34.2427129 18.9689849,35.2281147 C18.9689849,36.2135166 18.476284,36.9525679 17.4908821,36.9525679 Z M12.8102235,33.9963625 C12.0711722,33.9963625 11.5784713,34.4890634 11.5784713,35.2281147 C11.5784713,35.9671661 12.0711722,36.459867 12.8102235,36.459867 L17.2445317,36.459867 C17.9835831,36.459867 18.476284,35.9671661 18.476284,35.2281147 C18.476284,34.4890634 17.9835831,33.9963625 17.2445317,33.9963625 L12.8102235,33.9963625 Z M21.9251903,26.3594984 L12.8102235,26.3594984 C11.8248217,26.3594984 11.0857704,25.6204471 11.0857704,24.6350453 C11.0857704,23.6496435 11.8248217,22.9105921 12.8102235,22.9105921 L21.9251903,22.9105921 C22.9105921,22.9105921 23.6496435,23.6496435 23.6496435,24.6350453 C23.6496435,25.6204471 22.9105921,26.3594984 21.9251903,26.3594984 L21.9251903,26.3594984 Z M12.8102235,23.1569426 C12.0711722,23.1569426 11.5784713,23.6496435 11.5784713,24.3886948 C11.5784713,25.1277462 12.0711722,25.6204471 12.8102235,25.6204471 L21.9251903,25.6204471 C22.6642417,25.6204471 23.1569426,25.1277462 23.1569426,24.3886948 C23.1569426,23.6496435 22.6642417,23.1569426 21.9251903,23.1569426 L12.8102235,23.1569426 Z M33.9963625,15.5200785 L12.8102235,15.5200785 C11.8248217,15.5200785 11.0857704,14.7810272 11.0857704,13.7956254 C11.0857704,12.8102235 11.8248217,12.0711722 12.8102235,12.0711722 L33.9963625,12.0711722 C34.9817643,12.0711722 35.7208157,12.8102235 35.7208157,13.7956254 C35.9671661,14.7810272 34.9817643,15.5200785 33.9963625,15.5200785 Z M12.8102235,12.5638731 C12.0711722,12.5638731 11.5784713,13.056574 11.5784713,13.7956254 C11.5784713,14.5346767 12.0711722,15.0273776 12.8102235,15.0273776 L33.9963625,15.0273776 C34.7354138,15.0273776 35.2281147,14.5346767 35.2281147,13.7956254 C35.2281147,13.056574 34.7354138,12.5638731 33.9963625,12.5638731 L12.8102235,12.5638731 Z" id="形状" fill="#FFFFFF"></path>
                <path d="M42.5890219,33.3872606 L35.1351852,40.8410973 C34.8641366,41.1121459 34.503642,41.2503807 34.1458578,41.2503807 C33.7880736,41.2503807 33.4302895,41.1148564 33.1565304,40.8410973 L29.4106386,37.0952055 C28.8631205,36.5503979 28.8631205,35.6640689 29.4106386,35.1165507 C29.9581568,34.5690325 30.8417753,34.571743 31.3892935,35.1165507 L34.1485683,37.873115 L40.6130776,31.4086058 C41.1578853,30.8637981 42.0442142,30.8637981 42.5917324,31.4086058 C43.1365401,31.956124 43.1365401,32.8424529 42.5890219,33.3872606 Z" id="形状" fill="#FFFFFF"></path>
            </g>
        </g>
    </g>
</svg>