<?xml version="1.0" encoding="UTF-8"?>
<svg width="50px" height="50px" viewBox="0 0 50 50" version="1.1" xmlns="http://www.w3.org/2000/svg" xmlns:xlink="http://www.w3.org/1999/xlink">
    <!-- Generator: Sketch 60.1 (88133) - https://sketch.com -->
    <title>my order_refund</title>
    <desc>Created with Sketch.</desc>
    <g id="我的-订单" stroke="none" stroke-width="1" fill="none" fill-rule="evenodd" opacity="0.709030878">
        <g id="订单详情-退款中-状态1" transform="translate(-285.000000, -91.000000)" fill-rule="nonzero">
            <g id="my-order_refund" transform="translate(285.000000, 91.000000)">
                <polygon id="路径" fill-opacity="0" fill="#888888" points="0.492700906 0 49.7627915 0 49.7627915 49.2700906 0.492700906 49.2700906"></polygon>
                <path d="M18.9689849,49.0237401 L7.63686404,49.0237401 C3.69525679,49.0237401 0.492700906,45.8211842 0.246350453,41.879577 L0.246350453,7.39051358 C0.492700906,3.20255589 3.69525679,0 7.63686404,0 L37.6916193,0 C41.6332265,0 44.8357824,3.20255589 45.0821329,7.14416313 L45.0821329,15.2737281 C45.0821329,16.0127794 44.3430815,16.7518308 43.6040301,16.7518308 C42.8649788,16.7518308 42.1259274,16.0127794 42.1259274,15.2737281 L42.1259274,7.39051358 C42.1259274,5.17335951 40.1551238,3.20255589 37.9379697,3.20255589 L7.63686404,3.20255589 C5.41970996,3.20255589 3.44890634,4.92700906 3.44890634,7.39051358 L3.44890634,41.879577 C3.44890634,44.096731 5.41970996,46.0675347 7.63686404,46.0675347 L18.7226344,46.0675347 C19.4616858,46.0675347 20.2007371,46.806586 20.2007371,47.5456374 C20.2007371,48.2846887 19.7080362,49.0237401 18.9689849,49.0237401 Z" id="路径" fill="#FFFFFF"></path>
                <path d="M18.9689849,49.2700906 L7.63686404,49.2700906 C3.44890634,49.2700906 0.246350453,45.8211842 0,41.879577 L0,7.39051358 C0,3.20255589 3.44890634,0 7.63686404,0 L37.6916193,0 C41.879577,0 45.0821329,3.44890634 45.0821329,7.39051358 L45.0821329,15.5200785 C45.0821329,16.5054803 44.3430815,17.2445317 43.3576797,17.2445317 C42.3722779,17.2445317 41.6332265,16.5054803 41.6332265,15.5200785 L41.6332265,7.39051358 C41.6332265,5.17335951 39.9087733,3.44890634 37.6916193,3.44890634 L7.63686404,3.44890634 C5.66606041,3.44890634 3.69525679,5.17335951 3.69525679,7.39051358 L3.69525679,41.879577 C3.69525679,44.096731 5.41970996,45.8211842 7.63686404,45.8211842 L18.7226344,45.8211842 C19.7080362,45.8211842 20.4470876,46.5602356 20.4470876,47.5456374 C20.4470876,48.5310392 19.9543867,49.2700906 18.9689849,49.2700906 Z M7.63686404,0.246350453 C3.94160724,0.246350453 0.739051358,3.44890634 0.739051358,7.39051358 L0.739051358,41.879577 C0.739051358,45.8211842 3.94160724,48.7773896 7.88321449,48.7773896 L18.9689849,48.7773896 C19.7080362,48.7773896 20.2007371,48.2846887 20.2007371,47.5456374 C20.2007371,46.806586 19.7080362,46.3138851 18.9689849,46.3138851 L7.63686404,46.3138851 C5.17335951,46.3138851 3.20255589,44.3430815 3.20255589,41.879577 L3.20255589,7.39051358 C3.20255589,4.92700906 5.17335951,2.95620543 7.63686404,2.95620543 L37.6916193,2.95620543 C40.1551238,2.95620543 42.1259274,4.92700906 42.1259274,7.39051358 L42.1259274,15.5200785 C42.1259274,16.2591299 42.6186283,16.7518308 43.3576797,16.7518308 C44.096731,16.7518308 44.8357824,16.0127794 44.8357824,15.2737281 L44.8357824,7.39051358 C44.8357824,3.44890634 41.6332265,0.492700906 37.9379697,0.492700906 L7.63686404,0.492700906 L7.63686404,0.246350453 Z" id="形状" fill="#FFFFFF"></path>
                <path d="M33.9963625,15.2737281 L12.8102235,15.2737281 C12.0711722,15.2737281 11.3321208,14.5346767 11.3321208,13.7956254 C11.3321208,13.056574 12.0711722,12.3175226 12.8102235,12.3175226 L33.9963625,12.3175226 C34.7354138,12.3175226 35.4744652,13.056574 35.4744652,13.7956254 C35.4744652,14.5346767 34.9817643,15.2737281 33.9963625,15.2737281 L33.9963625,15.2737281 Z M21.9251903,26.113148 L12.8102235,26.113148 C12.0711722,26.113148 11.3321208,25.3740966 11.3321208,24.6350453 C11.3321208,23.8959939 12.0711722,23.1569426 12.8102235,23.1569426 L21.9251903,23.1569426 C22.6642417,23.1569426 23.403293,23.8959939 23.403293,24.6350453 C23.403293,25.3740966 22.9105921,26.113148 21.9251903,26.113148 Z M17.4908821,36.7062175 L12.8102235,36.7062175 C12.0711722,36.7062175 11.3321208,35.9671661 11.3321208,35.2281147 C11.3321208,34.4890634 12.0711722,33.750012 12.8102235,33.750012 L17.2445317,33.750012 C17.9835831,33.750012 18.7226344,34.4890634 18.7226344,35.2281147 C18.7226344,35.9671661 18.2299335,36.7062175 17.4908821,36.7062175 Z" id="形状" fill="#FFFFFF"></path>
                <path d="M17.4908821,36.9525679 L12.8102235,36.9525679 C11.8248217,36.9525679 11.0857704,36.2135166 11.0857704,35.2281147 C11.0857704,34.2427129 11.8248217,33.5036616 12.8102235,33.5036616 L17.2445317,33.5036616 C18.2299335,33.5036616 18.9689849,34.2427129 18.9689849,35.2281147 C18.9689849,36.2135166 18.476284,36.9525679 17.4908821,36.9525679 Z M12.8102235,33.9963625 C12.0711722,33.9963625 11.5784713,34.4890634 11.5784713,35.2281147 C11.5784713,35.9671661 12.0711722,36.459867 12.8102235,36.459867 L17.2445317,36.459867 C17.9835831,36.459867 18.476284,35.9671661 18.476284,35.2281147 C18.476284,34.4890634 17.9835831,33.9963625 17.2445317,33.9963625 L12.8102235,33.9963625 Z M21.9251903,26.3594984 L12.8102235,26.3594984 C11.8248217,26.3594984 11.0857704,25.6204471 11.0857704,24.6350453 C11.0857704,23.6496435 11.8248217,22.9105921 12.8102235,22.9105921 L21.9251903,22.9105921 C22.9105921,22.9105921 23.6496435,23.6496435 23.6496435,24.6350453 C23.6496435,25.6204471 22.9105921,26.3594984 21.9251903,26.3594984 L21.9251903,26.3594984 Z M12.8102235,23.1569426 C12.0711722,23.1569426 11.5784713,23.6496435 11.5784713,24.3886948 C11.5784713,25.1277462 12.0711722,25.6204471 12.8102235,25.6204471 L21.9251903,25.6204471 C22.6642417,25.6204471 23.1569426,25.1277462 23.1569426,24.3886948 C23.1569426,23.6496435 22.6642417,23.1569426 21.9251903,23.1569426 L12.8102235,23.1569426 Z M33.9963625,15.5200785 L12.8102235,15.5200785 C11.8248217,15.5200785 11.0857704,14.7810272 11.0857704,13.7956254 C11.0857704,12.8102235 11.8248217,12.0711722 12.8102235,12.0711722 L33.9963625,12.0711722 C34.9817643,12.0711722 35.7208157,12.8102235 35.7208157,13.7956254 C35.9671661,14.7810272 34.9817643,15.5200785 33.9963625,15.5200785 Z M12.8102235,12.5638731 C12.0711722,12.5638731 11.5784713,13.056574 11.5784713,13.7956254 C11.5784713,14.5346767 12.0711722,15.0273776 12.8102235,15.0273776 L33.9963625,15.0273776 C34.7354138,15.0273776 35.2281147,14.5346767 35.2281147,13.7956254 C35.2281147,13.056574 34.7354138,12.5638731 33.9963625,12.5638731 L12.8102235,12.5638731 Z" id="形状" fill="#FFFFFF"></path>
                <g id="编组" transform="translate(23.000000, 22.000000)" fill="#FFFFFF">
                    <path d="M26.2268227,13.7619582 C25.3179103,13.7703437 20.8595113,11.1959677 20.7187087,11.0614697 C20.3803622,10.7388846 20.5085556,10.3364413 20.8532067,10.2818015 C21.1999594,10.2271617 23.139673,9.99599323 23.139673,9.99599323 C21.9470539,6.80902076 19.2854643,4.26406616 15.7937697,3.43921506 C10.2194575,2.12155483 4.45600749,5.85702701 3.18142866,11.5595326 C3.170921,11.6078679 3.0942151,12.1899921 2.63187818,12.1710783 C2.31980076,12.1584691 1.29635493,11.750772 0.925434631,11.5773957 C0.503026807,11.3788009 0.389544107,11.4302885 0.516686761,10.7924737 C1.96674347,3.5421901 9.39145413,-1.34281979 16.5166966,0.328948494 C22.4304061,1.71595926 26.5389001,6.8478991 26.9907294,12.6943596 C27.0663845,13.4782309 26.6670935,13.755633 26.2268227,13.7608868 L26.2268227,13.7619582 Z M16.9191398,15.3506954 C17.5043945,15.3506954 17.9788371,15.825138 17.9788371,16.4103926 C17.9788371,16.9956473 17.5043945,17.4700899 16.9191398,17.4700899 L14.7997454,17.4700899 L14.7997454,18.7951055 C14.7997454,19.5268914 14.2065157,20.1201211 13.4747298,20.1201211 C12.7429439,20.1201211 12.1497142,19.5268914 12.1497142,18.7951055 L12.1497142,17.4711406 L10.0303197,17.4711406 C9.46311732,17.4458817 9.01626066,16.9786825 9.01626066,16.410918 C9.01626066,15.8431535 9.46311732,15.3759543 10.0303197,15.3506954 L12.1497142,15.3506954 L12.1497142,14.2904728 L10.0303197,14.2904728 C9.45805174,14.2724503 9.00347026,13.8033272 9.00347026,13.2307755 C9.00347026,12.6582239 9.45805174,12.1891008 10.0303197,12.1710783 L12.1497142,12.1710783 L12.1497142,12.0975247 L9.79704971,9.74696175 C9.38008844,9.33000047 9.38008844,8.65397268 9.79704972,8.23701141 C10.214011,7.82005013 10.8900388,7.82005013 11.3070001,8.23701139 L13.4568668,10.3858273 L15.6151396,8.22860527 C16.0378445,7.8507828 16.6820327,7.86882718 17.082925,8.26971946 C17.4838172,8.67061174 17.5018616,9.31479997 17.1240392,9.73750486 L14.7997454,12.0628494 L14.7997454,12.1710783 L16.9191398,12.1710783 C17.3056906,12.1589046 17.6682039,12.358177 17.8650792,12.691058 C18.0619545,13.023939 18.0619545,13.4376121 17.8650792,13.7704931 C17.6682039,14.1033741 17.3056906,14.3026465 16.9191398,14.2904728 L14.7997454,14.2904728 L14.7997454,15.3506954 L16.9191398,15.3506954 Z M6.28539063,16.845935 C6.75087985,17.1433017 6.63844792,17.7411874 6.12777577,17.7937257 C5.61710362,17.846264 4.01573665,17.9881174 4.01573665,17.9881174 C5.28506165,20.9617844 7.8562854,23.304992 11.1798574,24.089914 C16.7541696,25.4065235 22.4545737,21.851783 23.7281018,16.1482266 C23.7543709,16.0326424 23.7533202,16.0505054 23.7995539,15.7993724 C23.8447368,15.5471886 23.9193411,15.1657606 24.408998,15.3359847 C24.8997056,15.5062087 26.0965277,15.8571645 26.4695496,15.9569872 C26.8425714,16.05681 26.8005408,16.2039172 26.7532563,16.5506699 C26.7395964,16.6557464 26.7185811,16.7524169 26.6954642,16.8532904 C25.027899,24.2685442 17.7650063,28.8940149 10.4758444,27.1823175 C4.56843942,25.7974083 0.462046943,20.6780777 0.00391308382,14.8389725 C-0.0591328601,13.836542 0.650134009,13.6305919 1.3741116,14.0141214 C1.94467739,14.3156912 5.82095218,16.5485683 6.28539063,16.845935 L6.28539063,16.845935 Z" id="形状"></path>
                </g>
            </g>
        </g>
    </g>
</svg>