<?xml version="1.0" encoding="UTF-8"?>
<svg width="13px" height="17px" viewBox="0 0 13 17" version="1.1" xmlns="http://www.w3.org/2000/svg" xmlns:xlink="http://www.w3.org/1999/xlink">
    <!-- Generator: Sketch 60.1 (88133) - https://sketch.com -->
    <title>location</title>
    <desc>Created with Sketch.</desc>
    <g id="首页" stroke="none" stroke-width="1" fill="none" fill-rule="evenodd">
        <g id="店铺详情页-店铺简介1" transform="translate(-88.000000, -111.000000)" fill-rule="nonzero">
            <g id="location" transform="translate(88.000000, 111.000000)">
                <path d="M6.5,0 C8.33733333,0.0462222222 9.86266667,0.693333333 11.0933333,1.95057778 C12.3153333,3.20782222 12.9566667,4.77937778 13,6.67448889 C13,7.21066667 12.9393333,7.7376 12.8093333,8.26453333 C12.688,8.78222222 12.4973333,9.29066667 12.2546667,9.75288889 C11.544,10.9639111 10.452,12.3413333 8.97866667,13.8851556 L6.838,16.0853333 C6.64733333,16.2794667 6.35266667,16.2794667 6.17066667,16.0853333 L4.02133333,13.8851556 C2.53933333,12.3413333 1.44733333,10.9546667 0.736666667,9.7344 C0.26,8.80071111 0.00866666667,7.74684444 0,6.67448889 C0.052,4.77937778 0.684666667,3.20782222 1.90666667,1.95057778 C3.13733333,0.693333333 4.66266667,0.0462222222 6.5,0 Z" id="路径" fill="#FA4949"></path>
                <path d="M4.73198198,8.26801802 C5.19369369,8.74099099 5.76801802,8.97747748 6.5,9 C7.23198198,8.97747748 7.80630631,8.74099099 8.26801802,8.26801802 C8.74099099,7.78378378 8.97747748,7.20945946 9,6.53378378 C8.97747748,5.79054054 8.74099099,5.21621622 8.26801802,4.73198198 C7.80630631,4.25900901 7.23198198,4.02252252 6.5,4 C5.76801802,4.02252252 5.19369369,4.27027027 4.73198198,4.73198198 C4.25900901,5.20495495 4.02252252,5.76801802 4,6.5 C4.02252252,7.23198198 4.25900901,7.79504505 4.73198198,8.26801802 Z" id="路径" fill="#FFFFFF"></path>
            </g>
        </g>
    </g>
</svg>