<?xml version="1.0" encoding="UTF-8"?>
<svg width="345px" height="172px" viewBox="0 0 345 172" version="1.1" xmlns="http://www.w3.org/2000/svg" xmlns:xlink="http://www.w3.org/1999/xlink">
    <!-- Generator: Sketch 60.1 (88133) - https://sketch.com -->
    <title>shop_bitmap3</title>
    <desc>Created with Sketch.</desc>
    <defs>
        <rect id="path-1" x="0" y="0" width="345" height="172" rx="4"></rect>
    </defs>
    <g id="首页" stroke="none" stroke-width="1" fill="none" fill-rule="evenodd">
        <g id="店铺详情页-店铺简介1" transform="translate(-15.000000, -648.000000)">
            <g id="shop_bitmap3" transform="translate(15.000000, 648.000000)">
                <mask id="mask-2" fill="white">
                    <use xlink:href="#path-1"></use>
                </mask>
                <use id="蒙版" fill="#FCFCFC" fill-rule="nonzero" xlink:href="#path-1"></use>
                <g id="shop_bitmap" mask="url(#mask-2)" opacity="0.812546503">
                    <g transform="translate(113.000000, 48.000000)" id="编组">
                        <g>
                            <path d="M58.0242011,49.9090909 L11.7939808,49.9090909 C9.49798325,49.9090909 7.63636364,47.9189189 7.63636364,45.4643735 L7.63636364,44.5356265 C7.63636364,42.0810811 9.49798325,40.0909091 11.7939808,40.0909091 L58.0242011,40.0909091 C60.3201986,40.0909091 62.1818182,42.0810811 62.1818182,44.5356265 L62.1818182,45.4643735 C62.1818182,47.9189189 60.3201986,49.9090909 58.0242011,49.9090909 Z" id="路径" fill="#F6F6F6" fill-rule="nonzero"></path>
                            <path d="M57.8181818,66.7447428 L57.1164274,66.7447428 C52.4593301,66.7447428 48.6953748,63.0799094 48.6953748,58.5454545 C48.6953748,54.0109997 52.4593301,50.3461663 57.1164274,50.3461663 L57.8181818,50.3461663 L57.8181818,41.0909091 L14.245614,41.0909091 L14.245614,50.3461663 L30.1945774,50.3461663 C34.8516746,50.3461663 38.61563,54.0109997 38.61563,58.5454545 C38.61563,63.0799094 34.8516746,66.7447428 30.1945774,66.7447428 L14.1818182,66.7447428 L14.1818182,76 L57.8181818,76 L57.8181818,66.7447428 L57.8181818,66.7447428 Z" id="路径" fill="#F2F2F2" fill-rule="nonzero"></path>
                            <path d="M67.6363636,26.7723636 C67.6363636,25.0443636 65.9581849,23.6363636 63.8005266,23.6363636 L24.7229363,23.6363636 C22.565278,23.6363636 20.7272727,25.0443636 20.7272727,26.8363636 C20.7272727,28.5643636 22.4853647,30.0363636 24.7229363,30.0363636 L40.6256776,30.0363636 C44.5414279,30.0363636 47.6580455,32.5323636 47.6580455,35.6683636 C47.6580455,38.8043636 44.5414279,41.3003636 40.6256776,41.3003636 L27.3600743,41.3003636 L27.3600743,47.6363636 L63.8005266,47.6363636 L63.8005266,41.3003636 L63.2411337,41.3003636 C59.3253833,41.3003636 56.2087657,38.8043636 56.2087657,35.6683636 C56.2087657,32.5323636 59.3253833,30.0363636 63.2411337,30.0363636 L63.8804398,30.0363636 C65.9581849,29.8443636 67.6363636,28.4363636 67.6363636,26.7723636 L67.6363636,26.7723636 Z M88.3636364,66.1818182 L5.82790472,66.1818182 C2.59893048,66.1818182 0,68.3710074 0,71.0909091 C0,73.8108108 2.59893048,76 5.82790472,76 L88.3636364,76 L88.3636364,66.1818182 L88.3636364,66.1818182 Z M88.3636364,66.1818182 L106.909091,66.1818182 L106.909091,76 L88.3636364,76 L88.3636364,66.1818182 Z M114.155844,66.1818182 L106.909091,66.1818182 L106.909091,76 L114.233766,76 C117.428571,76 120,73.8255034 120,71.123856 C120,68.3563148 117.428571,66.1818182 114.155844,66.1818182 L114.155844,66.1818182 Z" id="形状" fill="#F6F6F6" fill-rule="nonzero"></path>
                            <path d="M114.999661,49.4597238 C114.181886,49.4597238 113.36411,49.1439913 112.735052,48.6388193 C112.043088,48.0073543 111.602747,47.1864498 111.476935,46.2392522 C111.383352,45.3057949 111.672521,44.3743363 112.277811,43.6595058 C112.883101,42.9446754 113.752303,42.5081308 114.685132,42.4504621 C115.615032,42.3565209 116.54294,42.6467963 117.255046,43.2544022 C117.967152,43.8620081 118.402033,44.7345354 118.459482,45.6709337 C118.553065,46.6043911 118.263896,47.5358496 117.658606,48.2506801 C117.053316,48.9655106 116.184114,49.4020551 115.251285,49.4597238 L114.999661,49.4597238 L114.999661,49.4597238 Z M114.999661,43.4608061 L114.810944,43.4608061 C113.427016,43.5870991 112.420523,44.7868827 112.546334,46.1761057 C112.60924,46.8707173 112.923769,47.4390358 113.427016,47.8810613 C113.930262,48.3230868 114.559321,48.5125263 115.251285,48.4493798 C116.635213,48.3230868 117.641706,47.1233033 117.515895,45.7340802 C117.452989,45.0394687 117.13846,44.4711502 116.635213,44.0291247 C116.194872,43.6502457 115.62872,43.4608061 114.999661,43.4608061 Z M96.27686,55.6480811 C96.0252367,55.6480811 95.7736134,55.395495 95.7736134,55.142909 L95.7736134,51.9855839 L93.5719095,54.1957115 C93.383192,54.385151 93.0686629,54.385151 92.8799454,54.1957115 C92.6912279,54.006272 92.6912279,53.6905395 92.8799454,53.5011 L95.0816493,51.2909724 L91.936358,51.2909724 C91.6847347,51.2909724 91.4331114,51.0383864 91.4331114,50.7858004 C91.4331114,50.5332144 91.6847347,50.2806284 91.936358,50.2806284 L95.0816493,50.2806284 L92.8799454,48.0705008 C92.6912279,47.8810613 92.6912279,47.5653288 92.8799454,47.3758893 C93.0686629,47.1864498 93.383192,47.1864498 93.5719095,47.3758893 L95.7736134,49.5860169 L95.7736134,46.4286917 C95.7736134,46.1761057 96.0252367,45.9235197 96.27686,45.9235197 C96.5284833,45.9235197 96.7801066,46.1761057 96.7801066,46.4286917 L96.7801066,49.5860169 L98.9818104,47.3758893 C99.1705279,47.1864498 99.485057,47.1864498 99.6737745,47.3758893 C99.862492,47.5653288 99.862492,47.8810613 99.6737745,48.0705008 L97.4720706,50.2806284 L100.617362,50.2806284 C100.868985,50.2806284 101.120609,50.5332144 101.120609,50.7858004 C101.120609,51.0383864 100.868985,51.2909724 100.617362,51.2909724 L97.4720706,51.2909724 L99.6737745,53.5011 C99.862492,53.6905395 99.862492,54.006272 99.6737745,54.1957115 C99.485057,54.385151 99.1705279,54.385151 98.9818104,54.1957115 L96.7801066,51.9855839 L96.7801066,55.142909 C96.7801066,55.4586415 96.5284833,55.6480811 96.27686,55.6480811 Z" id="形状" fill="#E2E2E2" fill-rule="nonzero" transform="translate(104.954939, 49.040596) rotate(90.000000) translate(-104.954939, -49.040596) "></path>
                            <path d="M92.7272727,71.0171429 L69.8181818,71.2727273 L69.8181818,32.1683117 C69.8181818,29.1651948 71.8842537,26.7371429 74.4972269,26.6732468 L87.926694,26.5454545 C90.5396672,26.5454545 92.7272727,28.9735065 92.7272727,32.0405195 L92.7272727,71.0171429 Z" id="路径" fill="#EFEFEF" fill-rule="nonzero"></path>
                            <path d="M68.7272727,70.1818182 L68.7272727,30.6833856 C68.7272727,27.270721 71.3259644,24.4900313 74.5743289,24.4900313 L88.9321002,24.3636364 C90.4263478,24.3636364 91.8556282,24.9324138 92.9600722,26.0067712 C94.1944507,27.2075235 94.9090909,28.8506583 94.9090909,30.6201881 L94.9090909,69.9922257 L68.7272727,70.1818182 L68.7272727,70.1818182 Z M88.9321002,25.9435737 L74.5743289,26.0699687 C72.2355064,26.0699687 70.4164223,28.1554859 70.4164223,30.6833856 L70.4164223,68.5386834 L93.2199413,68.2858934 L93.2199413,30.4937931 C93.2199413,29.1666458 92.700203,27.9026959 91.790661,27.0811285 C90.9460862,26.3227586 89.9715768,25.9435737 88.9321002,25.9435737 L88.9321002,25.9435737 Z" id="形状" fill="#E2E2E2" fill-rule="nonzero"></path>
                            <path d="M73.0909091,68 L33.8181818,67.6859965 L33.8181818,4.57128387 C33.8181818,2.75006331 35.7848912,0.677639909 38.3047375,0.677639909 L68.5428937,0.363636364 C71.0627401,0.363636364 73.0909091,2.43605976 73.0909091,4.94808812 L73.0909091,68 Z" id="路径" fill="#F3F3F3" fill-rule="nonzero"></path>
                            <path d="M39.5339309,67.7485637 L39.5339309,4.57519432 C39.5339309,2.75228118 41.5006402,0.677931734 44.0204866,0.677931734 L69.0960307,0.426495438 C68.9116517,0.426495438 68.7272727,0.363636364 68.5428937,0.363636364 L38.3047375,0.61507266 C35.8463508,0.61507266 33.8181818,2.6894221 33.8181818,4.51233525 L33.8181818,67.6857046 L73.0909091,68 L73.0909091,67.9371409 L39.5339309,67.7485637 Z" id="路径" fill="#FFFFFF" fill-rule="nonzero"></path>
                            <path d="M34.2233766,70.1818182 C33.8493506,70.1818182 33.4753247,70.0559062 33.1636364,69.7411263 C32.8519481,69.4263464 32.7272727,69.0486105 32.7272727,68.6708747 L32.7272727,49.9729486 C32.7272727,49.5322567 33.1012987,49.1545209 33.5376623,49.1545209 C33.974026,49.1545209 34.3480519,49.5322567 34.3480519,49.9729486 L34.3480519,68.4820067 L72.561039,68.1042708 L72.561039,7.60357406 C72.561039,6.09263054 72,4.70759898 70.9402597,3.63734732 C69.8805195,2.56709566 68.4467532,2.00049184 66.9506494,2.00049184 L39.8337662,2.25231576 C36.7792208,2.25231576 34.3480519,4.77055496 34.3480519,7.85539798 L34.3480519,10.0588573 C34.3480519,10.4995491 33.974026,10.877285 33.5376623,10.877285 C33.1012987,10.877285 32.7272727,10.4995491 32.7272727,10.0588573 L32.7272727,7.85539798 C32.7272727,3.88917124 35.9064935,0.678416264 39.8337662,0.615460284 L66.9506494,0.363636364 C68.8831169,0.363636364 70.6909091,1.11910812 72.0623377,2.4411837 C73.4337662,3.82621526 74.1818182,5.65193868 74.1818182,7.60357406 L74.1818182,68.2931388 C74.1818182,69.1115665 73.4961039,69.8040823 72.6857143,69.8040823 L34.2233766,70.1818182 Z" id="路径" fill="#E2E2E2" fill-rule="nonzero"></path>
                            <path d="M33.2727273,46.1818182 C32.979021,46.1818182 32.7272727,45.8041958 32.7272727,45.3636364 L32.7272727,42.6573427 C32.7272727,42.2167832 32.979021,41.8391608 33.2727273,41.8391608 C33.5664336,41.8391608 33.8181818,42.2167832 33.8181818,42.6573427 L33.8181818,45.3636364 C33.8181818,45.8041958 33.5664336,46.1818182 33.2727273,46.1818182 Z M33.2727273,39.5734266 C32.979021,39.5734266 32.7272727,39.1958042 32.7272727,38.7552448 L32.7272727,14.2727273 C32.7272727,13.8321678 32.979021,13.4545455 33.2727273,13.4545455 C33.5664336,13.4545455 33.8181818,13.8321678 33.8181818,14.2727273 L33.8181818,38.7552448 C33.8181818,39.2587413 33.5664336,39.5734266 33.2727273,39.5734266 Z" id="形状" fill="#E8E8E8" fill-rule="nonzero"></path>
                            <path d="M59.5862069,15.6363636 L46.2319749,15.6363636 C45.4169279,15.6363636 44.7272727,15.1363636 44.7272727,14.5454545 C44.7272727,13.9545455 45.4169279,13.4545455 46.2319749,13.4545455 L59.5862069,13.4545455 C60.4012539,13.4545455 61.0909091,13.9545455 61.0909091,14.5454545 C61.0909091,15.1363636 60.4012539,15.6363636 59.5862069,15.6363636 Z" id="路径" fill="#DDDDDD" fill-rule="nonzero"></path>
                            <path d="M53.4531117,22.1818182 C52.8629792,22.1818182 52.3636364,21.492163 52.3636364,20.677116 L52.3636364,7.32288401 C52.3636364,6.50783699 52.8629792,5.81818182 53.4531117,5.81818182 C54.0432442,5.81818182 54.5425871,6.50783699 54.5425871,7.32288401 L54.5425871,20.677116 C54.5879819,21.5548589 54.088639,22.1818182 53.4531117,22.1818182 Z" id="路径" fill="#DDDDDD" fill-rule="nonzero"></path>
                            <path d="M63.4826996,36.9411765 L45.5482173,36.9411765 C45.1061702,36.9411765 44.7272727,36.5561497 44.7272727,36.1069519 C44.7272727,35.657754 45.1061702,35.2727273 45.5482173,35.2727273 L63.4826996,35.2727273 C63.9247467,35.2727273 64.3036443,35.657754 64.3036443,36.1069519 C64.3036443,36.5561497 63.9247467,36.9411765 63.4826996,36.9411765 Z M63.4826996,43.8716578 L45.5482173,43.8716578 C45.1061702,43.8716578 44.7272727,43.486631 44.7272727,43.0374332 C44.7272727,42.5882353 45.1061702,42.2032086 45.5482173,42.2032086 L63.4826996,42.2032086 C63.9247467,42.2032086 64.3036443,42.5882353 64.3036443,43.0374332 C64.3036443,43.486631 63.9247467,43.8716578 63.4826996,43.8716578 Z M63.2932509,69.0909091 L44.7272727,69.0909091 L44.7272727,52.2139037 L63.2301013,52.2139037 L63.2301013,69.0909091 L63.2932509,69.0909091 Z M46.369162,67.4224599 L61.5882121,67.4224599 L61.5882121,53.8823529 L46.369162,53.8823529 L46.369162,67.4224599 L46.369162,67.4224599 Z M88.3636364,69.0909091 L79.2069465,69.0909091 L79.2069465,52.2139037 L88.3636364,52.2139037 L88.3636364,69.0909091 L88.3636364,69.0909091 Z M80.8488357,67.4224599 L86.7217471,67.4224599 L86.7217471,53.8823529 L80.8488357,53.8823529 L80.8488357,67.4224599 L80.8488357,67.4224599 Z M87.5426918,36.9411765 L80.0278911,36.9411765 C79.585844,36.9411765 79.2069465,36.5561497 79.2069465,36.1069519 C79.2069465,35.657754 79.585844,35.2727273 80.0278911,35.2727273 L87.5426918,35.2727273 C87.9847389,35.2727273 88.3636364,35.657754 88.3636364,36.1069519 C88.3636364,36.5561497 87.9847389,36.9411765 87.5426918,36.9411765 Z M87.5426918,43.8716578 L80.0278911,43.8716578 C79.585844,43.8716578 79.2069465,43.486631 79.2069465,43.0374332 C79.2069465,42.5882353 79.585844,42.2032086 80.0278911,42.2032086 L87.5426918,42.2032086 C87.9847389,42.2032086 88.3636364,42.5882353 88.3636364,43.0374332 C88.3636364,43.486631 87.9847389,43.8716578 87.5426918,43.8716578 Z" id="形状" fill="#DDDDDD" fill-rule="nonzero"></path>
                        </g>
                    </g>
                </g>
            </g>
        </g>
    </g>
</svg>