<?xml version="1.0" encoding="UTF-8"?>
<svg width="24px" height="24px" viewBox="0 0 24 24" version="1.1" xmlns="http://www.w3.org/2000/svg" xmlns:xlink="http://www.w3.org/1999/xlink">
    <!-- Generator: Sketch 60.1 (88133) - https://sketch.com -->
    <title>my order-dispatch part-sel</title>
    <desc>Created with Sketch.</desc>
    <g id="页面-1" stroke="none" stroke-width="1" fill="none" fill-rule="evenodd">
        <g id="订单管理-物流弹出框-状态1" transform="translate(-1027.000000, -528.000000)" fill-rule="nonzero">
            <g id="编组-2" transform="translate(754.000000, 213.000000)">
                <g id="my-order-dispatch-part-sel" transform="translate(273.000000, 315.000000)">
                    <circle id="椭圆形" fill="#4874EF" cx="12" cy="12" r="12"></circle>
                    <g id="编组" transform="translate(6.000000, 5.000000)" fill="#FFFFFF" stroke="#FFFFFF" stroke-width="0.2">
                        <path d="M7.53161719,7.68701172 L4.74125586,7.68701172 C2.12908008,7.68701172 0.00380078125,9.77966992 0.00380078125,12.3526211 L0.00380078125,12.627125 C0.00380078125,14 2.09454492,14 4.74125586,14 L7.53163086,14 C10.0731504,14 12.2686895,14 12.2690859,12.627125 L12.2690859,12.3526211 C12.2690859,9.78009375 10.1433965,7.68701172 7.53161719,7.68701172 Z M11.4506191,12.6531563 L11.4506191,12.6531563 C11.4506191,12.7189727 11.350582,12.9422617 10.0637441,13.0517188 C9.24538672,13.1213633 8.26944727,13.1213633 7.55688281,13.1213633 L4.71562109,13.1213633 C3.85637109,13.1213633 2.88245508,13.1213633 2.10047852,13.0517734 C0.946449219,12.9490703 0.821871094,12.7387832 0.821871094,12.6531563 L0.821871094,12.3736074 C0.821871094,10.2666211 2.56860352,8.55245508 4.71563477,8.55245508 L7.55686914,8.55245508 C9.70387305,8.55245508 11.4506191,10.2666211 11.4506191,12.3736074 L11.4506191,12.6531563 Z" id="形状"></path>
                        <path d="M5.99685352,0 C3.92281641,0 2.23662305,1.66211719 2.23662305,3.70548828 C2.23662305,5.74885937 3.92281641,7.41135937 5.99685352,7.41135937 C8.07013867,7.41135937 9.75708398,5.74888672 9.75708398,3.70548828 C9.75708398,1.66211719 8.0709043,0 5.99685352,0 Z M5.99686719,6.53310547 C4.40089453,6.53310547 3.10246289,5.25961133 3.10246289,3.69420898 C3.10246289,2.12906641 4.40088086,0.855736328 5.99685352,0.855736328 C7.5928125,0.855736328 8.89127148,2.12908008 8.89127148,3.69420898 C8.89127148,5.25959766 7.59283984,6.53310547 5.99686719,6.53310547 Z" id="形状"></path>
                    </g>
                </g>
            </g>
        </g>
    </g>
</svg>