<?xml version="1.0" encoding="UTF-8"?>
<svg width="20px" height="20px" viewBox="0 0 20 20" version="1.1" xmlns="http://www.w3.org/2000/svg" xmlns:xlink="http://www.w3.org/1999/xlink">
    <!-- Generator: Sketch 60.1 (88133) - https://sketch.com -->
    <title>home_messages</title>
    <desc>Created with Sketch.</desc>
    <g id="我的" stroke="none" stroke-width="1" fill="none" fill-rule="evenodd">
        <g id="我的home" transform="translate(-335.000000, -31.000000)" fill="#FFFFFF" fill-rule="nonzero">
            <g id="home_messages" transform="translate(335.000000, 31.000000)">
                <path d="M15,7.5 C14.31,7.5 13.75,8.06 13.75,8.75 C13.75,9.44 14.31,10 15,10 C15.69,10 16.25,9.44 16.25,8.75 C16.25,8.06 15.69,7.5 15,7.5 L15,7.5 Z M10,16.25 C9.27,16.25 8.565,16.165 7.8875,16.020625 L4.945,17.789375 L4.984375,14.89 C2.72875,13.53375 1.25,11.29125 1.25,8.75 C1.25,4.608125 5.1675,1.25 10,1.25 C14.8325,1.25 18.75,4.608125 18.75,8.75 C18.75,12.8925 14.8325,16.25 10,16.25 L10,16.25 Z M10,0 C4.4775,0 0,3.918125 0,8.75 C0,11.511875 1.465625,13.97125 3.75,15.574375 L3.75,20 L8.130625,17.341875 C8.736875,17.441875 9.360625,17.5 10,17.5 C15.5225,17.5 20,13.5825 20,8.75 C20,3.918125 15.5225,0 10,0 L10,0 Z M5,7.5 C4.31,7.5 3.75,8.06 3.75,8.75 C3.75,9.44 4.31,10 5,10 C5.69,10 6.25,9.44 6.25,8.75 C6.25,8.06 5.69,7.5 5,7.5 L5,7.5 Z M10,7.5 C9.31,7.5 8.75,8.06 8.75,8.75 C8.75,9.44 9.31,10 10,10 C10.69,10 11.25,9.44 11.25,8.75 C11.25,8.06 10.69,7.5 10,7.5 L10,7.5 Z" id="形状"></path>
            </g>
        </g>
    </g>
</svg>