<?xml version="1.0" encoding="UTF-8"?>
<svg width="44px" height="44px" viewBox="0 0 44 44" version="1.1" xmlns="http://www.w3.org/2000/svg" xmlns:xlink="http://www.w3.org/1999/xlink">
    <!-- Generator: Sketch 60.1 (88133) - https://sketch.com -->
    <title>mine_default head</title>
    <desc>Created with Sketch.</desc>
    <g id="我的" stroke="none" stroke-width="1" fill="none" fill-rule="evenodd">
        <g id="我的home" transform="translate(-14.000000, -71.000000)" fill-rule="nonzero">
            <g id="mine_default-head" transform="translate(14.000000, 71.000000)">
                <circle id="椭圆形" fill="#FFFFFF" cx="22" cy="22" r="22"></circle>
                <path d="M19.4837895,22.9624138 C14.8081573,22.9624138 11.0049389,26.7302299 11.0049389,31.3654023 L11.0049389,31.8648276 C11.0049389,34.2873563 14.7474677,34.2873563 19.4837895,34.2873563 L24.5147091,34.2873563 C29.0651688,34.2873563 32.9935596,34.2873563 32.9935596,31.8648276 L32.9935596,31.3654023 C32.9935596,26.7327586 29.1903412,22.9624138 24.5147091,22.9624138 L19.4825251,22.9624138 L19.4837895,22.9624138 Z M21.7470079,22.3201149 C25.4503412,22.3201149 28.4620654,19.3336782 28.4620654,15.6606897 C28.4620654,11.9877011 25.4503412,9 21.7482723,9 C18.0449389,9 15.0319504,11.9877011 15.0319504,15.6606897 C15.0319504,19.3324138 18.0449389,22.3201149 21.7482723,22.3201149 L21.7470079,22.3201149 Z" id="形状" fill="#EBEBEB"></path>
            </g>
        </g>
    </g>
</svg>