<?xml version="1.0" encoding="UTF-8"?>
<svg width="20px" height="20px" viewBox="0 0 20 20" version="1.1" xmlns="http://www.w3.org/2000/svg" xmlns:xlink="http://www.w3.org/1999/xlink">
    <!-- Generator: Sketch 60.1 (88133) - https://sketch.com -->
    <title>mine_set up</title>
    <desc>Created with Sketch.</desc>
    <g id="我的" stroke="none" stroke-width="1" fill="none" fill-rule="evenodd">
        <g id="我的home" transform="translate(-295.000000, -31.000000)" fill-rule="nonzero">
            <g id="mine_set-up" transform="translate(295.000000, 31.000000)">
                <rect id="矩形" fill="#D8D8D8" opacity="0" x="0" y="0" width="20" height="20"></rect>
                <path d="M10.0454545,12.5454545 C8.6631016,12.5454545 7.54545455,11.4278075 7.54545455,10.0454545 C7.54545455,8.6631016 8.6631016,7.54545455 10.0454545,7.54545455 C11.4278075,7.54545455 12.5454545,8.6631016 12.5454545,10.0454545 C12.5454545,11.4278075 11.4278075,12.5454545 10.0454545,12.5454545 Z" id="路径" stroke="#FFFFFF" stroke-width="1.2"></path>
                <path d="M10.0163315,19.0019114 C9.26508086,19.0019114 8.51383019,18.907537 7.76257952,18.7502464 C7.59926415,18.7187883 7.50127493,18.6244139 7.43594879,18.4671233 L6.84801348,17.1773402 C6.55404582,16.5481777 5.8681213,16.1706803 5.14953369,16.2335965 L3.67969542,16.3908871 C3.51638006,16.3908871 3.38572777,16.359429 3.28773855,16.2335965 C2.76512938,15.6988084 2.30784636,15.1325622 1.94855256,14.5033997 C1.55659569,13.8742372 1.26262804,13.2136166 1.0666496,12.4900798 C1.03398653,12.3642473 1.0666496,12.2069566 1.13197575,12.0811241 L1.98121564,10.9486317 C2.40583558,10.3823855 2.40583558,9.62739048 1.98121564,9.06114425 L1.09931267,7.92865179 C1.00132345,7.80281929 0.968660381,7.64552868 1.03398653,7.51969618 C1.45860647,6.1040806 2.24252022,4.81429752 3.28773855,3.77617943 C3.38572777,3.68180506 3.54904313,3.61888882 3.67969542,3.61888882 L5.14953369,3.77617943 C5.8681213,3.83909568 6.55404582,3.4615982 6.84801348,2.83243572 L7.43594879,1.54265264 C7.50127493,1.41682014 7.63192722,1.32244577 7.76257952,1.25952952 C9.23241779,0.913490159 10.7675822,0.913490159 12.2374205,1.25952952 C12.4007358,1.29098765 12.4987251,1.38536202 12.5640512,1.54265264 L13.1519865,2.83243572 C13.4459542,3.4615982 14.1318787,3.83909568 14.8504663,3.77617943 L16.3203046,3.61888882 C16.4836199,3.58743069 16.6142722,3.65034694 16.7122615,3.77617943 C17.2348706,4.31096754 17.6921536,4.87721377 18.0514474,5.50637625 C18.4107412,6.13553873 18.737372,6.79615933 18.9333504,7.51969618 C18.9660135,7.64552868 18.9333504,7.80281929 18.8680243,7.92865179 L18.0187844,9.06114425 C17.5941644,9.62739048 17.5941644,10.3823855 18.0187844,10.9486317 L18.9006873,12.0811241 C18.9986765,12.2069566 19.0313396,12.3642473 18.9660135,12.4900798 C18.5413935,13.9056953 17.7574798,15.1954784 16.7122615,16.2335965 C16.6142722,16.3279709 16.4509569,16.3908871 16.3203046,16.3908871 L14.8504663,16.2335965 C14.1318787,16.1706803 13.4459542,16.5481777 13.1519865,17.1773402 L12.5640512,18.4671233 C12.4987251,18.5929558 12.3680728,18.6873302 12.2374205,18.7502464 C11.5188329,18.907537 10.7675822,19.0019114 10.0163315,19.0019114 Z" id="路径" stroke="#FFFFFF" stroke-width="1.2"></path>
            </g>
        </g>
    </g>
</svg>