<?xml version="1.0" encoding="UTF-8"?>
<svg width="26px" height="26px" viewBox="0 0 26 26" version="1.1" xmlns="http://www.w3.org/2000/svg" xmlns:xlink="http://www.w3.org/1999/xlink">
    <!-- Generator: Sketch 60.1 (88133) - https://sketch.com -->
    <title>mine_address</title>
    <desc>Created with Sketch.</desc>
    <g id="我的" stroke="none" stroke-width="1" fill="none" fill-rule="evenodd">
        <g id="我的home" transform="translate(-39.000000, -402.000000)" fill-rule="nonzero">
            <g id="mine_address" transform="translate(40.000000, 403.000000)">
                <path d="M24.8472272,22.1350862 C24.8156615,21.8482826 24.6984493,21.5953135 24.6051334,21.432923 C23.6990264,19.8425564 22.7620443,18.1980844 21.836776,16.580739 C21.7997778,16.5159404 21.7629264,16.451058 21.7262222,16.3860924 C21.5654346,16.1020015 21.3991231,15.8082436 21.2075097,15.5207988 L19.9476701,16.3606672 C20.1086549,16.6021445 20.2543255,16.8595279 20.408578,17.1319543 C20.4463722,17.1988113 20.4843004,17.2655925 20.5223623,17.3322976 C21.447384,18.949273 22.3842921,20.5935971 23.2903498,22.1838157 L23.2920267,22.186775 C23.3266256,22.2468484 23.3400657,22.2905471 23.3423838,22.3025322 L23.3426304,22.3046776 C23.3440854,22.3172546 23.3423345,22.3193754 23.3406576,22.3214469 C23.3310892,22.3331607 23.304653,22.3480804 23.2614968,22.352322 C23.1936553,22.3572788 23.1160482,22.3572788 23.0264806,22.3572788 C20.9602125,22.3572788 18.8935498,22.3568596 16.8267144,22.356465 C12.7613291,22.3557006 8.55752348,22.3547635 4.42461727,22.3572788 C3.89835859,22.3572788 3.36314808,22.3614218 2.84559462,22.3654169 C2.5020715,22.3680556 2.1469332,22.3708422 1.79810803,22.3723219 C1.69978595,22.3722725 1.65219085,22.3637893 1.63539694,22.3598929 C1.58580433,22.3474639 1.54965179,22.3257872 1.53860381,22.301817 C1.52595289,22.2743943 1.53455946,22.2246291 1.5603052,22.1735569 C1.64688881,22.0025105 1.74871271,21.8320806 1.85647984,21.6516631 C1.91620798,21.5516641 1.97798295,21.4482866 2.03854956,21.3423197 L4.76954605,16.5686553 L3.455305,15.8167515 L0.724111229,20.5908104 C0.670622238,20.684373 0.615259036,20.7770478 0.556665286,20.8751973 C0.440266927,21.0700166 0.319922861,21.2714203 0.208653922,21.4912208 C-0.0272500395,21.9597735 -0.0436987058,22.4862788 0.163549558,22.9358181 C0.369120896,23.3816337 0.774714923,23.7078944 1.27638692,23.8308771 L1.27892696,23.8314936 C1.43221768,23.8685093 1.60232698,23.8864869 1.79897116,23.8864869 L1.80217704,23.8864869 C2.15440538,23.884958 2.51173848,23.8822206 2.85728378,23.879582 C3.3719766,23.8755869 3.90422783,23.8714439 4.42508582,23.8714439 C8.55786873,23.8689285 12.7613291,23.869841 16.8263938,23.8706301 C18.8933278,23.8710494 20.9601138,23.8714686 23.026456,23.8714686 C23.1387607,23.8714686 23.2548877,23.8714686 23.3816436,23.8617276 L23.3884746,23.8611604 C23.8383838,23.8225172 24.2375414,23.61628 24.5123353,23.280451 C24.7754153,22.9590238 24.894329,22.5523447 24.8472272,22.1350862 L24.8472272,22.1350862 Z" id="形状" stroke="#3A74F1" stroke-width="0.3" fill="#3A74F1"></path>
                <g id="编组" transform="translate(3.571429, 0.000000)">
                    <path d="M7.09727167,18.5971686 C8.44862301,19.8841699 8.7188933,19.8841699 8.98916356,19.8841699 C9.25943382,19.8841699 9.46213653,19.8841699 10.8810554,18.5971686 C11.421596,18.1467181 12.4351095,17.1171171 13.5161906,15.8301158 C15.2729473,13.7709138 17.3675419,10.7464608 17.3675419,7.97940797 C17.2999744,3.60360361 13.5161906,0 8.92159598,0 C4.32700138,0 0.610785167,3.60360361 0.610785167,8.04375805 C0.610785167,10.8108108 2.70537977,13.8352638 4.46213653,15.8944659 C5.54321761,17.1814672 6.55673114,18.1467181 7.09727167,18.5971686 Z M8.92159598,1.54440155 C12.6378122,1.54440155 15.6783527,4.44015446 15.6783527,8.04375805 C15.6783527,11.9047619 10.47565,16.9240669 8.92159598,18.2110682 C7.36754193,16.988417 2.16483922,11.9047619 2.16483922,8.04375805 C2.16483922,4.44015444 5.20537977,1.54440155 8.92159598,1.54440155 Z" id="形状" stroke="#3A74F1" stroke-width="0.3" fill="#3A74F1"></path>
                    <path d="M11.6107852,8.22393822 C11.6107852,6.91198488 10.4883362,5.84298584 9.11078517,5.84298584 C7.73323414,5.84298584 6.61078517,6.91198486 6.61078517,8.22393822 C6.61078517,9.53589158 7.73323414,10.6048906 9.11078517,10.6048906 C10.4883362,10.6048906 11.6107852,9.53589158 11.6107852,8.22393822 Z" id="路径" stroke="#E50B35" stroke-width="1.8" opacity="0.497488839"></path>
                </g>
            </g>
        </g>
    </g>
</svg>