<?xml version="1.0" encoding="UTF-8"?>
<svg width="25px" height="24px" viewBox="0 0 25 24" version="1.1" xmlns="http://www.w3.org/2000/svg" xmlns:xlink="http://www.w3.org/1999/xlink">
    <!-- Generator: Sketch 60.1 (88133) - https://sketch.com -->
    <title>mine_to be evaluated</title>
    <desc>Created with Sketch.</desc>
    <g id="我的" stroke="none" stroke-width="1" fill="none" fill-rule="evenodd">
        <g id="我的home" transform="translate(-310.000000, -259.000000)" fill-rule="nonzero">
            <g id="mine_to-be-evaluated" transform="translate(310.000000, 259.000000)">
                <path d="M5.40873828,15.4563375 L5.40873828,17.3166014 L2.41942461,17.3166014 C1.75751676,17.3166014 1.15509409,17.0289095 0.713822198,16.5605988 C0.25380968,16.0706562 -0.00121873061,15.4232169 0.00105090739,14.7511677 L0.00105090739,2.5642761 C0.00105090739,1.86126941 0.271468755,1.22315561 0.713822198,0.754844989 C1.15781013,0.285750964 1.77355918,0.0175077232 2.41942461,0.0118209976 L19.213714,0.0118209976 C19.8756219,0.0118209976 20.4780446,0.299512982 20.9193165,0.767823577 C21.3616699,1.2361342 21.6320571,1.87424797 21.6320571,2.57725469 L21.6320571,4.4672998 C21.6320571,4.98103547 21.2383733,5.3963502 20.7560026,5.3963502 C20.2714688,5.3963502 19.8799481,4.97887238 19.8799481,4.46621827 L19.8799481,3.2002268 C19.8799481,2.83682641 19.733939,2.4972201 19.513303,2.25062697 C19.2807701,2.00403383 18.9725286,1.86126941 18.6188622,1.86126941 L3.01860264,1.86126941 C2.68028259,1.8672063 2.35816813,2.00725606 2.12308025,2.25062697 C1.89054726,2.49830163 1.75643521,2.82384783 1.75643521,3.2002268 L1.75643521,14.1152171 C1.75643521,14.4786174 1.9024443,14.8182237 2.12416181,15.0637353 C2.35345016,15.3135731 3.21760762,15.4563375 3.21760762,15.4563375 L5.40873828,15.4563375 Z" id="路径" fill="#3A74F1"></path>
                <path d="M7.571923,5.41956108 L22.7363184,5.41956108 C23.259788,5.41956108 23.7475665,5.61424365 24.122864,5.95276843 C24.501406,6.29129319 24.7793641,6.77150087 24.8648064,7.31876453 L24.8767034,7.35661874 L24.8767034,19.2276981 L24.8648064,19.2655523 C24.767467,19.8117345 24.501406,20.2800451 24.122864,20.6304669 C23.7443219,20.9689916 23.259788,21.164752 22.7363184,21.164752 L18.5074627,21.164752 L16.4644171,23.3505621 C16.1911976,23.636646 15.8141268,23.8004203 15.4185594,23.8048126 C15.2238806,23.8048126 15.0292018,23.7680399 14.8475016,23.6890868 C14.6674866,23.6098118 14.5055526,23.4946178 14.3716202,23.3505621 L12.3307376,21.164752 L7.57516764,21.164752 C6.97815272,21.164752 6.43088904,20.9051803 6.04153148,20.488784 C5.63118186,20.0417261 5.40515146,19.455979 5.40878133,18.8491561 L5.40878133,7.74705785 C5.40878133,7.10894407 5.65109237,6.52490774 6.04153148,6.10742989 C6.42920753,5.6690042 6.98668072,5.41843675 7.571923,5.41956108 Z M22.8606965,18.9951651 C23.0445598,18.7994048 23.1646117,18.5149575 23.1646117,18.2142869 L23.1646117,8.38517163 C23.1646117,8.08450108 23.0434783,7.80005374 22.8606965,7.6042934 C22.6735486,7.39850589 22.4088056,7.28045014 22.1306511,7.27874723 L8.16677482,7.27874723 C7.88557214,7.27874723 7.61842958,7.40853309 7.43564786,7.60321187 C7.25178456,7.80005376 7.13173265,8.08450108 7.13173265,8.38409007 L7.13173265,18.21645 C7.13173265,18.5171206 7.25286611,18.8015679 7.43564786,18.9973282 C7.61951116,19.192007 7.88557214,19.3217929 8.16569326,19.3217929 L12.7763357,19.3217929 L15.1611508,21.8720849 C15.1906801,21.9063382 15.2276832,21.9333505 15.2693056,21.9510379 C15.3060783,21.9640165 15.3558295,21.9769951 15.4034177,21.9769951 C15.4510059,21.9769951 15.5007571,21.9640165 15.5364482,21.9510379 C15.5789639,21.9344048 15.6165533,21.9072362 15.6456846,21.8720849 L18.0304997,19.3228744 L22.140385,19.3228744 C22.413723,19.3136435 22.6722975,19.1966045 22.859615,18.9973282 L22.8606965,18.9951651 Z" id="形状" fill="#3A74F1"></path>
                <rect id="矩形" fill="#E50B35" opacity="0.494024368" x="10.5769231" y="12.5" width="9.61538462" height="1.92307692" rx="0.961538462"></rect>
            </g>
        </g>
    </g>
</svg>