<?xml version="1.0" encoding="UTF-8"?>
<svg width="25px" height="24px" viewBox="0 0 25 24" version="1.1" xmlns="http://www.w3.org/2000/svg" xmlns:xlink="http://www.w3.org/1999/xlink">
    <!-- Generator: Sketch 60.1 (88133) - https://sketch.com -->
    <title>mine_pending payment</title>
    <desc>Created with Sketch.</desc>
    <g id="我的" stroke="none" stroke-width="1" fill="none" fill-rule="evenodd">
        <g id="我的home" transform="translate(-40.000000, -259.000000)" fill-rule="nonzero">
            <g id="mine_pending-payment" transform="translate(40.000000, 259.000000)">
                <path d="M3.56420898,6.43144531 C3.06420898,6.58144531 2.57617187,6.45644531 2.42617187,5.95644531 C2.27617187,5.45644531 2.56367187,4.94394531 3.06367187,4.79394531 L3.07617187,4.79394531 C3.95117187,4.54394531 9.13867188,2.99394531 18.6261719,0.143945313 C20.4511719,-0.381054687 22.3511719,0.681445313 22.8761719,2.50644531 L23.8511719,5.90644531 C23.9886719,6.40644531 23.6886719,6.91894531 23.1886719,7.05644531 C22.7011719,7.18144531 22.2011719,6.90644531 22.0511719,6.43144531 L21.0761719,3.01894531 C20.8386719,2.19394531 19.9761719,1.70644531 19.1511719,1.94394531 C9.66367188,4.79394531 4.45170898,6.18144531 3.56420898,6.43144531 Z" id="路径" fill="#E50B35" opacity="0.5"></path>
                <path d="M3.45117187,6.66894531 C2.58867187,6.66894531 1.88867187,7.36894531 1.88867187,8.23144531 L1.88867187,20.2314453 C1.88867187,21.0939453 2.58867187,21.7939453 3.45117187,21.7939453 L21.4511719,21.7939453 C22.3136719,21.7939453 23.0136719,21.0939453 23.0136719,20.2314453 L23.0136719,8.23144531 C23.0136719,7.36894531 22.3136719,6.66894531 21.4511719,6.66894531 L3.45117187,6.66894531 Z M3.45117187,5.11401367 L21.4511719,5.11401367 C23.3511719,5.11401367 24.8886719,6.33144531 24.8886719,8.23144531 L24.8886719,20.2314453 C24.8886719,22.1314453 23.3511719,23.6689453 21.4511719,23.6689453 L3.45117187,23.6689453 C1.55117187,23.6689453 0.013671875,22.1314453 0.013671875,20.2314453 L0.013671875,8.23144531 C0.013671875,6.33144531 1.55117187,5.11401367 3.45117187,5.11401367 Z" id="形状" fill="#3A74F1"></path>
                <path d="M19.4511719,10.4189453 C17.8261719,10.4189453 16.5136719,11.7314453 16.5136719,13.3564453 L16.5136719,15.3564453 C16.5136719,16.9814453 17.8261719,18.2939453 19.4511719,18.2939453 L24.8886719,18.2939453 L24.8886719,10.4189453 L19.4511719,10.4189453 Z M23.0136719,16.4189453 L19.4511719,16.4189453 C18.8636719,16.4189453 18.3886719,15.9439453 18.3886719,15.3564453 L18.3886719,13.3564453 C18.3886719,12.7689453 18.8636719,12.2939453 19.4511719,12.2939453 L23.0136719,12.2939453 L23.0136719,16.4189453 L23.0136719,16.4189453 Z" id="形状" fill="#3A74F1"></path>
            </g>
        </g>
    </g>
</svg>