<?xml version="1.0" encoding="UTF-8"?>
<svg width="24px" height="25px" viewBox="0 0 24 25" version="1.1" xmlns="http://www.w3.org/2000/svg" xmlns:xlink="http://www.w3.org/1999/xlink">
    <!-- Generator: Sketch 60.1 (88133) - https://sketch.com -->
    <title>mine_drug users</title>
    <desc>Created with Sketch.</desc>
    <g id="我的" stroke="none" stroke-width="1" fill="none" fill-rule="evenodd">
        <g id="我的home" transform="translate(-131.000000, -402.000000)" fill-rule="nonzero">
            <g id="mine_drug-users" transform="translate(131.000000, 403.000000)">
                <rect id="矩形" fill="#D8D8D8" opacity="0" x="0" y="0" width="25" height="24"></rect>
                <path d="M18.1607143,13.0757143 C15.2188071,13.0757143 12.7527466,15.3600472 12.7527466,18.0857143 C12.7527466,20.8113814 15.2188071,23.0957143 18.1607143,23.0957143 C21.0300762,23.0957143 23.25,20.8826967 23.25,18.0857143 C23.25,16.6501069 22.7931039,15.4266016 21.8839561,14.5538197 C20.8991964,13.6084504 19.5594686,13.0757143 18.1607143,13.0757143 Z" id="路径" stroke="#3A74F1" stroke-width="1.5"></path>
                <path d="M13.0172755,0.098391243 C9.62429803,-0.462899192 6.30920671,1.42467415 5.19739376,4.55093839 C4.08558082,7.67720263 5.50673187,11.1151274 8.54970963,12.6605688 C1.61489142,14.9529711 0.999971052,22.2110007 0.999971052,22.2931389 C0.9980092,22.678052 1.30130589,23.0013628 1.70050646,23.04 L1.77833831,23.04 C2.17954445,23.0417787 2.51654077,22.750799 2.55665686,22.36781 C2.55665686,22.0317901 3.24157718,14.1539905 11.9509616,13.4446152 C15.7378554,13.380281 19.1263462,10.4397679 19.172044,6.80635557 C19.2157444,3.50339658 16.4102531,0.659681678 13.0172755,0.098391243 Z" id="路径" stroke="#3A74F1" stroke-width="0.3" fill="#3A74F1"></path>
                <path d="M11.8964793,11.880384 C8.88750511,11.880384 6.44824955,9.57465051 6.44824955,6.73038405 C6.44824955,3.88611758 8.88750511,1.58038405 11.8964793,1.58038405 C14.9054536,1.58038405 17.3447091,3.88611758 17.3447091,6.73038405 C17.3447091,9.57465051 14.9054536,11.880384 11.8964793,11.880384 Z" id="路径" fill="#FFFFFF"></path>
                <rect id="矩形" fill="#E50B35" opacity="0.502255394" x="15" y="17.28" width="6" height="1.728" rx="0.864"></rect>
            </g>
        </g>
    </g>
</svg>