<?xml version="1.0" encoding="UTF-8"?>
<svg width="27px" height="25px" viewBox="0 0 27 25" version="1.1" xmlns="http://www.w3.org/2000/svg" xmlns:xlink="http://www.w3.org/1999/xlink">
    <!-- Generator: Sketch 60.1 (88133) - https://sketch.com -->
    <title>mine_to be shipped</title>
    <desc>Created with Sketch.</desc>
    <g id="我的" stroke="none" stroke-width="1" fill="none" fill-rule="evenodd">
        <g id="我的home" transform="translate(-129.000000, -258.000000)" fill-rule="nonzero">
            <g id="mine_to-be-shipped" transform="translate(142.500000, 271.000000) rotate(360.000000) translate(-142.500000, -271.000000) translate(130.000000, 259.000000)">
                <path d="M22.2624184,0 L8.12996169,0 C6.6573785,0 5.45886947,1.2449617 5.45886947,2.77475555 L5.45886947,6.83785785 L0.345532408,9.90782019 L0.158293639,10.0379752 L0.179097952,10.0757015 C0.0633174555,10.2247196 0,10.4067481 0,10.5934923 L0,19.1195937 C0,19.6175783 0.359100446,20.023134 0.799609063,20.023134 C1.2410222,20.023134 1.60012264,19.6166351 1.60012264,19.1167642 L1.60012264,11.0726139 L6.61667442,8.05452492 C6.96401591,7.92625616 7.19738596,7.58483482 7.19738596,7.20663059 L7.19738596,2.90868323 C7.19738596,2.302236 7.67317146,1.80896709 8.25840566,1.80896709 L22.1339744,1.80896709 C22.7183041,1.80896709 23.1949941,2.302236 23.1949941,2.90868323 L23.1949941,18.7800586 C23.1949941,19.2789865 23.5839442,19.6845421 24.0642524,19.6845421 C24.543656,19.6845421 24.9335106,19.2780433 24.9335106,18.7781723 L24.9335106,2.77475555 C24.9335106,1.2449617 23.7350016,0 22.2624184,0 Z M19.3027795,16.0741532 C17.6501938,16.0741532 16.2436417,17.2983656 15.9442406,18.9913248 L9.87119182,18.9875522 C9.56998164,17.2964793 8.16342945,16.0741532 6.51265287,16.0741532 C4.62036541,16.0741532 3.08084662,17.6727972 3.08084662,19.6373845 C3.08084662,21.6019718 4.62036541,23.1996727 6.51265287,23.1996727 C8.04945803,23.1996727 9.40264261,22.1282511 9.81511062,20.5899689 L16.0021308,20.5927983 C16.4155034,22.1291942 17.7677834,23.1996727 19.3027795,23.1996727 C21.195067,23.1996727 22.7336812,21.6019718 22.7336812,19.6373845 C22.7336812,17.6727972 21.195067,16.0741532 19.3027795,16.0741532 Z M19.3027795,21.3180828 C18.4090988,21.3180828 17.6818526,20.5635605 17.6818526,19.6373845 C17.6818526,18.7102653 18.4090988,17.9566863 19.3027795,17.9566863 C20.1964602,17.9566863 20.9237064,18.7102653 20.9237064,19.6373845 C20.9237064,20.5635605 20.1964602,21.3180828 19.3027795,21.3180828 L19.3027795,21.3180828 Z M6.51265287,21.3180828 C5.61897217,21.3180828 4.89172594,20.5635605 4.89172594,19.6373845 C4.89172594,18.7102653 5.61897217,17.9566863 6.51265287,17.9566863 C7.40633358,17.9566863 8.13267529,18.7102653 8.13267529,19.6373845 C8.13267529,20.5635605 7.40633358,21.3180828 6.51265287,21.3180828 Z" id="形状" stroke="#3A74F1" stroke-width="0.2" fill="#3A74F1"></path>
                <path d="M3.9329187,13.4955734 C3.9329187,13.9775245 4.31010986,14.3698761 4.77504091,14.3698761 L8.03046285,14.3689329 C8.48906208,14.3689329 8.84997166,14.2265169 9.10595503,13.9435711 C9.51118684,13.4946303 9.47862351,12.8580022 9.477719,12.8542296 L9.477719,10.1945387 C9.477719,9.71258756 9.10052784,9.32023599 8.63559682,9.32023599 C8.17066572,9.32023599 7.79347464,9.71258756 7.79347464,10.1945387 L7.79437916,12.6184413 L4.77323185,12.6184413 C4.30920532,12.6212708 3.9329187,13.0145655 3.9329187,13.4955734 Z" id="路径" fill="#E50B35" opacity="0.501023065"></path>
                <rect id="矩形" fill="#3A74F1" x="0.892857143" y="18.5299145" width="2.67857143" height="1.33333333"></rect>
                <rect id="矩形" fill="#3A74F1" x="22.3214286" y="17.6068376" width="1" height="1.77777778"></rect>
            </g>
        </g>
    </g>
</svg>