<?xml version="1.0" encoding="UTF-8"?>
<svg width="25px" height="24px" viewBox="0 0 25 24" version="1.1" xmlns="http://www.w3.org/2000/svg" xmlns:xlink="http://www.w3.org/1999/xlink">
    <!-- Generator: Sketch 60.1 (88133) - https://sketch.com -->
    <title>mine_goods to be received</title>
    <desc>Created with Sketch.</desc>
    <g id="我的" stroke="none" stroke-width="1" fill="none" fill-rule="evenodd">
        <g id="我的home" transform="translate(-219.000000, -259.000000)" fill-rule="nonzero">
            <g id="mine_goods-to-be-received" transform="translate(219.000000, 259.000000)">
                <path d="M1.88867188,9.33430556 L1.88867188,20.3476389 C1.88867188,20.9325278 2.36367188,21.4054167 2.95117188,21.4054167 L21.9511719,21.4054167 C22.5386719,21.4054167 23.0136719,20.9325278 23.0136719,20.3476389 L23.0136719,9.33430556 L1.88867188,9.33430556 Z M0.951171875,7.46763889 L23.9511719,7.46763889 C24.4636719,7.46763889 24.8886719,7.89075 24.8886719,8.40097222 L24.8886719,20.3476389 C24.8886719,21.9654167 23.5761719,23.2720833 21.9511719,23.2720833 L2.95117188,23.2720833 C1.32617188,23.2720833 0.013671875,21.9654167 0.013671875,20.3476389 L0.013671875,8.40097222 C0.013671875,7.89075 0.438671875,7.46763889 0.951171875,7.46763889 Z" id="形状" fill="#3A74F1"></path>
                <path d="M20.5886719,2.52719444 C20.4261719,2.12897222 20.0386719,1.86763889 19.6011719,1.86763889 L5.30117187,1.86763889 C4.86367187,1.86763889 4.47617187,2.12897222 4.31367187,2.52719444 L2.33867187,7.46763889 L22.5636719,7.46763889 L20.5886719,2.52719444 Z M5.30117188,0.000972222222 L19.5886719,0.000972222222 C20.7886719,0.000972222222 21.8761719,0.72275 22.3136719,1.84275 L24.8136719,8.05252778 C25.0011719,8.52541667 24.7761719,9.07297222 24.2886719,9.25963889 C24.1761719,9.30941667 24.0636719,9.32186111 23.9386719,9.32186111 L0.951171875,9.32186111 C0.438671875,9.32186111 0.013671875,8.89875 0.013671875,8.38852778 C0.013671875,8.26408333 0.038671875,8.15208333 0.076171875,8.04008333 L2.57617188,1.83030556 C3.02617188,0.72275 4.10117188,0.000972222222 5.30117188,0.000972222222 Z" id="形状" fill="#3A74F1"></path>
                <path d="M9.9329187,16.4955734 C9.9329187,16.9775245 10.3101099,17.3698761 10.7750409,17.3698761 L14.0304629,17.3689329 C14.4890621,17.3689329 14.8499717,17.2265169 15.105955,16.9435711 C15.5111868,16.4946303 15.4786235,15.8580022 15.477719,15.8542296 L15.477719,13.1945387 C15.477719,12.7125876 15.1005278,12.320236 14.6355968,12.320236 C14.1706657,12.320236 13.7934746,12.7125876 13.7934746,13.1945387 L13.7943792,15.6184413 L10.7732319,15.6184413 C10.3092053,15.6212708 9.9329187,16.0145655 9.9329187,16.4955734 Z" id="路径" fill="#E50B35" opacity="0.501023065" transform="translate(12.705799, 14.845056) rotate(90.000000) translate(-12.705799, -14.845056) "></path>
            </g>
        </g>
    </g>
</svg>