<?xml version="1.0" encoding="UTF-8"?>
<svg width="132px" height="101px" viewBox="0 0 132 101" version="1.1" xmlns="http://www.w3.org/2000/svg" xmlns:xlink="http://www.w3.org/1999/xlink">
    <!-- Generator: Sketch 60.1 (88133) - https://sketch.com -->
    <title>Search_Bitmap2@2x</title>
    <desc>Created with Sketch.</desc>
    <g id="我的" stroke="none" stroke-width="1" fill="none" fill-rule="evenodd" opacity="0.804385231">
        <g id="我的-浏览记录空-状态1" transform="translate(-122.000000, -103.000000)">
            <g id="Search_Bitmap2" transform="translate(122.000000, 103.000000)">
                <path d="M132,82.4591639 C132,78.1768357 128.225226,74.585092 123.334129,73.8945076 C123.194323,70.6487607 119.980903,68.0245399 115.997484,68.0245399 C111.943806,68.0245399 108.659419,70.7868776 108.659419,74.1023876 C108.659419,76.1741409 109.986516,78.0380142 111.943806,79.1443587 C111.943806,79.1443587 111.943806,79.2127124 111.874968,79.2127123 C100.064516,76.7949621 83.3650967,75.276381 64.7758065,75.2763811 C51.7794839,75.2763811 39.6901291,76.036024 29.5573549,77.2783713 C29.1386452,72.7895724 24.6662581,69.2661825 19.1463871,69.2661825 C13.8351613,69.2661825 9.50258072,72.5823971 8.80425807,76.7949621 C6.21890322,77.6927219 4.33258067,79.9040015 4.33258067,82.3901054 C4.33258067,82.6670439 4.33258067,82.9418684 4.40141938,83.2885699 C1.53716133,84.6697388 0,86.258083 0,87.8471318 C0,94.8220346 28.9988387,100.417178 64.7069677,100.417178 C100.134774,100.417178 128.925677,94.891093 129.413226,88.0536025 C131.090193,86.6033752 132,84.6006804 132,82.4591639" id="路径" fill="#F0EFEF"></path>
                <path d="M119.852761,86.2453988 C119.852761,89.5966077 96.4452605,92.3190184 67.619632,92.3190184 C38.7925916,92.3190184 15.3865031,89.5966077 15.3865031,86.2453988 C15.3865031,82.8941898 38.7925916,80.1717791 67.619632,80.1717791 C96.4452605,80.1717791 119.852761,82.8941898 119.852761,86.2453988" id="路径" fill="#DFDFDF"></path>
                <polygon id="路径" fill="#BCCCE0" points="116.547992 4.81435579 112.574225 11.0634356 112.574225 11.1268711 116.613497 11.1268711 116.613497 12.1472393 110.944785 12.1472393 110.944785 11.4453988 114.984687 5.13288337 114.984687 5.0694478 111.270421 5.0694478 111.270421 4.04907975 116.548622 4.04907975"></polygon>
                <polygon id="路径" fill="#BCCCE0" points="124.710892 0.496243875 121.841394 4.95969376 124.711656 4.95969376 124.711656 5.66871166 120.662577 5.66871166 120.662577 5.17246778 123.533603 0.709704335 120.88413 0.709704335 120.88413 0 124.711656 0"></polygon>
                <path d="M112.313639,8.27012624 C111.186611,8.19938648 110.059583,8.12936115 108.931842,8.12936125 L108.931842,7.28834356 C110.060298,7.28834356 111.186611,7.35765428 112.313639,7.42767952 L112.313639,8.27012624 Z M104.777266,8.34015158 L104.705845,7.49841928 C105.76288,7.42767952 106.960615,7.35765428 108.156921,7.35765428 L108.156921,8.19938648 C106.960615,8.19938648 105.833587,8.27012624 104.777266,8.34015158 Z M113.86348,8.41089134 L113.159266,8.34015158 L113.229973,7.49841928 L113.934187,7.56844461 L113.86348,8.41089134 Z M100.620549,8.97109345 L100.408427,8.12936125 C101.536883,7.84926019 102.662483,7.70920971 103.790224,7.56844461 L103.861646,8.41089134 C102.733904,8.5502273 101.676155,8.76101763 100.620549,8.97109345 L100.620549,8.97109345 Z M96.6752377,10.3044316 L96.3231309,9.5327246 C97.3801656,9.04183321 98.435772,8.62025254 99.5642281,8.34015158 L99.7749208,9.18188378 C98.6478932,9.46269936 97.5915726,9.88356551 96.6752377,10.3044316 Z M93.435569,12.6195525 L92.8020624,12.0579213 C93.5908708,11.2050123 94.519635,10.4933147 95.5482101,9.95359075 L95.971024,10.6552725 C94.9846962,11.2169036 94.0690756,11.9178708 93.435569,12.6195525 Z M91.5329064,16.1265319 L90.6872787,15.9157416 C90.9686784,14.7238831 91.4636279,13.6713605 92.1664131,12.7603175 L92.8720552,13.2504944 C92.2378343,14.0922266 91.8150204,15.0747239 91.5329064,16.1265319 L91.5329064,16.1265319 Z M90.618,20.2651678 C90.5465787,19.634226 90.4765859,19.001855 90.4765859,18.3716275 C90.4765859,17.8092817 90.5458646,17.319105 90.618,16.7574738 L91.4636278,16.8982389 C91.3922065,17.3898448 91.3922065,17.8800217 91.3922066,18.370913 C91.3922066,18.9318296 91.4636279,19.5642006 91.5329064,20.1244027 L90.618,20.2651678 L90.618,20.2651678 Z M91.6743205,24.4738289 C91.2515066,23.4220209 90.9686784,22.2994731 90.7579857,21.1776398 L91.6043277,21.0368748 C91.8157346,22.0193721 92.0971345,23.0711801 92.5199483,24.1937279 C92.448527,24.1229881 91.6743205,24.4738289 91.6743205,24.4738289 Z M93.435569,28.3323638 C92.9231499,27.3234754 92.4530273,26.2936372 92.0264274,25.2455359 L92.8020624,24.9654349 C93.153455,25.9479321 93.6462617,26.9290003 94.2090613,27.9808083 L93.435569,28.3330783 L93.435569,28.3323638 Z M95.5482101,32.0501335 C94.9147035,31.0676362 94.3511896,30.0858534 93.7869617,29.1033562 L94.4918896,28.6824901 C95.0175527,29.6630308 95.5812572,30.6226781 96.1817167,31.5592421 L95.5482101,32.0501335 L95.5482101,32.0501335 Z M97.9436794,35.5578275 C97.2387515,34.5760447 96.6045306,33.6642873 96.0417311,32.7518152 L96.7459448,32.3302345 C97.3101728,33.2427066 97.9436795,34.1551786 98.6478931,35.1369613 L97.9436794,35.5578275 Z M100.479134,38.9247564 C99.7749207,38.012999 99.070707,37.1012414 98.4364862,36.1880549 L99.1414141,35.6985926 C99.8167095,36.5910435 100.497606,37.4792386 101.184062,38.3631253 L100.479134,38.9247564 L100.479134,38.9247564 Z M103.157432,42.2216601 C102.45179,41.3799279 101.676869,40.4674558 100.971941,39.6257235 L101.606162,39.1355467 C102.31109,39.9765644 103.015304,40.8182966 103.720232,41.7307687 L103.156718,42.2216601 L103.157432,42.2216601 Z M105.902866,45.4492529 C105.127945,44.6060916 104.424445,43.7650739 103.64881,42.9233417 L104.283031,42.3617106 C104.987959,43.2034428 105.76288,44.0458896 106.467094,44.8876218 L105.902866,45.4492529 Z M108.791856,48.5346518 L106.467094,46.0094551 L107.1006,45.4492529 C107.806242,46.2902706 108.581163,47.0619776 109.354655,47.9037099 L108.791856,48.5346518 Z M111.750125,51.6214796 C110.975204,50.7797474 110.200997,50.008755 109.426077,49.1663082 L110.059583,48.604677 C110.834504,49.4471238 111.609425,50.2181162 112.384346,51.060563 L111.750125,51.6221941 L111.750125,51.6214796 Z M114.709108,54.6382822 L112.313639,52.2531361 L112.947145,51.6922194 C113.722066,52.4632118 114.498415,53.304944 115.342615,54.076651 L114.709108,54.6382822 L114.709108,54.6382822 Z M117.59667,57.6536557 C116.842289,56.8169578 116.067613,55.9988002 115.273336,55.1999134 L115.906843,54.6382822 C116.681763,55.4099892 117.455256,56.2517214 118.231605,57.0927391 L117.59667,57.6543702 L117.59667,57.6536557 Z M120.203546,60.9519884 C119.570039,60.0395164 118.865112,59.1977842 118.090905,58.3553375 L118.724412,57.7951353 C119.488277,58.6345461 120.194123,59.5250216 120.837053,60.4603825 L120.203546,60.9519884 L120.203546,60.9519884 Z M122.457601,64.4589679 C121.964794,63.4764706 121.401281,62.4946878 120.767774,61.6529556 L121.471274,61.1620643 C122.135615,62.0954895 122.724561,63.0803887 123.232522,64.1074125 L122.457601,64.4589679 L122.457601,64.4589679 Z M24.9647137,65.510776 C23.9076789,65.0899098 22.8506441,64.5990185 21.8650307,64.1781524 L22.2171375,63.4064454 C23.202751,63.8273115 24.2597858,64.3182028 25.3168205,64.7397835 L24.9647137,65.5114905 L24.9647137,65.510776 Z M28.9093103,67.0541899 C27.8522755,66.6333237 26.7952408,66.2824829 25.7396345,65.7915915 L26.0210342,65.0198846 C27.007362,65.4407507 28.0636825,65.8616168 29.1907101,66.2124576 L28.9093103,67.0541899 L28.9093103,67.0541899 Z M123.797464,68.3175028 C123.65605,67.3342909 123.303943,66.2824829 122.810422,65.2299604 L123.585343,64.879834 C124.07815,66.0731216 124.430971,67.1249296 124.642378,68.1767377 L123.797464,68.3175028 Z M32.924614,68.4568387 C31.8682934,68.1067124 30.8119729,67.7558715 29.6849453,67.3350055 L29.966345,66.5632985 C31.0233798,66.9134248 32.0804146,67.3350055 33.1367351,67.6851317 L32.924614,68.4568387 Z M36.9399177,69.7901768 C35.8128901,69.4400505 34.7565695,69.0892096 33.7002489,68.7383688 L33.982363,67.9659473 C35.0386835,68.3175028 36.0957183,68.667629 37.2227459,69.0184699 L36.9399177,69.7901768 Z M41.0266426,70.9827499 C39.8981865,70.6326236 38.841866,70.3510935 37.7855455,70.0002526 L38.0669452,69.2285457 C39.12398,69.578672 40.1810148,69.8602022 41.3080424,70.211043 L41.0266426,70.9827499 L41.0266426,70.9827499 Z M45.1119391,72.1753231 C43.9998145,71.9035588 42.8958828,71.599271 41.8015634,71.262851 L42.0122562,70.491144 C43.0692909,70.7719596 44.1956043,71.123515 45.2526391,71.4036161 L45.1126533,72.1753231 L45.1119391,72.1753231 Z M124.078864,72.5254494 L123.303943,72.1753231 C123.672182,71.3593199 123.863968,70.4746957 123.866743,69.5793865 L123.866743,69.0892097 L124.711656,69.0177553 L124.711656,69.5093613 C124.711656,70.5611693 124.500964,71.6129773 124.07815,72.5247348 L124.078864,72.5254494 Z M49.2672285,73.2271311 C48.1416293,72.94703 47.0838804,72.6654999 45.9568528,72.3853988 L46.1689739,71.5436666 C47.2252945,71.8244821 48.352322,72.1052977 49.4793496,72.3853988 L49.2672285,73.2271311 Z M53.3532393,74.2089138 C52.2262117,73.9288127 51.1698911,73.7173079 50.0435777,73.4379214 L50.2542705,72.5947601 C51.310591,72.8762902 52.4383328,73.1571058 53.5646462,73.3678961 L53.3532393,74.2089138 L53.3532393,74.2089138 Z M57.509957,75.1213858 C56.3822151,74.909881 55.3258947,74.6304944 54.1988671,74.4197041 L54.4109882,73.5779719 C55.5365874,73.8580729 56.592908,74.0688633 57.721364,74.278939 L57.5106713,75.1213858 L57.509957,75.1213858 Z M121.189874,75.822353 L120.697067,75.1213858 C121.585972,74.4966188 122.350632,73.7114922 122.951836,72.8062649 L123.65605,73.2278456 C123.091822,74.2789391 122.246194,75.1213858 121.189874,75.822353 L121.189874,75.822353 Z M61.6659607,75.963118 C60.5389331,75.7530422 59.4111912,75.5415374 58.3548706,75.2614363 L58.4962847,74.4197041 C59.6233123,74.6304944 60.6803471,74.8412848 61.8066605,75.1213858 C61.8780818,75.1213858 61.6659606,75.963118 61.6659607,75.963118 Z M65.8219642,76.734825 C64.6956508,76.5240347 63.567909,76.3132443 62.5115884,76.102454 L62.6515741,75.2614363 C63.7786017,75.4715121 64.8363507,75.683017 65.9633783,75.8923783 C66.0340853,75.8923783 65.8219642,76.734825 65.8219642,76.734825 L65.8219642,76.734825 Z M70.0486749,77.4357922 C68.9216473,77.2257164 67.7946196,77.0856659 66.667592,76.8755901 L66.8090062,76.0324287 C67.9353195,76.2432191 69.0623471,76.4540094 70.1186677,76.59406 L70.0486749,77.4357922 Z M117.386691,77.786633 L117.105291,77.014926 C118.161612,76.6647997 119.14794,76.1731938 120.06356,75.6122772 L120.48566,76.3139589 C119.571468,76.8755901 118.514433,77.365767 117.385977,77.786633 L117.386691,77.786633 Z M74.2760996,78.1367593 C73.1476436,77.9974233 72.0220444,77.786633 70.8935884,77.647297 L71.0350025,76.8048502 C72.1620301,77.014926 73.2890578,77.1549765 74.4167996,77.2950271 L74.2760996,78.1374739 L74.2760996,78.1367593 Z M78.4306748,78.6991051 L75.0503063,78.2775244 L75.1910061,77.4357922 L78.5720889,77.8573729 L78.4306748,78.6991051 Z M113.230688,78.9792061 L113.089273,78.1374739 C114.18586,77.9233113 115.268264,77.641966 116.330371,77.2950271 L116.61177,78.0681632 C115.554736,78.4182895 114.426994,78.6991051 113.230688,78.9792061 L113.230688,78.9792061 Z M82.6580997,79.1899965 L79.2770168,78.7691303 L79.3477239,77.9273981 L82.7288068,78.3482643 L82.6573855,79.1899965 L82.6580997,79.1899965 Z M86.8840962,79.6115771 C85.7577828,79.5408374 84.6307552,79.4000723 83.5037275,79.2607362 L83.5744345,78.4182895 C84.7000337,78.55834 85.8277755,78.6283653 86.9548032,78.7691303 L86.8840962,79.6108625 L86.8840962,79.6115771 Z M109.003977,79.6115771 L108.932556,78.7691303 C110.13029,78.6283652 111.187325,78.4876002 112.245074,78.2782389 L112.38506,79.1199712 C111.328025,79.330047 110.201712,79.4700975 109.003977,79.6108625 L109.003977,79.6115771 Z M91.1108067,79.8916782 L87.7297239,79.6801732 L87.8011452,78.838441 L91.1815138,79.0492314 L91.1108067,79.8916782 Z M104.777981,80.0310141 L104.706559,79.1899965 C105.90358,79.1199712 107.032036,79.0492314 108.088356,78.9091809 L108.157635,79.7509131 C107.101314,79.8209383 105.90358,79.9609889 104.777981,80.0310141 Z M95.4075102,80.1017539 C94.2811968,80.1017539 93.1541692,80.0310141 92.0271417,79.9609888 L92.0978487,79.1199712 C93.2248762,79.1899965 94.3519039,79.2607363 95.4782173,79.2607362 L95.4082244,80.1017539 L95.4075102,80.1017539 Z M100.479849,80.1717791 L100.479849,79.3300469 C101.606876,79.3300469 102.734618,79.2607362 103.861646,79.2607362 L103.933067,80.1017539 C102.804611,80.1017539 101.677583,80.1017539 100.479849,80.1717791 L100.479849,80.1717791 Z M99.2114069,80.1717791 C98.2257934,80.1717791 97.2394657,80.1717791 96.2545665,80.1017539 L96.2545665,79.2607362 C97.2394658,79.2607362 98.2257935,79.3300469 99.2114069,79.3300469 L99.6342209,79.3300469 L99.6342209,80.1717791 L99.2114069,80.1717791 Z" id="形状" fill="#D9D9D9" fill-rule="nonzero"></path>
                <path d="M98.38495,11.6516967 C97.9453788,11.6516967 97.6938899,12.0293949 97.6938899,12.4690925 C97.6938899,12.8467907 98.0073604,13.1610641 98.38495,13.1610641 C98.8245211,13.1610641 99.1394165,12.8467907 99.1394165,12.4698052 C99.2021106,12.029395 98.8879277,11.6516967 98.38495,11.6516967 C98.4469316,11.6516967 98.38495,11.6516967 98.38495,11.6516967 M98.38495,13.4753374 C97.8192782,13.4753374 97.3163004,12.972215 97.3163004,12.4063804 C97.3163004,11.8405459 97.8192781,11.3374233 98.38495,11.3374233 C98.9506218,11.3374233 99.4535994,11.8405458 99.4535994,12.4063804 C99.4535994,12.9722151 98.9506217,13.4753374 98.38495,13.4753374 M25.8934652,55.3927068 C25.4731297,54.9722503 24.772808,54.691471 23.9321372,54.6914709 C23.9321372,54.6914709 24.9822634,54.6914709 25.8229344,54.0600736 C26.3138007,53.6403297 26.7341362,52.9383813 26.7341362,51.9577914 C26.7341362,51.9577914 26.7341362,53.2904245 27.645338,54.0600736 C28.0642486,54.4114041 28.6954642,54.6914709 29.5361353,54.6914709 C29.5361353,54.6914709 28.4845842,54.6914709 27.7151565,55.3221555 C27.2250026,55.742612 26.8046671,56.4431352 26.8046671,57.4251504 C26.6636054,57.4251504 26.7341363,56.1637811 25.8927528,55.3919941 M125.638363,63.2431274 C125.358377,62.9630606 124.868223,62.7521198 124.306825,62.7521197 C124.306825,62.7521197 125.008572,62.7521197 125.569257,62.3316633 C125.918349,62.0515965 126.127804,61.5605889 126.127804,60.9299043 C126.127804,60.9299043 126.127804,61.7708172 126.688489,62.3316633 C126.9699,62.61173 127.390236,62.7521197 127.95092,62.7521197 C127.95092,62.7521197 127.249886,62.7521197 126.759732,63.1725762 C126.409215,63.4540682 126.127804,63.9436506 126.127804,64.5757605 C126.127804,64.5757605 126.199048,63.8032608 125.638363,63.2431274 M17.9085159,62.1221477 C17.418362,61.6304275 16.5071602,61.209971 15.3865031,61.209971 C15.3865031,61.209971 16.7878588,61.209971 17.7681666,60.3690581 C18.3979574,59.8089246 18.8888237,58.9672991 18.8888237,57.7052172 C18.8888237,57.7052172 18.8888237,59.3877556 20.0094809,60.4388967 C20.5003472,60.930617 21.3410182,61.2798096 22.3911445,61.2798095 C22.3911445,61.2798095 21.0596072,61.3510733 20.0094809,62.1221477 C19.3091592,62.6822812 18.8182929,63.5937453 18.8182929,64.7852761 C18.9593547,64.714725 19.0291731,63.1725762 17.9085159,62.1221477" id="形状" fill="#D3E0F6" fill-rule="nonzero"></path>
                <g id="编组" transform="translate(10.527607, 15.147239)" fill="#BCCCE0" fill-rule="nonzero">
                    <path d="M94.8090027,8.4695695 C92.6441744,8.4695695 90.9033845,6.7306835 90.9033845,4.61760683 C90.9033845,2.50453017 92.6664922,0.765644172 94.8090027,0.765644172 C96.9515133,0.765644172 98.7146209,2.50453017 98.7146209,4.61760683 C98.7146209,6.7306835 96.9515133,8.4695695 94.8090027,8.4695695 Z M94.8090027,2.21838438 C93.4699336,2.21838438 92.3986784,3.29693392 92.3986784,4.59559562 C92.3986784,5.89425732 93.4922514,6.97280686 94.8090027,6.97280686 C96.125754,6.97280686 97.2193271,5.89425732 97.2193271,4.59559562 C97.2193271,3.29693392 96.125754,2.21838438 94.8090027,2.21838438 L94.8090027,2.21838438 Z M4.77601309,37.5122515 C2.14251055,37.5122515 4.13002965e-13,35.3991748 4.13002965e-13,32.8018514 C4.13002965e-13,30.204528 2.14251055,28.0914514 4.77601309,28.0914514 C7.40951564,28.0914514 9.55202619,30.204528 9.55202619,32.8018514 C9.55202619,35.3771636 7.40951564,37.5122515 4.77601309,37.5122515 Z M4.77601309,29.5662028 C2.96826982,29.5662028 1.49529382,31.018943 1.49529382,32.8018514 C1.49529382,34.5847598 2.96826982,36.0375 4.77601309,36.0375 C6.58375637,36.0375 8.05673237,34.5847598 8.05673237,32.8018514 C8.03441455,31.018943 6.58375637,29.5662028 4.77601309,29.5662028 L4.77601309,29.5662028 Z M23.5482092,11.8592966 L22.0752332,11.8592966 L22.9009925,10.670691 C23.1241707,10.362534 23.0348994,9.9223097 22.7224499,9.72420876 C22.4100005,9.50409661 21.9636441,9.59214147 21.7627838,9.90029849 L20.7807998,11.3090163 L19.8434514,9.87828727 C19.642591,9.57013026 19.1962347,9.46007418 18.8837852,9.68018633 C18.5713358,9.87828727 18.4597467,10.3185116 18.6829249,10.6266686 L19.5086841,11.8813079 L17.9910725,11.8813079 C17.6116696,11.8813079 17.2992201,12.1894649 17.2992201,12.5636555 C17.2992201,12.9378462 17.6116696,13.2460032 17.9910725,13.2460032 L19.4640485,13.2460032 L18.6382892,14.4346088 C18.415111,14.7427658 18.5043823,15.1829901 18.8168318,15.3810911 C19.1292812,15.6012032 19.5756376,15.5131584 19.7764979,15.2050014 L20.7584819,13.7962836 L21.6958303,15.2270126 C21.8966907,15.5351696 22.343047,15.6452257 22.6554965,15.4251135 C22.9679459,15.2050014 23.079535,14.7867883 22.8563569,14.4786313 L22.0305976,13.223992 L23.5482092,13.223992 C23.9276121,13.223992 24.2400616,12.915835 24.2400616,12.5416443 C24.2400616,12.1674537 23.9499299,11.8592966 23.5482092,11.8592966 Z M106.012547,30.0625716 C106.012547,30.0625716 106.012547,34.6188932 100.968721,34.6188932 C100.968721,34.6188932 106.012547,34.8390053 106.012547,39.1752147 C106.012547,39.1752147 107.083803,34.6188932 110.944785,34.6188932 C110.944785,34.596882 106.012547,33.7604558 106.012547,30.0625716 L106.012547,30.0625716 Z" id="形状"></path>
                </g>
                <g id="编组" transform="translate(39.000000, 22.000000)" fill="#F7FAFF" fill-rule="nonzero" stroke-width="1.4">
                    <path d="M42.0489514,13.78125 L50.0708054,13.78125 C51.2271087,13.78125 51.5161845,13.0568096 50.793495,12.1874812 L40.6035722,1.46576404 C39.7363448,0.596435624 39.375,0.958655799 39.375,2.11776036 L39.375,10.6661565 C39.375,12.4048133 40.3144964,13.78125 42.0489514,13.78125 Z" id="路径" stroke="#BCCCE0"></path>
                    <path d="M35.7374481,46.9464077 L11.839768,46.9464077 C9.92555402,46.9464077 8.3658241,45.3525482 8.3658241,43.3964479 C8.3658241,41.4403475 9.92555402,39.846488 11.839768,39.846488 L41.3137552,39.846488 C43.2394033,36.7901417 44.2234737,39.1920749 44.6336318,39.846488 C44.9332132,40.3244744 44.1427781,38.8103643 47.0754848,38.8103643 C48.4225242,38.8103643 49.4150796,39.1726051 51.1875,39.4623978 L51.1875,19.7783477 C51.1875,17.9671437 48.138937,16.8804213 46.4374134,16.8804213 L36.1573753,16.8804213 C34.384955,16.8804213 33.8177805,15.2865618 33.8177805,13.5478059 L33.8177805,3.04282272 C33.8177805,1.23161872 31.690876,0 30.0602493,0 L4.46649931,0 C1.06345222,0 0,2.75303008 0,6.1580936 L0,56.3646685 C0,59.8421802 1.06345222,62.015625 4.46649931,62.015625 L39.3531856,62.015625 C36.8717971,58.4656652 35.4538608,54.6983608 35.4538608,50.3514712 C35.4538608,49.1923007 35.5247576,47.8157856 35.7374481,46.9464077 Z M11.839768,24.7772707 L38.1424861,24.7772707 C40.0567001,24.7772707 41.6164301,26.3711303 41.6164301,28.3272306 C41.6164301,30.2833309 40.0567001,31.8771904 38.1424861,31.8771904 L11.839768,31.8771904 C9.92555402,31.8771904 8.3658241,30.2833309 8.3658241,28.3272306 C8.3658241,26.3711303 9.92555402,24.7772707 11.839768,24.7772707 Z" id="形状" stroke="#BCCCE0"></path>
                    <path d="M47.2497363,34.453125 C38.3816415,34.453125 31.5,41.5820489 31.5,50.6953125 C31.5,59.5145998 38.7363653,66.9375 47.2497363,66.9375 C56.117831,66.9375 62.9994725,59.8085761 62.9994725,50.6953125 C63.0704173,41.729037 55.9759415,34.453125 47.2497363,34.453125 Z M55.417235,53.3700509 L45.9106375,53.3700509 C44.9883556,53.3700509 44.6336318,53.2965568 44.6336318,52.26764 L44.6336318,42.3459417 C44.6336318,41.3905189 45.4140242,40.5085902 46.4072508,40.5085902 C47.3295326,40.5085902 48.1808697,41.3170249 48.1808697,42.3459417 L48.1808697,49.7688419 L55.5591245,49.7688419 C56.4814064,49.7688419 57.3327435,50.5772766 57.3327435,51.6061934 C57.190854,52.4881222 56.4104616,53.3700509 55.417235,53.3700509 Z" id="形状" stroke="#93B6FF"></path>
                </g>
            </g>
        </g>
    </g>
</svg>