<?xml version="1.0" encoding="UTF-8"?>
<svg width="25px" height="31px" viewBox="0 0 25 31" version="1.1" xmlns="http://www.w3.org/2000/svg" xmlns:xlink="http://www.w3.org/1999/xlink">
    <!-- Generator: Sketch 60.1 (88133) - https://sketch.com -->
    <title>Add address</title>
    <desc>Created with Sketch.</desc>
    <g id="购物车" stroke="none" stroke-width="1" fill="none" fill-rule="evenodd">
        <g id="购物车-到店自提-地址空-状态1" transform="translate(-129.000000, -90.000000)" fill-rule="nonzero" stroke="#DBDBDB">
            <g id="Add-address" transform="translate(130.000000, 91.000000)">
                <path d="M23.2544533,13.3814187 C23.0814794,14.3390866 22.7821629,15.2713565 22.3638283,16.1554145 C22.2262027,16.4515572 21.934513,16.6533219 21.6001321,16.6836708 C21.2657511,16.7140197 20.9403067,16.568267 20.7480597,16.3020639 C20.5558128,16.0358609 20.5264459,15.6903088 20.671172,15.397346 C21.2601003,14.1402468 21.5694288,12.777627 21.5791407,11.3976628 C21.5791407,11.12126 21.5589845,10.8466698 21.5369532,10.5906574 C21.1435187,5.63221571 16.8665855,1.80286088 11.7220313,1.80286088 C6.57747709,1.80286088 2.3005439,5.63221571 1.90710939,10.5906574 C1.88133998,10.8589724 1.86710897,11.1282062 1.86445314,11.3976628 C1.86522776,12.0291716 1.92959378,12.659108 2.05664064,13.2785606 C2.17257625,13.8317699 2.33884768,14.373996 2.55351564,14.8989149 C4.83164065,19.353983 7.40976567,22.9136875 10.2166407,25.4765298 L11.7260157,26.8531059 L13.234922,25.4874046 C13.4152777,25.323517 13.6559122,25.2361042 13.9032881,25.2446141 C14.150664,25.2531239 14.3842617,25.3568506 14.5521095,25.5327165 C14.9028149,25.8997796 14.881894,26.4714928 14.5052345,26.8136845 L12.3583594,28.7566597 C12.0002724,29.0815318 11.4423013,29.0803399 11.0857032,28.753941 L8.94257818,26.7973723 C5.96460941,24.078657 3.24679689,20.3327205 0.86460938,15.6651395 C0.85710938,15.6497334 0.85335938,15.6343274 0.84679688,15.6198276 C0.84304688,15.6116714 0.83648438,15.6057809 0.83320313,15.5971716 C0.283269511,14.2610806 0.00122715797,12.8360771 0.00210731174,11.3981159 C0.00210731174,11.0600889 0.0260156251,10.7383743 0.0513281253,10.4402219 C0.530716283,4.55229622 5.61333205,0.0106531719 11.7232032,0.0106531719 C17.8330743,0.0106531719 22.9156901,4.55229622 23.3950783,10.4402219 C23.4194533,10.7211558 23.4419533,11.0546515 23.4419533,11.3981159 C23.4393661,12.0632356 23.3766273,12.7268632 23.2544533,13.3814187 Z" id="路径" stroke-width="0.4" fill="#DBDBDB"></path>
                <path d="M6.86272985,11.8861253 C6.87824617,9.2961177 9.06012353,7.20723789 11.739501,7.21718416 C14.4188784,7.22720169 16.5840348,9.33227618 16.5789033,11.9223224 C16.5737534,14.5123686 14.4002568,16.6094399 11.7208594,16.6094399 C9.03197122,16.5987026 6.85909422,14.4867298 6.86272985,11.8874846 L6.86272985,11.8861253 Z" id="路径" stroke-width="2"></path>
                <path d="M13.1369532,22.5829105 C12.6191862,22.5829105 12.1994532,22.1771737 12.1994532,21.6766721 C12.1994532,21.1761704 12.6191862,20.7704336 13.1369532,20.7704336 L16.8869532,20.7704336 L16.8869532,17.1282614 C16.8793732,16.8015384 17.0553557,16.4964487 17.3468688,16.3309353 C17.6383819,16.1654219 17.9997433,16.1654219 18.2912564,16.3309353 C18.5827695,16.4964487 18.758752,16.8015384 18.751172,17.1282614 L18.751172,20.7740586 L22.501172,20.7740586 C23.018939,20.7740586 23.438672,21.1797953 23.438672,21.680297 C23.438672,22.1807987 23.018939,22.5865354 22.501172,22.5865354 L18.751172,22.5865354 L18.751172,26.2323326 C18.758752,26.5590556 18.5827695,26.8641453 18.2912564,27.0296587 C17.9997433,27.1951721 17.6383819,27.1951721 17.3468688,27.0296587 C17.0553557,26.8641453 16.8793732,26.5590556 16.8869532,26.2323326 L16.8869532,22.5865354 L13.1369532,22.5865354 L13.1369532,22.5829105 Z" id="路径" stroke-width="0.4" fill="#DBDBDB"></path>
            </g>
        </g>
    </g>
</svg>