<?xml version="1.0" encoding="UTF-8"?>
<svg width="18px" height="18px" viewBox="0 0 18 18" version="1.1" xmlns="http://www.w3.org/2000/svg" xmlns:xlink="http://www.w3.org/1999/xlink">
    <!-- Generator: Sketch 60.1 (88133) - https://sketch.com -->
    <title>cs-telephone</title>
    <desc>Created with Sketch.</desc>
    <g id="我的-订单" stroke="none" stroke-width="1" fill="none" fill-rule="evenodd">
        <g id="订单详情-等待审核-状态1" transform="translate(-17.000000, -867.000000)" fill="#3A74F1" fill-rule="nonzero">
            <g id="cs-telephone" transform="translate(17.000000, 867.000000)">
                <path d="M16.4899554,6.93917411 C16.1467634,3.03641183 12.9261998,0 9.01925223,0 C5.11230469,0 1.84779576,3.03641183 1.54854911,6.93917411 C0.646623884,7.32840402 0.00209263393,8.24079241 0.00209263393,9.32477679 L0.00209263393,11.0595703 C0.00209263393,12.4909319 1.16141183,13.6607143 2.578125,13.6607143 L3.6390904,13.6607143 C4.00111607,13.6607143 4.29408482,13.3635603 4.29408482,12.9973493 L4.29408482,7.38490513 C4.29408482,7.0186942 4.00111607,6.72154018 3.6390904,6.72154018 L2.83551897,6.72154018 C3.26450893,3.64327567 5.84054129,1.3016183 9.01925223,1.3016183 C12.1958705,1.3016183 14.7719029,3.64327567 15.2029855,6.72154018 L14.3973214,6.72154018 C14.0352958,6.72154018 13.7402344,7.0186942 13.7402344,7.38490513 L13.7402344,12.9973493 C13.7402344,13.3635603 14.0332031,13.6607143 14.3973214,13.6607143 L14.6421596,13.6607143 C14.3847656,15.2218192 13.2254464,16.0881696 10.9486607,16.3058036 C10.7770647,16.0023717 10.4338728,15.828683 10.0467355,15.828683 L8.7765067,15.828683 C8.18219866,15.828683 7.68833705,16.3078962 7.68624442,16.9084821 C7.68415179,17.5174386 8.15708705,17.9966518 8.75976562,17.9966518 L10.0467355,17.9966518 C10.3899275,17.9966518 10.6473214,17.8669085 10.8628627,17.6074219 C13.913923,17.3897879 15.6738281,16.0442243 15.9312221,13.5728237 C17.0905413,13.3551897 17.9924665,12.2712054 17.9924665,11.0135324 L17.9924665,9.27873884 C18.0364118,8.23869978 17.3918806,7.32840402 16.4899554,6.93917411 Z M3.00711496,8.32240513 L3.00711496,12.0577567 C3.00711496,12.2230748 2.87318638,12.359096 2.70996094,12.359096 L2.578125,12.359096 C1.86662946,12.359096 1.29115513,11.7773438 1.29115513,11.0574777 L1.29115513,9.32268415 C1.29115513,8.60491071 1.86662946,8.02106585 2.578125,8.02106585 L2.70996094,8.02106585 C2.87527902,8.02315848 3.00711496,8.15708705 3.00711496,8.32240513 L3.00711496,8.32240513 Z M16.7473493,11.0574777 C16.7473493,11.7752511 16.1697824,12.359096 15.4582868,12.359096 L15.3264509,12.359096 C15.1632254,12.359096 15.0292969,12.2251674 15.0292969,12.0577567 L15.0292969,8.32240513 C15.0292969,8.15708705 15.1632254,8.02106585 15.3264509,8.02106585 L15.4582868,8.02106585 C16.1697824,8.02106585 16.7473493,8.60281808 16.7473493,9.32268415 L16.7473493,11.0574777 L16.7473493,11.0574777 Z" id="形状"></path>
            </g>
        </g>
    </g>
</svg>