<?xml version="1.0" encoding="UTF-8"?>
<svg width="24px" height="24px" viewBox="0 0 24 24" version="1.1" xmlns="http://www.w3.org/2000/svg" xmlns:xlink="http://www.w3.org/1999/xlink">
    <!-- Generator: Sketch 60.1 (88133) - https://sketch.com -->
    <title>my order-Sign for-sel</title>
    <desc>Created with Sketch.</desc>
    <g id="页面-1" stroke="none" stroke-width="1" fill="none" fill-rule="evenodd">
        <g id="订单管理-物流弹出框-状态1" transform="translate(-791.000000, -395.000000)" fill-rule="nonzero">
            <g id="编组-2" transform="translate(754.000000, 213.000000)">
                <g id="my-order-Sign-for-sel" transform="translate(37.000000, 182.000000)">
                    <circle id="椭圆形" fill="#4874EF" cx="12" cy="12" r="12"></circle>
                    <g id="编组" transform="translate(5.000000, 7.000000)" fill="#FFFFFF">
                        <path d="M13.667478,0.288696137 C13.4789185,0.102430217 13.2235699,-0.00144981983 12.9578688,0 C12.6921676,0.00148039977 12.4379919,0.108170018 12.2515187,0.296503915 L4.9507671,7.64019938 L1.71942181,4.33616652 C1.46983938,4.08101008 1.10240732,3.9777207 0.755533729,4.06520648 C0.40866014,4.15269227 0.135043375,4.41766205 0.0377522194,4.76030427 C-0.0595389359,5.1029465 0.0342763605,5.47120566 0.283858794,5.7263621 L4.22793321,9.75901141 C4.22947508,9.76210712 4.23341235,9.76210712 4.23575269,9.76523024 C4.23732209,9.76679179 4.23809303,9.77147646 4.24043337,9.77303801 C4.30389781,9.83536327 4.38140428,9.87275842 4.45582701,9.91486563 C4.49497948,9.93590554 4.52551401,9.97097206 4.56623588,9.9873273 C4.8076353,10.0852231 5.07785214,10.0857832 5.31965935,9.98888886 C5.35881182,9.97250622 5.38857541,9.94056281 5.42538754,9.92108446 C5.50055367,9.87900464 5.57888615,9.84160949 5.64312153,9.77925684 C5.64469093,9.77692821 5.6462328,9.77303801 5.6493716,9.77147646 C5.65094101,9.76835335 5.65405228,9.76681919 5.65721862,9.76523024 L13.6760684,1.69916454 C14.0642249,1.30693794 14.0603711,0.676197973 13.6674505,0.288696137 L13.667478,0.288696137 Z" id="路径"></path>
                    </g>
                </g>
            </g>
        </g>
    </g>
</svg>