<?xml version="1.0" encoding="UTF-8"?>
<svg width="20px" height="22px" viewBox="0 0 20 22" version="1.1" xmlns="http://www.w3.org/2000/svg" xmlns:xlink="http://www.w3.org/1999/xlink">
    <!-- Generator: Sketch 60.1 (88133) - https://sketch.com -->
    <title>home_sel_my</title>
    <desc>Created with Sketch.</desc>
    <g id="首页" stroke="none" stroke-width="1" fill="none" fill-rule="evenodd">
        <g transform="translate(-347.000000, -721.000000)" fill-rule="nonzero" id="home_sel_my">
            <g transform="translate(346.000000, 721.000000)">
                <rect id="矩形" fill-opacity="0" fill="#D8D8D8" x="0" y="0" width="22" height="22"></rect>
                <path d="M8.87089882,11.8143501 C4.91459466,11.8143501 1.69648679,15.0025022 1.69648679,18.9245712 L1.69648679,19.3471618 C1.69648679,21.3969938 4.86324188,21.3969938 8.87089882,21.3969938 L13.1278307,21.3969938 C16.9782198,21.3969938 20.3022428,21.3969938 20.3022428,19.3471618 L20.3022428,18.9245712 C20.3022428,15.0046419 17.0841349,11.8143501 13.1278307,11.8143501 L8.86982897,11.8143501 L8.87089882,11.8143501 Z M10.7859298,11.2708665 C13.9195195,11.2708665 16.4679015,8.74388152 16.4679015,5.63596817 C16.4679015,2.52805482 13.9195195,0 10.7869996,0 C7.65340987,0 5.10395806,2.52805482 5.10395806,5.63596817 C5.10395806,8.74281167 7.65340987,11.2708665 10.7869996,11.2708665 L10.7859298,11.2708665 Z" id="形状" fill="#3A74F1"></path>
            </g>
        </g>
    </g>
</svg>