<?xml version="1.0" encoding="UTF-8"?>
<svg width="22px" height="22px" viewBox="0 0 22 22" version="1.1" xmlns="http://www.w3.org/2000/svg" xmlns:xlink="http://www.w3.org/1999/xlink">
    <!-- Generator: Sketch 60.1 (88133) - https://sketch.com -->
    <title>home_nl_home</title>
    <desc>Created with Sketch.</desc>
    <g id="首页" stroke="none" stroke-width="1" fill="none" fill-rule="evenodd">
        <g transform="translate(-59.000000, -721.000000)" fill="#ABADB8" fill-rule="nonzero" id="home_nl_home">
            <g transform="translate(59.000000, 721.000000)">
                <path d="M15.8653351,9.36303794 C15.4563066,8.99779192 15.0367902,8.61146522 14.6177298,8.21413989 C14.1995814,7.82048077 13.8425365,7.48089822 13.5251633,7.1770612 L12.6874985,6.40349123 C12.5546458,6.27983333 12.422858,6.15502483 12.2921499,6.0290797 C11.9136731,5.67758196 11.4850368,5.49931239 11.0190089,5.49931239 C10.9925505,5.49931239 10.9660954,5.49991119 10.9396655,5.5011457 C10.4298619,5.52497606 10.0071536,5.6982044 9.64828468,6.02816315 C9.22724468,6.43185624 8.80038725,6.82937633 8.36784772,7.22059742 L8.22648893,7.349373 C7.92553153,7.62433863 7.59812635,7.92405116 7.24244942,8.24713577 C6.83843691,8.61696453 6.42074451,8.99962504 6.01217202,9.38411865 C4.82202228,10.4679415 3.78235124,11.4174895 2.74131223,12.3707037 L2.74131223,20.9459651 C2.74131223,21.2860059 2.85713522,21.5398908 3.09562117,21.7218264 C3.33456312,21.9046786 3.66561626,21.9972503 4.08011668,21.9972503 L17.8607739,21.9972503 C18.2574905,21.9839603 18.5766877,21.8561013 18.8078777,21.616423 C19.0399797,21.3794942 19.1571707,21.1022372 19.1571707,20.7924426 L19.1571707,12.416073 C18.2406186,11.5636795 17.3892739,10.7754447 16.6049607,10.0481607 L15.8653351,9.36303794 L15.8653351,9.36303794 Z" id="路径"></path>
                <path d="M21.8922351,10.2649252 C21.8794672,9.92580093 21.7230606,9.60959046 21.4257511,9.32362621 L20.8776439,8.76819565 C20.6022222,8.48910554 20.2565772,8.14952299 19.8498287,7.75907178 C19.472264,7.39886681 19.0436277,6.97954421 18.5014484,6.43923676 C18.0043824,5.94352514 17.5047559,5.45041345 17.0025893,4.95992168 C16.5251614,4.49706286 16.0554854,4.03603716 15.5903695,3.57959422 L15.4918743,3.48335625 C15.1947791,3.19197732 14.8974696,2.90081919 14.599946,2.60988211 L14.1444059,2.16397951 C13.7435854,1.77123693 13.4043243,1.43807024 13.1257107,1.16402116 C12.8516571,0.891346908 12.6683467,0.716285453 12.5785154,0.641586473 C12.1453191,0.215389754 11.6163637,1.35713663e-12 11.006241,1.35713663e-12 L10.9724973,1.35713663e-12 C10.3377507,0.00824896875 9.7613717,0.275423908 9.21098444,0.817106189 C9.13711308,0.892263453 8.8689874,1.14660668 8.43214316,1.56042994 C8.00077088,1.96829563 7.48959928,2.45544307 6.89634841,3.02049743 L6.83342096,3.08007333 C6.16399089,3.7193289 5.49215186,4.35603167 4.81791834,4.9901679 L4.04090103,5.72249303 C3.60496878,6.13356663 3.18910037,6.52630922 2.79147179,6.90026247 C2.21600475,7.4410282 1.71486507,7.91580219 1.28714077,8.32091822 L1.15170994,8.4492355 C0.886177331,8.70012008 0.622754238,8.95325022 0.361468752,9.20859893 C0.138030675,9.42169729 0.0185596995,9.71270259 0.00579182408,10.0724493 C-0.00697607276,10.432196 0.127542772,10.7433654 0.406156359,10.9967921 C0.646010294,11.2130984 0.923711896,11.3185018 1.25430905,11.3185019 L1.31176456,11.317127 C1.67017746,11.303837 1.94696708,11.2140149 2.15900525,11.0407866 C2.22968463,10.9848769 2.42804294,10.8043161 2.8028717,10.4555681 C3.14486875,10.1398159 3.54614529,9.75898846 4.08285266,9.24801066 C4.61037212,8.74429785 5.1403982,8.24324308 5.67291095,7.74486522 L5.70300669,7.71691039 C6.2228422,7.23113778 6.75225365,6.72978378 7.36830434,6.14044078 C7.89543579,5.63633712 8.36283177,5.19226763 8.75863636,4.82060575 C9.03042271,4.56466964 9.3032627,4.30986598 9.57714929,4.05620132 C10.0249374,3.64971045 10.4850375,3.43661209 10.9451375,3.42286381 C10.9621557,3.42229719 10.9791816,3.42199163 10.9962091,3.42194725 C11.4417172,3.42194725 11.9004493,3.63550389 12.3596373,4.05574303 C12.4750043,4.15702203 12.73857,4.4086156 13.0833031,4.74544849 C13.5210593,5.17072866 13.9784234,5.61067366 14.4412594,6.0538266 C14.9674788,6.55793026 15.52653,7.09411323 16.1170449,7.66283381 L16.8393427,8.35666376 C17.5970922,9.08585571 18.3570893,9.81268501 19.119323,10.5371412 C19.5091997,10.9097196 19.7185019,11.1008207 19.7859893,11.1558139 C19.9971155,11.3418739 20.281657,11.4426947 20.631862,11.4555264 L20.6943334,11.4569012 C21.0162667,11.4569012 21.3067362,11.3414157 21.557078,11.114569 C21.7951079,10.8863475 21.904547,10.6086323 21.8917791,10.2649252 L21.8922351,10.2649252 Z" id="路径"></path>
            </g>
        </g>
    </g>
</svg>