<?xml version="1.0" encoding="UTF-8"?>
<svg width="22px" height="22px" viewBox="0 0 22 22" version="1.1" xmlns="http://www.w3.org/2000/svg" xmlns:xlink="http://www.w3.org/1999/xlink">
    <!-- Generator: Sketch 60.1 (88133) - https://sketch.com -->
    <title>home_sel_shopping cart</title>
    <desc>Created with Sketch.</desc>
    <g id="首页" stroke="none" stroke-width="1" fill="none" fill-rule="evenodd">
        <g transform="translate(-266.000000, -721.000000)" fill="#3A74F1" fill-rule="nonzero" id="home_sel_shopping-cart">
            <g transform="translate(266.000000, 721.000000)">
                <path d="M6.90246329,19.522524 C6.90246329,20.3679854 7.5878452,21.0533673 8.43330664,21.0533673 C9.27876807,21.0533673 9.96414998,20.3679854 9.96414998,19.522524 C9.96414998,18.6770625 9.27876807,17.9916806 8.43330664,17.9916806 C7.5878452,17.9916806 6.90246329,18.6770625 6.90246329,19.522524 Z" id="路径"></path>
                <path d="M16.0875234,19.522524 C16.0875234,20.3679854 16.7729053,21.0533673 17.6183667,21.0533673 C18.4638281,21.0533673 19.14921,20.3679854 19.14921,19.522524 C19.14921,18.6770625 18.4638281,17.9916806 17.6183667,17.9916806 C16.7729053,17.9916806 16.0875234,18.6770625 16.0875234,19.522524 L16.0875234,19.522524 Z" id="路径"></path>
                <path d="M20.2836743,3.0932945 L5.00257736,3.0932945 L4.75654896,1.64446062 C4.59040752,0.695266894 3.76561364,0.00313216495 2.80199005,0.00426992218 L0.79275816,0.00426992218 C0.354929918,0.00426992218 0,0.359201244 0,0.797029487 C0,1.23485773 0.354929918,1.58978765 0.79275816,1.58978765 L2.80199005,1.58978765 C2.99677459,1.58687416 3.16480362,1.72593266 3.19836913,1.91782551 L5.46729766,14.9573304 C5.62751478,15.9119575 6.45387811,16.611188 7.42185657,16.611188 L19.3952384,16.611188 C19.8330667,16.611188 20.1879966,16.256258 20.1879966,15.8184298 C20.1879966,15.3806016 19.8330667,15.0256716 19.3952384,15.0256716 L7.36718359,15.0256716 C7.14826947,15.0256716 6.97080451,14.8482067 6.97080451,14.6292926 L6.68377139,12.9617668 C6.8299987,13.0063603 6.98194936,13.0293832 7.13482344,13.030108 L18.9988594,13.030108 C19.7384499,13.0051812 20.3624393,12.4719539 20.5023662,11.745293 L21.8691906,4.91117097 C21.9589801,4.44632911 21.8363444,3.96568281 21.5348228,3.60068302 C21.2333012,3.23568323 20.784445,3.02452343 20.3110108,3.02495328 L20.2836743,3.0932945 Z" id="路径"></path>
            </g>
        </g>
    </g>
</svg>