<?xml version="1.0" encoding="UTF-8"?>
<svg width="22px" height="22px" viewBox="0 0 22 22" version="1.1" xmlns="http://www.w3.org/2000/svg" xmlns:xlink="http://www.w3.org/1999/xlink">
    <!-- Generator: Sketch 60.1 (88133) - https://sketch.com -->
    <title>home_sel_drug</title>
    <desc>Created with Sketch.</desc>
    <g id="首页" stroke="none" stroke-width="1" fill="none" fill-rule="evenodd">
        <g transform="translate(-162.000000, -721.000000)" fill="#3A74F1" fill-rule="nonzero" id="home_sel_drug">
            <path d="M178.887175,736.463115 L182.019045,733.331244 C183.297252,732.053038 184,730.347878 184,728.53134 C184,726.71215 183.297252,725.009643 182.019045,723.731437 L181.268563,722.980955 C179.990357,721.702748 178.285198,721 176.46866,721 C174.64947,721 172.946962,721.702748 171.668756,722.980955 L168.536885,726.112825 L178.887175,736.463115 Z M167.112825,727.536885 L163.980955,730.668756 C162.702748,731.946962 162,733.652122 162,735.46866 C162,737.28785 162.702748,738.990357 163.980955,740.268563 L164.731437,741.019045 C166.009643,742.297252 167.714802,743 169.53134,743 C171.347878,743 173.053038,742.297252 174.331244,741.019045 L177.463115,737.887175 L167.112825,727.536885 Z"></path>
        </g>
    </g>
</svg>