<?xml version="1.0" encoding="UTF-8"?>
<svg width="22px" height="22px" viewBox="0 0 22 22" version="1.1" xmlns="http://www.w3.org/2000/svg" xmlns:xlink="http://www.w3.org/1999/xlink">
    <!-- Generator: Sketch 60.1 (88133) - https://sketch.com -->
    <title>home_nl_drug</title>
    <desc>Created with Sketch.</desc>
    <g id="首页" stroke="none" stroke-width="1" fill="none" fill-rule="evenodd">
        <g transform="translate(-129.000000, -721.000000)" fill="#ABADB8" fill-rule="nonzero" id="home_nl_drug">
            <path d="M145.887175,736.463115 L149.019045,733.331244 C150.297252,732.053038 151,730.347878 151,728.53134 C151,726.71215 150.297252,725.009643 149.019045,723.731437 L148.268563,722.980955 C146.990357,721.702748 145.285198,721 143.46866,721 C141.64947,721 139.946962,721.702748 138.668756,722.980955 L135.536885,726.112825 L145.887175,736.463115 Z M134.112825,727.536885 L130.980955,730.668756 C129.702748,731.946962 129,733.652122 129,735.46866 C129,737.28785 129.702748,738.990357 130.980955,740.268563 L131.731437,741.019045 C133.009643,742.297252 134.714802,743 136.53134,743 C138.347878,743 140.053038,742.297252 141.331244,741.019045 L144.463115,737.887175 L134.112825,727.536885 Z"></path>
        </g>
    </g>
</svg>