<?xml version="1.0" encoding="UTF-8"?>
<svg width="18px" height="18px" viewBox="0 0 18 18" version="1.1" xmlns="http://www.w3.org/2000/svg" xmlns:xlink="http://www.w3.org/1999/xlink">
    <!-- Generator: Sketch 60.1 (88133) - https://sketch.com -->
    <title>PDJ_sel_Collection</title>
    <desc>Created with Sketch.</desc>
    <g id="找药" stroke="none" stroke-width="1" fill="none" fill-rule="evenodd">
        <g id="产品详情页-状态1" transform="translate(-92.000000, -627.000000)" fill-rule="nonzero">
            <g id="PDJ_sel_Collection" transform="translate(92.000000, 627.000000)">
                <rect id="矩形" fill="#D8D8D8" opacity="0" x="0" y="0" width="18" height="18"></rect>
                <path d="M13.5783633,17.3220664 C13.3251855,17.3220664 13.0407891,17.2493789 12.7768184,17.1174375 L9.0099668,15.2333789 L5.21978906,17.1143789 C4.97975977,17.2421719 4.70499609,17.3094082 4.42481836,17.3094082 C4.06074654,17.3107487 3.70596284,17.1945589 3.41321484,16.9781133 C2.88275977,16.5803203 2.61094922,15.8909063 2.73642188,15.2633496 L3.51159961,11.2421426 L0.540421875,8.47258594 C0.0814929713,8.00760453 -0.0945971258,7.3331542 0.0784511719,6.70317188 L0.0843925781,6.68274609 C0.300392578,6.03537891 0.836244141,5.58177539 1.4859668,5.49474609 L5.61399609,4.74416016 L7.46681836,0.981052734 C7.76445117,0.385242188 8.36980664,0.002390625 9.0099668,0.002390625 C9.67775977,0.002390625 10.2987598,0.39965625 10.559127,0.991863281 L12.4060254,4.74303516 L16.5346875,5.46486328 C17.1898389,5.55981432 17.7283483,6.03026694 17.9104219,6.66673242 C18.1142291,7.2922802 17.9477591,7.97928696 17.4802148,8.4421582 L17.4700547,8.45233594 L14.5072617,11.2423359 L15.2560547,15.2707148 C15.3766406,15.9151289 15.1204219,16.5655547 14.5869961,16.9710996 C14.301409,17.20106 13.9450137,17.325053 13.5783633,17.3220664 L13.5783633,17.3220664 Z" id="形状" fill="#FA4949"></path>
            </g>
        </g>
    </g>
</svg>