<?xml version="1.0" encoding="UTF-8"?>
<svg width="18px" height="18px" viewBox="0 0 18 18" version="1.1" xmlns="http://www.w3.org/2000/svg" xmlns:xlink="http://www.w3.org/1999/xlink">
    <!-- Generator: Sketch 60.1 (88133) - https://sketch.com -->
    <title>PDJ_nl_Collection</title>
    <desc>Created with Sketch.</desc>
    <g id="找药" stroke="none" stroke-width="1" fill="none" fill-rule="evenodd">
        <g id="产品详情页-状态1" transform="translate(-113.000000, -627.000000)" fill-rule="nonzero">
            <g id="PDJ_nl_Collection" transform="translate(113.000000, 627.000000)">
                <rect id="矩形" fill="#D8D8D8" opacity="0" x="0" y="0" width="18" height="18"></rect>
                <path d="M13.5783633,17.3220664 C13.3251855,17.3220664 13.0407891,17.2493789 12.7768184,17.1174375 L9.0099668,15.2333789 L5.21978906,17.1143789 C4.97975977,17.2421719 4.70499609,17.3094082 4.42481836,17.3094082 C4.06074654,17.3107487 3.70596284,17.1945589 3.41321484,16.9781133 C2.88275977,16.5803203 2.61094922,15.8909063 2.73642188,15.2633496 L3.51159961,11.2421426 L0.540421875,8.47258594 C0.0814929713,8.00760453 -0.0945971258,7.3331542 0.0784511719,6.70317188 L0.0843925781,6.68274609 C0.300392578,6.03537891 0.836244141,5.58177539 1.4859668,5.49474609 L5.61399609,4.74416016 L7.46681836,0.981052734 C7.76445117,0.385242188 8.36980664,0.002390625 9.0099668,0.002390625 C9.67775977,0.002390625 10.2987598,0.39965625 10.559127,0.991863281 L12.4060254,4.74303516 L16.5346875,5.46486328 C17.1898389,5.55981432 17.7283483,6.03026694 17.9104219,6.66673242 C18.1142291,7.2922802 17.9477591,7.97928696 17.4802148,8.4421582 L17.4700547,8.45233594 L14.5072617,11.2423359 L15.2560547,15.2707148 C15.3766406,15.9151289 15.1204219,16.5655547 14.5869961,16.9710996 C14.301409,17.20106 13.9450137,17.325053 13.5783633,17.3220664 L13.5783633,17.3220664 Z M9.01132031,13.8169336 L12.9680684,15.7955977 C13.0843477,15.8542734 13.2182754,15.8909941 13.3097871,15.8909941 C13.4509219,15.8909941 13.5819668,15.8476113 13.6779961,15.7674199 L13.696084,15.7526543 C13.9209082,15.5838164 14.0304199,15.3159785 13.9812891,15.0532734 L13.1847891,10.7639648 L16.3343496,7.7980957 C16.5275684,7.60208203 16.5937148,7.32137695 16.5078457,7.0631543 L16.4994082,7.03608398 C16.4300415,6.78602271 16.2182907,6.60138471 15.9611133,6.56671289 L15.9431133,6.56393555 L11.5853203,5.80199414 L9.62419922,1.81824609 C9.52869727,1.59567187 9.27058008,1.43412891 9.00958008,1.43412891 C8.75316797,1.43412891 8.50800586,1.59459961 8.38372852,1.84253906 L6.43507031,5.80028906 L2.05421484,6.59608594 C1.7881875,6.6294668 1.58145117,6.80623242 1.48605469,7.08180469 C1.41827344,7.3337168 1.49846484,7.63700977 1.68368555,7.82629102 L4.83667383,10.7645098 L4.00920117,15.0561738 C3.95952539,15.3042012 4.07696484,15.5899512 4.29440625,15.7532168 C4.40339063,15.8351309 4.54461328,15.8803066 4.69265625,15.8803066 C4.80677344,15.8803066 4.91632031,15.8536582 5.01064453,15.8028926 L5.02421484,15.7949824 L9.01132031,13.8169336 Z" id="形状" fill="#000000"></path>
            </g>
        </g>
    </g>
</svg>