<?xml version="1.0" encoding="UTF-8"?>
<svg width="18px" height="17px" viewBox="0 0 18 17" version="1.1" xmlns="http://www.w3.org/2000/svg" xmlns:xlink="http://www.w3.org/1999/xlink">
    <!-- Generator: Sketch 60.1 (88133) - https://sketch.com -->
    <title>PDJ_Consultation</title>
    <desc>Created with Sketch.</desc>
    <g id="找药" stroke="none" stroke-width="1" fill="none" fill-rule="evenodd">
        <g id="产品详情页-状态1" transform="translate(-65.000000, -627.000000)" fill-rule="nonzero">
            <g id="PDJ_Consultation" transform="translate(65.000000, 627.000000)">
                <rect id="矩形" fill="#D8D8D8" opacity="0" x="0" y="0" width="18" height="18"></rect>
                <path d="M8.44721859,0.00368128272 C3.80585733,0.00368128272 0.00512434555,3.21069699 0.00512434555,7.18860275 C0.00512434555,9.61436191 1.43287304,11.7988645 3.60700916,13.1097546 L3.60700916,15.3404352 C3.60700916,15.6288122 3.80491492,15.8238907 4.05182592,15.8238907 C4.14606675,15.8238907 4.24973168,15.7767703 4.29685209,15.7767703 L6.61423429,14.2717441 C7.20983639,14.3641001 7.7960144,14.4206446 8.39161649,14.4206446 C13.0339202,14.4206446 16.8337107,11.2136289 16.8337107,7.23478076 C16.8893128,3.21069699 13.0895223,0.00368128272 8.44721859,0.00368128272 Z M8.44721859,13.2021106 C7.90816099,13.2021106 7.40774215,13.1559326 6.86868455,13.0541525 L6.62365838,13.0070321 C6.47193063,12.9608541 6.32962696,13.0070321 6.17884162,13.1003305 L5.97999346,13.249231 L4.89245419,13.9748855 L4.89245419,12.8110111 C4.89245419,12.6159326 4.79821335,12.374676 4.60030759,12.2813776 L4.30627618,12.0862991 C2.43465314,10.9704876 1.29056937,9.12148233 1.29056937,7.18766034 C1.29056937,3.88828861 4.49570026,1.2203305 8.49433901,1.2203305 C12.4939202,1.2203305 15.6981086,3.8873462 15.6981086,7.18766034 C15.6509882,10.4870321 12.3902552,13.2011682 8.44721859,13.2011682 L8.44721859,13.2021106 Z M3.65507199,7.38368128 C3.66230552,7.92129021 4.10129291,8.35270885 4.63894634,8.35060003 C5.17623302,8.3521908 5.61464791,7.92092169 5.62187827,7.38368128 C5.61464791,6.84644088 5.17623302,6.41517176 4.63894634,6.41676586 C4.09988874,6.41676586 3.65507199,6.84462369 3.65507199,7.38368128 L3.65507199,7.38368128 Z M7.51234948,7.38368128 C7.51234948,7.72766034 7.71025524,8.06221531 8.00428665,8.25729385 C8.30292891,8.45225268 8.68857632,8.45225268 8.98721859,8.25729385 C9.28030759,8.06221531 9.47915576,7.77383835 9.47915576,7.38368128 C9.47192223,6.84607236 9.03293484,6.41465371 8.49528141,6.41676253 C7.95716623,6.41676253 7.51234948,6.84462369 7.51234948,7.38368128 L7.51234948,7.38368128 Z M11.2084751,7.38368128 C11.2157087,7.92129021 11.6546961,8.35270885 12.1923495,8.35060003 C12.7296362,8.3521908 13.1680511,7.92092169 13.1752814,7.38368128 C13.1680511,6.84644088 12.7296362,6.41517176 12.1923495,6.41676586 C11.6532919,6.41676586 11.2084751,6.84462369 11.2084751,7.38368128 L11.2084751,7.38368128 Z M16.9854385,8.9829483 L16.9383181,8.93582788 C16.7875327,9.41928338 16.6452291,9.90273887 16.3992605,10.3400164 C16.3992605,10.3400164 16.3992605,10.3861944 16.4463809,10.3861944 C16.5971662,10.7301734 16.6914071,11.1665085 16.6914071,11.5481839 C16.6914071,12.616875 16.049627,13.6855661 14.9620877,14.26232 L14.8113024,14.354676 C14.7170615,14.4017965 14.6124542,14.5035766 14.6124542,14.643053 L14.6124542,15.321587 L13.9697317,14.93143 L13.8754908,14.8381315 C13.78125,14.7919535 13.7237631,14.7919535 13.6295223,14.7919535 L13.4787369,14.839074 C13.1847055,14.885252 12.8821924,14.93143 12.5891034,14.93143 C11.9214256,14.9347899 11.2618451,14.7852076 10.6609359,14.4941525 C10.0653338,14.643053 9.47915576,14.6901734 8.88355366,14.7363514 C9.81936518,15.563786 11.1519306,16.0462991 12.6362238,16.0462991 C13.0339202,16.0462991 13.3741296,16.0462991 13.7708835,15.9539431 L15.1986322,16.9208541 C15.2457526,16.9208541 15.292873,16.9670321 15.3494175,16.9670321 C15.5002029,16.9670321 15.6425065,16.8737336 15.6425065,16.6786551 L15.6425065,15.2744666 C17.0231348,14.4479745 17.9118259,13.0909064 17.9118259,11.5387598 C17.92125,10.5350949 17.5810406,9.66148233 16.9854385,8.9829483 L16.9854385,8.9829483 Z" id="形状" fill="#1B1B1B"></path>
            </g>
        </g>
    </g>
</svg>