<?xml version="1.0" encoding="UTF-8"?>
<svg width="14px" height="14px" viewBox="0 0 14 14" version="1.1" xmlns="http://www.w3.org/2000/svg" xmlns:xlink="http://www.w3.org/1999/xlink">
    <!-- Generator: Sketch 60.1 (88133) - https://sketch.com -->
    <title>PDJ_remind</title>
    <desc>Created with Sketch.</desc>
    <g id="找药" stroke="none" stroke-width="1" fill="none" fill-rule="evenodd">
        <g id="产品详情页-展开状态1" transform="translate(-51.000000, -644.000000)" fill="#F76D20" fill-rule="nonzero">
            <g id="PDJ_remind" transform="translate(51.000000, 644.000000)">
                <path d="M7,14 C3.15,14 0,10.85 0,7 C0,3.15 3.15,0 7,0 C10.85,0 14,3.15 14,7 C14,10.9083333 10.85,14 7,14 Z M7,0.758333338 C3.55833334,0.758333338 0.758333338,3.55833334 0.758333338,7 C0.758333338,10.4416667 3.55833334,13.1833333 7,13.1833333 C10.4416667,13.1833333 13.2416667,10.4416667 13.2416667,7 C13.2416667,3.55833334 10.4416667,0.758333338 7,0.758333338 Z M7,8.925 C6.70833334,8.925 6.475,8.69166666 6.475,8.4 L6.475,3.55833334 C6.475,3.26666668 6.70833334,3.03333334 7,3.03333334 C7.29166666,3.03333334 7.525,3.26666668 7.525,3.55833334 L7.525,8.4 C7.525,8.69166666 7.29166666,8.925 7,8.925 L7,8.925 Z M6.35833334,10.4416667 C6.35833334,10.0916667 6.65,9.8 7,9.8 C7.35,9.8 7.64166666,10.0916667 7.64166666,10.4416667 C7.64166666,10.7916667 7.35,11.0833333 7,11.0833333 C6.65,11.0833333 6.35833334,10.7916667 6.35833334,10.4416667 L6.35833334,10.4416667 Z" id="形状"></path>
            </g>
        </g>
    </g>
</svg>