<?xml version="1.0" encoding="UTF-8"?>
<svg width="18px" height="17px" viewBox="0 0 18 17" version="1.1" xmlns="http://www.w3.org/2000/svg" xmlns:xlink="http://www.w3.org/1999/xlink">
    <!-- Generator: Sketch 60.1 (88133) - https://sketch.com -->
    <title>D_home</title>
    <desc>Created with Sketch.</desc>
    <g id="首页" stroke="none" stroke-width="1" fill="none" fill-rule="evenodd">
        <g id="更多按钮-状态1" transform="translate(-265.000000, -64.000000)" fill-rule="nonzero">
            <g id="D_home" transform="translate(265.000000, 64.000000)">
                <path d="M0.652659804,7.75035511 C0.468435144,7.75035511 0.284210484,7.68643466 0.161394044,7.4946733 C-0.0842388353,7.23899148 -0.0228306154,6.7915483 0.222802264,6.59978693 L7.46897222,0.399502841 C8.14446264,-0.111860795 9.12699416,-0.111860795 9.74107636,0.399502841 L16.9872463,6.53586648 C17.2328792,6.72762784 17.2942874,7.17507102 17.0486545,7.43075284 C16.8030217,7.68643466 16.4345723,7.75035511 16.1889395,7.4946733 L9.00417772,1.48615057 C8.81995306,1.35830966 8.45150374,1.35830966 8.26727908,1.48615057 L1.02110912,7.6225142 C0.898292684,7.75035511 0.775476244,7.75035511 0.652659804,7.75035511 Z M14.4724659,16.6992188 L10.4801157,16.6992188 C10.1115911,16.6992188 9.86590798,16.4435369 9.86590798,16.0600142 L9.86590798,13.0557528 C9.86590798,12.6083097 9.12885871,12.1608665 8.57607177,12.1608665 C8.02328482,12.1608665 7.34765633,12.5443892 7.34765633,13.0557528 L7.34765633,16.0600142 C7.34765633,16.4435369 7.10197324,16.6992188 6.73344861,16.6992188 L2.86393997,16.6992188 C1.94262839,16.6992188 1.2669999,15.9960937 1.2669999,15.1012074 L1.2669999,9.0287642 C1.2669999,8.64524148 1.51268299,8.38955966 1.88120762,8.38955966 C2.24973225,8.38955966 2.49541534,8.64524148 2.49541534,9.0287642 L2.49541534,15.1012074 C2.49541534,15.2929687 2.61825689,15.4208097 2.86393997,15.4208097 L6.18066166,15.4208097 L6.18066166,13.0557528 C6.18066166,11.7773437 7.47049787,10.8824574 8.63749254,10.8824574 C9.80448721,10.8824574 11.1557442,11.7773437 11.1557442,13.0557528 L11.1557442,15.4208097 L14.5338866,15.4208097 C14.718149,15.4208097 14.8409905,15.4208097 14.8409905,15.0372869 L14.8409905,9.0287642 C14.8409905,8.64524148 15.0866736,8.38955966 15.4551982,8.38955966 C15.8237229,8.38955966 16.0694059,8.64524148 16.0694059,9.0287642 L16.0694059,15.1012074 C16.0079852,16.0600142 15.3937775,16.6992188 14.4724659,16.6992188 Z" id="形状" fill="#000000"></path>
                <rect id="矩形" fill="#D8D8D8" opacity="0" x="0" y="0" width="18" height="18"></rect>
            </g>
        </g>
    </g>
</svg>