<?xml version="1.0" encoding="UTF-8"?>
<svg width="18px" height="18px" viewBox="0 0 18 18" version="1.1" xmlns="http://www.w3.org/2000/svg" xmlns:xlink="http://www.w3.org/1999/xlink">
    <!-- Generator: Sketch 60.1 (88133) - https://sketch.com -->
    <title>D_my</title>
    <desc>Created with Sketch.</desc>
    <g id="首页" stroke="none" stroke-width="1" fill="none" fill-rule="evenodd">
        <g id="更多按钮-状态1" transform="translate(-265.000000, -236.000000)" fill="#000000" fill-rule="nonzero">
            <g id="D_my" transform="translate(265.000000, 236.000000)">
                <path d="M16.2766327,17.9873233 L1.5369924,17.9873233 C1.09356159,17.9873233 0.614656306,17.7496444 0.339729201,17.4022675 C0.0648020959,17.0548906 -0.050489916,16.5886743 0.0204590144,16.085892 L0.0293276307,16.0584675 C0.43728398,13.9742062 1.43943762,12.1367654 2.92049654,10.7289749 C4.4192927,9.31204285 6.26396489,8.47102515 8.25053494,8.3247612 L8.29487802,8.3247612 C9.90896619,8.3247612 11.2924703,8.5898646 12.5340766,9.12921291 C12.8622154,9.26633537 13.0307191,9.35775033 13.1903542,9.44002381 L13.3499893,9.52229728 L13.3765952,9.54058027 C15.7445157,10.9392293 17.3408666,13.252028 17.8729836,16.0401845 C17.9971443,16.5338253 17.8552464,17.0640321 17.4827645,17.447975 L17.44729,17.484541 C17.0482023,17.8136349 16.6579832,17.9873233 16.2766327,17.9873233 L16.2766327,17.9873233 Z M1.07582435,16.2504389 C1.06695574,16.3509954 1.05808712,16.5612498 1.16451052,16.6983723 L1.17337913,16.7075138 C1.23545945,16.7897872 1.41283177,16.8812022 1.5369924,16.8812022 L16.2766327,16.8812022 C16.3919247,16.8812022 16.5604284,16.7989287 16.7378007,16.6435233 C16.8264869,16.5429668 16.8619614,16.4149859 16.8353555,16.3052879 L16.8264869,16.2595804 C16.3653189,13.7822348 14.9552089,11.7345395 12.8533468,10.4821544 C12.7912665,10.45473 12.7380548,10.418164 12.6848431,10.3907395 C12.5340766,10.308466 12.4010474,10.235334 12.1261203,10.1256361 L12.1172516,10.1256361 C11.0175432,9.64113674 9.76706833,9.40345782 8.31261525,9.40345782 C6.57436646,9.54058027 4.96027829,10.2719 3.63885446,11.5242851 C2.33516787,12.7766701 1.44830624,14.4129981 1.07582435,16.2504389 Z" id="形状"></path>
                <path d="M8.90681255,9.33032584 C6.41473137,9.33032584 4.38381823,7.23692308 4.38381823,4.66816248 C4.38381823,2.09940187 6.41473137,0.00599910728 8.90681255,0.00599910728 C10.121813,0.00599910728 11.2658645,0.490498438 12.1172516,1.36808213 C12.9686388,2.24566582 13.4386755,3.41577741 13.4386755,4.67730397 C13.4386755,5.91140604 12.9686388,7.08151763 12.108383,7.96824282 C11.2392586,8.83668502 10.1040757,9.33032584 8.90681255,9.33032584 Z M8.90681255,1.09383723 C7.00006004,1.09383723 5.44805219,2.69359917 5.44805219,4.65902098 C5.44805219,6.62444279 7.00006004,8.22420473 8.90681255,8.22420473 C10.7869592,8.22420473 12.3656114,6.5878768 12.3656114,4.65902098 C12.3744415,2.66617468 10.8490395,1.09383723 8.90681255,1.09383723 L8.90681255,1.09383723 Z" id="形状"></path>
            </g>
        </g>
    </g>
</svg>