<?xml version="1.0" encoding="UTF-8"?>
<svg width="19px" height="18px" viewBox="0 0 19 18" version="1.1" xmlns="http://www.w3.org/2000/svg" xmlns:xlink="http://www.w3.org/1999/xlink">
    <!-- Generator: Sketch 60.1 (88133) - https://sketch.com -->
    <title>D_news</title>
    <desc>Created with Sketch.</desc>
    <g id="首页" stroke="none" stroke-width="1" fill="none" fill-rule="evenodd">
        <g id="更多按钮-状态1" transform="translate(-264.000000, -191.000000)" fill="#000000" fill-rule="nonzero">
            <g id="D_news" transform="translate(264.500000, 191.000000)">
                <path d="M8.97685547,15.7281175 C8.40243389,15.7281175 7.84317909,15.675631 7.29913612,15.586591 L3.36727013,17.9719651 L3.36727013,14.0007061 C1.3174354,12.5605168 0.00150991587,10.3532677 0.00150991587,7.87466196 C0.00150991587,3.53750751 4.01971154,0.0212289663 8.976878,0.0212289663 C13.9340445,0.0212289663 17.9522236,3.53753005 17.9522236,7.8746845 C17.9522236,12.2125376 13.9340219,15.7281175 8.97685547,15.7281175 Z M8.97685547,1.14316406 C4.6403771,1.14316406 1.12342248,4.15682091 1.12342248,7.8746845 C1.12342248,10.1558068 2.45039063,12.1676683 4.47536809,13.3855394 L4.43944561,15.9870117 L7.08026593,14.3997521 C7.68853666,14.5302359 8.32094351,14.6061824 8.97615685,14.6061824 C13.3140099,14.6061824 16.82959,11.5925255 16.82959,7.87466196 C16.830311,4.15751953 13.3147311,1.14316406 8.97685547,1.14316406 Z M13.4645508,9.00148738 C12.8425556,9.00148738 12.3377479,8.49737831 12.3377479,7.8746845 C12.3377479,7.25199069 12.8425556,6.74788161 13.4645508,6.74788161 C14.086546,6.74788161 14.5913537,7.2526893 14.5913537,7.8746845 C14.5913537,8.49667969 14.0865234,9.00148738 13.4645508,9.00148738 Z M8.97685547,9.00148738 C8.35555889,9.00148738 7.85005258,8.49737831 7.85005258,7.8746845 C7.85005258,7.25199069 8.35555889,6.74788161 8.97685547,6.74788161 C9.59885066,6.74788161 10.1036584,7.2526893 10.1036584,7.8746845 C10.1036584,8.49667969 9.59885066,9.00148738 8.97685547,9.00148738 Z M4.48918269,9.00148738 C3.86788612,9.00148738 3.36237981,8.49737831 3.36237981,7.8746845 C3.36237981,7.25199069 3.86788612,6.74788161 4.48918269,6.74788161 C5.11117788,6.74788161 5.61598558,7.2526893 5.61598558,7.8746845 C5.61598558,8.49667969 5.11117788,9.00148738 4.48918269,9.00148738 Z" id="形状"></path>
            </g>
        </g>
    </g>
</svg>