<?xml version="1.0" encoding="UTF-8"?>
<svg width="18px" height="18px" viewBox="0 0 18 18" version="1.1" xmlns="http://www.w3.org/2000/svg" xmlns:xlink="http://www.w3.org/1999/xlink">
    <!-- Generator: Sketch 60.1 (88133) - https://sketch.com -->
    <title>D_search</title>
    <desc>Created with Sketch.</desc>
    <g id="首页" stroke="none" stroke-width="1" fill="none" fill-rule="evenodd">
        <g id="更多按钮-状态1" transform="translate(-265.000000, -150.000000)" fill="#23292A" fill-rule="nonzero">
            <g id="D_search" transform="translate(265.000000, 150.000000)">
                <path d="M7.40444712,14.8707313 C3.32992788,14.8707313 0.0144230769,11.5381363 0.0144230769,7.44261437 C0.0144230769,3.34709246 3.32992788,0.0144974227 7.40444712,0.0144974227 C11.4789663,0.0144974227 14.7944712,3.34709246 14.7944712,7.44261437 C14.7944712,11.5399485 11.4807692,14.8707313 7.40444712,14.8707313 Z M7.40444712,1.24134182 C4.00240385,1.24134182 1.23497596,4.02303479 1.23497596,7.44261437 C1.23497596,10.8621939 4.00240385,13.6438869 7.40444712,13.6438869 C10.8064904,13.6438869 13.5739183,10.8621939 13.5739183,7.44261437 C13.5739183,4.02303479 10.8064904,1.24134182 7.40444712,1.24134182 Z" id="形状"></path>
                <path d="M16.9344952,17.8209568 L12.2217548,13.0857361 C11.9873798,12.850153 11.9873798,12.4695957 12.2217548,12.2340126 C12.4561298,11.9984294 12.8347356,11.9984294 13.0691106,12.2340126 L17.7800481,16.9692332 C18.0144231,17.2048164 18.0144231,17.5853737 17.7800481,17.8209568 C17.547476,18.0565399 17.1670673,18.0565399 16.9344952,17.8209568 L16.9344952,17.8209568 Z" id="路径"></path>
            </g>
        </g>
    </g>
</svg>