<?xml version="1.0" encoding="UTF-8"?>
<svg width="18px" height="18px" viewBox="0 0 18 18" version="1.1" xmlns="http://www.w3.org/2000/svg" xmlns:xlink="http://www.w3.org/1999/xlink">
    <!-- Generator: Sketch 60.1 (88133) - https://sketch.com -->
    <title>D_Shopping Cart</title>
    <desc>Created with Sketch.</desc>
    <g id="首页" stroke="none" stroke-width="1" fill="none" fill-rule="evenodd">
        <g id="更多按钮-状态1" transform="translate(-265.000000, -107.000000)" fill="#1B1B1B" fill-rule="nonzero">
            <g id="D_Shopping-Cart" transform="translate(265.000000, 107.000000)">
                <path d="M5.6061801,15.4194494 C4.90370484,15.4194494 4.33379618,15.9884955 4.33379618,16.6918333 C4.33379618,17.3942546 4.90370486,17.9642172 5.6061801,17.9642172 C6.30865535,17.9642172 6.87858199,17.3942546 6.87858199,16.6918333 C6.87854606,15.9884955 6.3086194,15.4194494 5.6061801,15.4194494 Z M5.6061801,16.8410583 C5.5238943,16.8410583 5.45693713,16.7740831 5.45693713,16.6918153 C5.45693713,16.6095115 5.5238943,16.5425723 5.6061801,16.5425723 C5.68848386,16.5425723 5.75544103,16.6095115 5.75544103,16.6918153 C5.75542307,16.7741011 5.68848388,16.8410583 5.6061801,16.8410583 Z" id="形状"></path>
                <path d="M14.9370914,15.4194494 C14.2345981,15.4194494 13.6646356,15.9884955 13.6646356,16.6918333 C13.6646356,17.3942546 14.2345981,17.9642172 14.9370914,17.9642172 C15.6395666,17.9642172 16.2094393,17.3942546 16.2094393,16.6918333 C16.2094393,15.9884955 15.6395666,15.4194494 14.9370914,15.4194494 Z M14.9370914,16.8410583 C14.8547696,16.8410583 14.7877765,16.7740831 14.7877765,16.6918153 C14.7877765,16.6095115 14.8547696,16.5425723 14.9370914,16.5425723 C15.0193592,16.5425723 15.0862984,16.6095115 15.0862984,16.6918153 C15.0862984,16.7741011 15.0193592,16.8410583 14.9370914,16.8410583 Z" id="形状"></path>
                <path d="M16.5627525,3.01528303 L3.45549997,3.01528303 C3.29585223,2.02490633 3.18450853,1.32969107 3.16333956,1.18661189 C3.09248285,0.708908593 2.82979366,0.337750946 2.42364791,0.141533737 C2.14929602,0.00898512585 1.89458563,0 1.83089905,0 C1.83073731,0 1.83057557,0 1.83043182,0 L0.561570059,0 C0.251439401,0 -4.03902439e-07,0.25142184 -4.03902439e-07,0.56157048 C-4.03902439e-07,0.87171912 0.251439401,1.12314094 0.561570059,1.12314094 L1.82482509,1.12314094 C1.84586827,1.12454262 1.90322932,1.13352775 1.95077861,1.16118397 C1.97683548,1.17633289 2.03105174,1.20788867 2.05232851,1.35121942 C2.14552226,1.98096903 3.88831355,12.7097685 4.00299972,13.4157299 C4.01428503,13.529266 4.06055845,13.801713 4.24989306,14.0738546 C4.45529308,14.3691059 4.86602122,14.7210713 5.65626319,14.7210713 L16.0917881,14.7210713 C16.4019367,14.7210713 16.6533585,14.4696315 16.6533585,14.1595008 C16.6533585,13.8493342 16.4019367,13.5979303 16.0917881,13.5979303 L5.65628117,13.5979304 C5.49823278,13.5979304 5.28860975,13.572772 5.1875091,13.4528385 C5.14130758,13.3980113 5.12610475,13.3352232 5.12198956,13.3131558 C5.12225912,13.2879615 5.12012065,13.2878177 5.11507101,13.2567471 C5.11160275,13.2353985 5.04469949,12.823628 4.93759677,12.1638681 L15.3097945,12.1638681 C16.1671374,12.1638681 16.7730764,11.6988158 16.9722587,10.887944 C16.9761403,10.8721841 16.979321,10.8562804 16.9818009,10.8402869 L17.965924,4.51145055 C17.9703626,4.4828958 17.972591,4.45405355 17.972591,4.42515739 C17.972591,3.64774617 17.3401098,3.01528303 16.5627525,3.01528303 Z M15.8760552,10.641428 C15.8123506,10.8819599 15.6874034,11.0407092 15.3097585,11.0407092 L4.75525257,11.0407092 C4.44077312,9.10304842 3.98184873,6.27357783 3.63681983,4.13842397 L16.5627525,4.13842397 C16.7100008,4.13842397 16.8316774,4.2500552 16.8476529,4.39315233 L15.8760552,10.641428 Z" id="形状"></path>
            </g>
        </g>
    </g>
</svg>