<?xml version="1.0" encoding="UTF-8"?>
<svg width="22px" height="5px" viewBox="0 0 22 5" version="1.1" xmlns="http://www.w3.org/2000/svg" xmlns:xlink="http://www.w3.org/1999/xlink">
    <!-- Generator: Sketch 60.1 (88133) - https://sketch.com -->
    <title>dian</title>
    <desc>Created with Sketch.</desc>
    <g id="首页" stroke="none" stroke-width="1" fill="none" fill-rule="evenodd">
        <g id="店铺详情页-店铺简介1" transform="translate(-338.000000, -38.000000)" fill-rule="nonzero">
            <g id="dian" transform="translate(338.000000, 29.000000)">
                <rect id="矩形" fill="#D8D8D8" opacity="0" x="0" y="0" width="22" height="22"></rect>
                <path d="M17.6,11.2015125 C17.6,12.4165389 18.5849736,13.4015125 19.8,13.4015125 C21.0150264,13.4015125 22,12.4165389 22,11.2015125 C22,9.98648605 21.0150264,9.0015125 19.8,9.0015125 C18.5849736,9.0015125 17.6,9.98648605 17.6,11.2015125 Z" id="路径" fill="#FFFFFF"></path>
                <path d="M8.8,11.2015125 C8.8,12.4165389 9.78497355,13.4015125 11,13.4015125 C12.2150264,13.4015125 13.2,12.4165389 13.2,11.2015125 C13.2,9.98648605 12.2150264,9.0015125 11,9.0015125 C9.78497355,9.0015125 8.8,9.98648605 8.8,11.2015125 L8.8,11.2015125 Z" id="路径" fill="#FFFFFF"></path>
                <path d="M0,11.2015125 C0,12.4165389 0.98497355,13.4015125 2.2,13.4015125 C3.41502645,13.4015125 4.4,12.4165389 4.4,11.2015125 C4.4,9.98648605 3.41502645,9.0015125 2.2,9.0015125 C0.98497355,9.0015125 0,9.98648605 0,11.2015125 Z" id="路径" fill="#FFFFFF"></path>
            </g>
        </g>
    </g>
</svg>