<?xml version="1.0" encoding="UTF-8"?>
<svg width="7px" height="11px" viewBox="0 0 7 11" version="1.1" xmlns="http://www.w3.org/2000/svg" xmlns:xlink="http://www.w3.org/1999/xlink">
    <!-- Generator: Sketch 60.1 (88133) - https://sketch.com -->
    <title>home_right-1</title>
    <desc>Created with Sketch.</desc>
    <g id="首页" stroke="none" stroke-width="1" fill="none" fill-rule="evenodd">
        <g transform="translate(-353.000000, -78.000000)" fill="#FFFFFF" fill-rule="nonzero" id="home_right-1">
            <g transform="translate(353.000000, 78.000000)">
                <path d="M0.853030427,0.841794791 C0.660115315,0.649230479 0.660115315,0.337019773 0.853030427,0.144455461 L0.853030427,0.144455461 C1.04593478,-0.0481518203 1.35865115,-0.0481518203 1.55153399,0.144455461 L6.563647,5.14825942 C6.75656211,5.34082373 6.75656211,5.65301295 6.563647,5.84560949 L6.563647,5.84560949 C6.37074265,6.03818454 6.05802627,6.03818454 5.86513268,5.84560949 L0.853030427,0.841794791 L0.853030427,0.841794791 Z M5.86512192,5.15440394 C6.05801551,4.96179666 6.37073189,4.96179666 6.56363624,5.15440394 L6.56363624,5.15440394 C6.75655135,5.34696825 6.75655135,5.65914673 6.56363624,5.85175401 L1.55152323,10.8555687 C1.35864039,11.0481438 1.04592402,11.0481438 0.853019668,10.8555687 L0.853019668,10.8555687 C0.660104555,10.6629722 0.660104555,10.3507937 0.853019668,10.1581972 L5.86512192,5.15440394 L5.86512192,5.15440394 Z" id="形状"></path>
            </g>
        </g>
    </g>
</svg>