<?xml version="1.0" encoding="UTF-8"?>
<svg width="20px" height="20px" viewBox="0 0 20 20" version="1.1" xmlns="http://www.w3.org/2000/svg" xmlns:xlink="http://www.w3.org/1999/xlink">
    <!-- Generator: Sketch 60.1 (88133) - https://sketch.com -->
    <title>classification_search2</title>
    <desc>Created with Sketch.</desc>
    <g id="找药" stroke="none" stroke-width="1" fill="none" fill-rule="evenodd">
        <g id="三级分类展示-状态1" transform="translate(-299.000000, -31.000000)" fill-rule="nonzero">
            <g id="classification_search2" transform="translate(298.000000, 30.000000)">
                <rect id="矩形" fill="#D8D8D8" opacity="0" x="0" y="0" width="22" height="22"></rect>
                <path d="M20.7451898,19.5280607 L15.4589685,14.2760446 C16.6050845,12.8747153 17.2926168,11.0847571 17.2926168,9.13437362 C17.2926168,4.64189419 13.6454226,1 9.14633128,1 C4.64723999,1 1,4.64189417 1,9.13437359 C1,13.626853 4.64719426,17.2687472 9.14628556,17.2687472 C11.0706352,17.2687472 12.8390592,16.6024056 14.2329686,15.4883118 L19.5294126,20.7504673 C19.697871,20.9172868 19.9168943,21 20.1372898,21 C20.3591032,21 20.5795216,20.9158937 20.749375,20.7462654 C21.0849423,20.4098176 21.0835244,19.8644857 20.7451898,19.5280607 Z M2.72510868,9.13437359 C2.72510868,5.59889676 5.60561846,2.72256811 9.14628556,2.72256811 C12.6869527,2.72256811 15.5674624,5.59891959 15.5674624,9.13437359 C15.5674624,12.6698276 12.6869984,15.5462019 9.14630842,15.5462019 C5.60561844,15.5462019 2.72510868,12.6698504 2.72510868,9.13437359 Z" id="形状" fill="#FFFFFF"></path>
            </g>
        </g>
    </g>
</svg>