<?xml version="1.0" encoding="UTF-8"?>
<svg width="10px" height="18px" viewBox="0 0 10 18" version="1.1" xmlns="http://www.w3.org/2000/svg" xmlns:xlink="http://www.w3.org/1999/xlink">
    <!-- Generator: Sketch 60.1 (88133) - https://sketch.com -->
    <title>fanhui</title>
    <desc>Created with Sketch.</desc>
    <g id="首页" stroke="none" stroke-width="1" fill="none" fill-rule="evenodd">
        <g id="店铺详情页-店铺简介1" transform="translate(-15.000000, -31.000000)" fill-rule="nonzero">
            <g id="fanhui" transform="translate(9.000000, 29.000000)">
                <rect id="矩形" fill="#D8D8D8" opacity="0" x="0" y="0" width="22" height="22"></rect>
                <g id="home_right-1" transform="translate(11.000000, 11.000000) rotate(180.000000) translate(-11.000000, -11.000000) translate(6.000000, 2.000000)" fill="#FFFFFF">
                    <path d="M0.395867972,1.37748239 C0.0801886976,1.06237715 0.0801886976,0.551486901 0.395867972,0.236381663 L0.395867972,0.236381663 C0.71152964,-0.0787938877 1.22324734,-0.0787938877 1.53887379,0.236381663 L9.74051327,8.4244245 C10.0561925,8.73952974 10.0561925,9.25038483 9.74051327,9.5655428 L9.74051327,9.5655428 C9.4248516,9.88066562 8.9131339,9.88066562 8.59748984,9.5655428 L0.395867972,1.37748239 L0.395867972,1.37748239 Z M8.59747224,8.43447917 C8.9131163,8.11930362 9.424834,8.11930362 9.74049566,8.43447917 L9.74049566,8.43447917 C10.0561749,8.74958441 10.0561749,9.26042192 9.74049566,9.57559747 L1.53885619,17.7636579 C1.22322973,18.0787807 0.711512033,18.0787807 0.395850365,17.7636579 L0.395850365,17.7636579 C0.0801710904,17.4484999 0.0801710904,16.9376624 0.395850365,16.6225044 L8.59747224,8.43447917 L8.59747224,8.43447917 Z" id="形状"></path>
                </g>
            </g>
        </g>
    </g>
</svg>