<?xml version="1.0" encoding="UTF-8"?>
<svg width="22px" height="22px" viewBox="0 0 22 22" version="1.1" xmlns="http://www.w3.org/2000/svg" xmlns:xlink="http://www.w3.org/1999/xlink">
    <!-- Generator: Sketch 60.1 (88133) - https://sketch.com -->
    <title>home_scan</title>
    <desc>Created with Sketch.</desc>
    <g id="首页" stroke="none" stroke-width="1" fill="none" fill-rule="evenodd">
        <g transform="translate(-15.000000, -31.000000)" fill="#FFFFFF" fill-rule="nonzero" id="home_scan">
            <g transform="translate(15.000000, 31.000000)">
                <path d="M0.733341518,8.06665848 C1.46665848,8.06665848 1.46665848,7.33334152 1.46665848,7.33334152 L1.46665848,2.94360491 C1.46665848,2.1281317 2.12665848,1.46665848 2.94360491,1.46665848 L7.33334152,1.46665848 C7.33334152,1.46665848 8.06665848,1.46665848 8.06665848,0.733341518 C8.06665848,0 7.33334152,0 7.33334152,0 L2.9421317,0 C1.31560491,0 0,1.31705357 0,2.9421317 L0,7.33334152 C0,7.33334152 0,8.06665848 0.733341518,8.06665848 Z M4.4,11 C4.4,11.4047902 4.72852679,11.7333415 5.13334152,11.7333415 L16.8666585,11.7333415 C17.2714732,11.7333415 17.6,11.4048147 17.6,11 C17.6,10.5952098 17.2714732,10.2666585 16.8666585,10.2666585 L5.13334152,10.2666585 C4.72852679,10.2666585 4.4,10.5951853 4.4,11 L4.4,11 Z M19.0578683,0 L14.6666585,0 C14.6666585,0 13.9333415,0 13.9333415,0.733341518 C13.9333415,1.46665848 14.6666585,1.46665848 14.6666585,1.46665848 L19.0563951,1.46665848 C19.8733415,1.46665848 20.5333415,2.1281317 20.5333415,2.94360491 L20.5333415,7.33334152 C20.5333415,7.33334152 20.5333415,8.06665848 21.2666585,8.06665848 C22,8.06665848 22,7.33334152 22,7.33334152 L22,2.9421317 C22,1.31707813 20.6844196,0 19.0578683,0 Z M7.33334152,20.5333415 L2.94360491,20.5333415 C2.12665848,20.5333415 1.46665848,19.8718683 1.46665848,19.0563951 L1.46665848,14.6666585 C1.46665848,14.6666585 1.46665848,13.9333415 0.733341518,13.9333415 C0,13.9333415 0,14.6666585 0,14.6666585 L0,19.0578683 C0,20.6829219 1.31558036,22 2.9421317,22 L7.33334152,22 C7.33334152,22 8.06665848,22 8.06665848,21.2666585 C8.06665848,20.5333415 7.33334152,20.5333415 7.33334152,20.5333415 L7.33334152,20.5333415 Z M21.2666585,13.9333415 C20.5333415,13.9333415 20.5333415,14.6666585 20.5333415,14.6666585 L20.5333415,19.0563951 C20.5333415,19.8718683 19.8733415,20.5333415 19.0563951,20.5333415 L14.6666585,20.5333415 C14.6666585,20.5333415 13.9333415,20.5333415 13.9333415,21.2666585 C13.9333415,22 14.6666585,22 14.6666585,22 L19.0578683,22 C20.6843951,22 22,20.6829464 22,19.0578683 L22,14.6666585 C22,14.6666585 22,13.9333415 21.2666585,13.9333415 L21.2666585,13.9333415 Z" id="形状"></path>
            </g>
        </g>
    </g>
</svg>