<?xml version="1.0" encoding="UTF-8"?>
<svg width="22px" height="22px" viewBox="0 0 22 22" version="1.1" xmlns="http://www.w3.org/2000/svg" xmlns:xlink="http://www.w3.org/1999/xlink">
    <!-- Generator: Sketch 60.1 (88133) - https://sketch.com -->
    <title>home_messages</title>
    <desc>Created with Sketch.</desc>
    <g id="首页" stroke="none" stroke-width="1" fill="none" fill-rule="evenodd">
        <g transform="translate(-338.000000, -31.000000)" fill="#FFFFFF" fill-rule="nonzero" id="home_messages">
            <g transform="translate(338.000000, 31.000000)">
                <path d="M16.5,8.25 C15.741,8.25 15.125,8.866 15.125,9.625 C15.125,10.384 15.741,11 16.5,11 C17.259,11 17.875,10.384 17.875,9.625 C17.875,8.866 17.259,8.25 16.5,8.25 L16.5,8.25 Z M11,17.875 C10.197,17.875 9.4215,17.7815 8.67625,17.6226875 L5.4395,19.5683125 L5.4828125,16.379 C3.001625,14.887125 1.375,12.420375 1.375,9.625 C1.375,5.0689375 5.68425,1.375 11,1.375 C16.31575,1.375 20.625,5.0689375 20.625,9.625 C20.625,14.18175 16.31575,17.875 11,17.875 L11,17.875 Z M11,0 C4.92525,0 0,4.3099375 0,9.625 C0,12.6630625 1.6121875,15.368375 4.125,17.1318125 L4.125,22 L8.9436875,19.0760625 C9.6105625,19.1860625 10.2966875,19.25 11,19.25 C17.07475,19.25 22,14.94075 22,9.625 C22,4.3099375 17.07475,0 11,0 L11,0 Z M5.5,8.25 C4.741,8.25 4.125,8.866 4.125,9.625 C4.125,10.384 4.741,11 5.5,11 C6.259,11 6.875,10.384 6.875,9.625 C6.875,8.866 6.259,8.25 5.5,8.25 L5.5,8.25 Z M11,8.25 C10.241,8.25 9.625,8.866 9.625,9.625 C9.625,10.384 10.241,11 11,11 C11.759,11 12.375,10.384 12.375,9.625 C12.375,8.866 11.759,8.25 11,8.25 L11,8.25 Z" id="形状"></path>
            </g>
        </g>
    </g>
</svg>