<?xml version="1.0" encoding="UTF-8"?>
<svg width="16px" height="16px" viewBox="0 0 16 16" version="1.1" xmlns="http://www.w3.org/2000/svg" xmlns:xlink="http://www.w3.org/1999/xlink">
    <!-- Generator: Sketch 60.1 (88133) - https://sketch.com -->
    <title>Unchecked</title>
    <desc>Created with Sketch.</desc>
    <g id="登录、注册" stroke="none" stroke-width="1" fill="none" fill-rule="evenodd">
        <g id="登录-状态1" transform="translate(-38.000000, -331.000000)" fill="#ADADAD" fill-rule="nonzero">
            <g id="Unchecked" transform="translate(38.000000, 331.000000)">
                <path d="M11.5636364,4.85090909 L6.4,10.0145455 L4.43636364,8.05090909 C4.32341177,7.86001652 4.1036917,7.75946091 3.88539373,7.79875592 C3.66709577,7.83805092 3.49623275,8.00891394 3.45693774,8.2272119 C3.41764273,8.44550986 3.51819834,8.66522994 3.70909091,8.77818181 L6.04363636,11.12 C6.25069138,11.3051956 6.56385407,11.3051956 6.77090909,11.12 L12.3054545,5.57818181 C12.4288964,5.36956086 12.3953562,5.10382106 12.2239494,4.93241426 C12.0525426,4.76100746 11.7868028,4.72746727 11.5781818,4.85090909 L11.5636364,4.85090909 Z" id="路径"></path>
                <path d="M8,0 C3.581722,0 0,3.581722 0,8 C0,12.418278 3.581722,16 8,16 C12.418278,16 16,12.418278 16,8 C16,5.87826808 15.1571453,3.84343678 13.6568542,2.34314575 C12.1565632,0.842854723 10.1217319,0 8,0 Z M8,14.9309129 C4.17216461,14.9309129 1.06909091,11.8278354 1.06909091,8 C1.06909091,4.17216461 4.17216461,1.06909091 8,1.06909091 C11.8278354,1.06909091 14.9309129,4.17216461 14.9309129,8 C14.9328416,9.83878314 14.2032435,11.60281 12.9030268,12.9030268 C11.60281,14.2032435 9.83878314,14.9328416 8,14.9309129 Z" id="形状"></path>
            </g>
        </g>
    </g>
</svg>