<?xml version="1.0" encoding="UTF-8"?>
<svg width="18px" height="18px" viewBox="0 0 18 18" version="1.1" xmlns="http://www.w3.org/2000/svg" xmlns:xlink="http://www.w3.org/1999/xlink">
    <!-- Generator: Sketch 60.1 (88133) - https://sketch.com -->
    <title>shopping cart-sel</title>
    <desc>Created with Sketch.</desc>
    <g id="购物车" stroke="none" stroke-width="1" fill="none" fill-rule="evenodd">
        <g id="购物车-状态1" transform="translate(-15.000000, -275.000000)" fill-rule="nonzero">
            <g id="shopping-cart-sel" transform="translate(15.000000, 275.000000)">
                <path d="M9,0 C4.02943725,0 0,4.02943725 0,9 C0,13.9705627 4.02943725,18 9,18 C13.9705627,18 18,13.9705627 18,9 C18,6.61305159 17.0517884,4.32386638 15.363961,2.63603897 C13.6761336,0.948211563 11.3869484,0 9,0 Z" id="形状" fill="#3A74F1"></path>
                <path d="M13.0090909,5.45727273 L7.2,11.2663636 L4.9909091,9.05727273 C4.86383824,8.84251859 4.61665316,8.72939353 4.37106795,8.77360041 C4.12548274,8.81780728 3.93326184,9.01002818 3.88905496,9.25561339 C3.84484808,9.50119859 3.95797313,9.74838368 4.17272727,9.87545454 L6.7990909,12.51 C7.03202781,12.7183451 7.38433583,12.7183451 7.61727273,12.51 L13.8436364,6.27545454 C13.9825084,6.04075597 13.9447757,5.7417987 13.751943,5.54896604 C13.5591104,5.35613339 13.2601531,5.31840067 13.0254545,5.45727273 L13.0090909,5.45727273 Z" id="路径" fill="#FFFFFF"></path>
            </g>
        </g>
    </g>
</svg>