<?xml version="1.0" encoding="UTF-8"?>
<svg width="126px" height="91px" viewBox="0 0 126 91" version="1.1" xmlns="http://www.w3.org/2000/svg" xmlns:xlink="http://www.w3.org/1999/xlink">
    <!-- Generator: Sketch 60.1 (88133) - https://sketch.com -->
    <title>shopping cart-bitmap_sc</title>
    <desc>Created with Sketch.</desc>
    <g id="购物车" stroke="none" stroke-width="1" fill="none" fill-rule="evenodd">
        <g id="购物车-空或未登录状态1" transform="translate(-125.000000, -106.000000)" fill-rule="nonzero">
            <g id="shopping-cart-bitmap_sc" transform="translate(122.000000, 101.000000)">
                <rect id="矩形" x="0" y="0" width="132" height="100"></rect>
                <path d="M114.998825,64.2791078 L93.6527683,64.2791078 L93.5114189,40.2208922 L96.7624549,40.2208922 C102.67086,40.2208922 107.505009,35.9621397 107.505009,30.7569978 C107.505009,25.5518559 102.67086,21.2931034 96.7624549,21.2931034 L22.8443059,21.2931034 C16.9359012,21.2931034 12.1017519,25.5518559 12.1017519,30.7569978 C12.1017519,35.9621397 16.9359012,40.2208922 22.8443059,40.2208922 L25.2962008,40.2208922 L25.1831213,40.2208922 C32.6180994,40.3205121 38.6113138,45.6750839 38.6113138,52.25 C38.6113138,58.8249161 32.6180994,64.1794879 25.1831213,64.2791078 L25.2962008,64.2791078 L18.0873816,64.2791078 C12.1789769,64.2791078 7.34482759,68.5378603 7.34482759,73.7430022 C7.34482759,78.9481441 12.1789769,83.2068966 18.0873816,83.2068966 L114.998825,83.2068966 C120.90723,83.2068966 125.741379,78.9481441 125.741379,73.7430022 C125.741379,68.5129553 120.90723,64.2791078 114.998825,64.2791078 Z" id="路径" fill="#D8E4FF"></path>
                <circle id="椭圆形" fill="#F0F4FF" opacity="0.782249814" cx="65.4568966" cy="52.25" r="30.9568966"></circle>
                <path d="M102.654222,91.8965517 L29.3457781,91.8965517 C28.5929464,91.8964744 27.9827586,91.6533414 27.9827586,91.3534483 C27.9827586,91.0535552 28.5929464,90.8104221 29.3457781,90.8103448 L102.654222,90.8103448 C103.407054,90.8104221 104.017241,91.0535552 104.017241,91.3534483 C104.017241,91.6533414 103.407054,91.8964744 102.654222,91.8965517 L102.654222,91.8965517 Z M115.667297,91.8965517 L108.660289,91.8965517 C107.895634,91.8964744 107.275862,91.6533414 107.275862,91.3534483 C107.275862,91.0535552 107.895634,90.8104221 108.660289,90.8103448 L115.667297,90.8103448 C116.431953,90.8104221 117.051724,91.0535552 117.051724,91.3534483 C117.051724,91.6533414 116.431953,91.8964744 115.667297,91.8965517 L115.667297,91.8965517 Z M89.9312865,88.637931 L33.3790583,88.637931 C32.7983025,88.6378538 32.3275862,88.3947207 32.3275862,88.0948276 C32.3275862,87.7949345 32.7983025,87.5518014 33.3790583,87.5517241 L89.9312865,87.5517241 C90.5120423,87.5518014 90.9827586,87.7949345 90.9827586,88.0948276 C90.9827586,88.3947207 90.5120423,88.6378538 89.9312865,88.637931 L89.9312865,88.637931 Z M101.546607,88.637931 L94.5395997,88.637931 C93.7749439,88.6378538 93.1551724,88.3947207 93.1551724,88.0948276 C93.1551724,87.7949345 93.7749439,87.5518014 94.5395997,87.5517241 L101.546607,87.5517241 C102.311263,87.5518014 102.931034,87.7949345 102.931034,88.0948276 C102.931034,88.3947207 102.311263,88.6378538 101.546607,88.637931 L101.546607,88.637931 Z M127.615061,95.1551724 L120.609077,95.1551724 C120.114328,95.1552224 119.657107,95.0517184 119.409696,94.8836611 C119.162285,94.7156038 119.162285,94.5085342 119.409696,94.3404768 C119.657107,94.1724195 120.114328,94.0689155 120.609077,94.0689655 L127.615061,94.0689655 C128.10981,94.0689155 128.567031,94.1724195 128.814442,94.3404768 C129.061853,94.5085342 129.061853,94.7156038 128.814442,94.8836611 C128.567031,95.0517184 128.10981,95.1552224 127.615061,95.1551724 L127.615061,95.1551724 Z M11.3908222,95.1551724 L4.38432622,95.1551724 C3.61972626,95.1550951 3,94.9119621 3,94.612069 C3,94.3121759 3.61972626,94.0690428 4.38432622,94.0689655 L11.3908222,94.0689655 C11.8856068,94.0689155 12.3428611,94.1724195 12.5902902,94.3404768 C12.8377193,94.5085342 12.8377193,94.7156038 12.5902902,94.8836611 C12.3428611,95.0517184 11.8856068,95.1552224 11.3908222,95.1551724 L11.3908222,95.1551724 Z M23.3398117,91.8965517 L16.3333157,91.8965517 C15.8385312,91.8966017 15.3812768,91.7930977 15.1338477,91.6250404 C14.8864186,91.4569831 14.8864186,91.2499135 15.1338477,91.0818562 C15.3812768,90.9137988 15.8385312,90.8102948 16.3333157,90.8103448 L23.3398117,90.8103448 C24.1044117,90.8104221 24.7241379,91.0535552 24.7241379,91.3534483 C24.7241379,91.6533414 24.1044117,91.8964744 23.3398117,91.8965517 L23.3398117,91.8965517 Z M50.5951416,95.1551724 L48.7990266,95.1551724 C48.1005856,95.1550951 47.5344828,94.9119621 47.5344828,94.612069 C47.5344828,94.3121759 48.1005856,94.0690428 48.7990266,94.0689655 L50.6141146,94.0689655 C51.0660867,94.0689155 51.4837759,94.1724195 51.7097956,94.3404768 C51.9358153,94.5085342 51.9358153,94.7156038 51.7097956,94.8836611 C51.4837759,95.0517184 51.0660867,95.1552224 50.6141146,95.1551724 L50.5951416,95.1551724 Z M116.979502,95.1551724 L56.2969569,95.1551724 C55.8829124,95.1552224 55.5002739,95.0517184 55.2932208,94.8836611 C55.0861678,94.7156038 55.0861678,94.5085342 55.2932208,94.3404768 C55.5002739,94.1724195 55.8829124,94.0689155 56.2969569,94.0689655 L116.979502,94.0689655 C117.619333,94.0690428 118.137931,94.3121759 118.137931,94.612069 C118.137931,94.9119621 117.619333,95.1550951 116.979502,95.1551724 L116.979502,95.1551724 Z M17.4217565,95.1551724 C16.6555285,95.1550951 16.0344828,94.9119621 16.0344828,94.612069 C16.0344828,94.3121759 16.6555285,94.0690428 17.4217565,94.0689655 L43.9740801,94.0689655 C44.4699182,94.0689155 44.9281461,94.1724195 45.176102,94.3404768 C45.4240579,94.5085342 45.4240579,94.7156038 45.176102,94.8836611 C44.9281461,95.0517184 44.4699182,95.1552224 43.9740801,95.1551724 L17.4217565,95.1551724 Z" id="形状" fill="#9BBCFF" opacity="0.901367188"></path>
                <path d="M109.648846,18.0531515 C109.069397,17.944927 108.509234,18.3179725 108.386209,18.8940165 C108.263183,19.4700605 108.622147,20.03909 109.195333,20.1766402 C109.768519,20.3141905 110.346956,19.9701138 110.499162,19.4010723 C110.575316,19.1090091 110.527144,18.7984788 110.366078,18.5431557 C110.205011,18.2878327 109.945402,18.1104714 109.648846,18.0531515 L109.648846,18.0531515 Z" id="路径" fill="#FFFFFF"></path>
                <path d="M68.6724138,52.2068966 L68.6724138,54.4655172 L70.9310345,54.4655172 L70.9310345,52.2068966 L68.6724138,52.2068966 Z" id="矩形" stroke="#B6EDEB" transform="translate(69.801724, 53.336207) rotate(45.000000) translate(-69.801724, -53.336207) "></path>
                <polygon id="矩形" fill-opacity="0.47" fill="#83ABDF" transform="translate(41.560345, 14.232759) rotate(45.000000) translate(-41.560345, -14.232759) " points="39.9310345 12.6034483 43.1896552 12.6034483 43.1896552 15.862069 39.9310345 15.862069 39.9310345 14.619791"></polygon>
                <g id="购物车" opacity="0.897391183" transform="translate(65.456897, 52.793103) rotate(-20.000000) translate(-65.456897, -52.793103) translate(44.275862, 32.155172)" fill="#9BB9FC">
                    <path d="M13.3137931,38.1258621 C13.3137931,39.7969995 14.6685177,41.1517241 16.3396552,41.1517241 C18.0107926,41.1517241 19.3655172,39.7969995 19.3655172,38.1258621 C19.3655172,36.4547246 18.0107926,35.1 16.3396552,35.1 C14.6685177,35.1 13.3137931,36.4547246 13.3137931,38.1258621 Z" id="路径"></path>
                    <path d="M31.4689655,38.1258621 C31.4689655,39.7969995 32.8236901,41.1517241 34.4948276,41.1517241 C36.1659651,41.1517241 37.5206897,39.7969995 37.5206897,38.1258621 C37.5206897,36.4547246 36.1659651,35.1 34.4948276,35.1 C32.8236901,35.1 31.4689655,36.4547246 31.4689655,38.1258621 L31.4689655,38.1258621 Z" id="路径"></path>
                    <path d="M39.239163,5.85348876 L9.67758332,5.85348876 L9.2016366,3.10804837 C8.88023275,1.30939165 7.28465291,-0.00215597156 5.42050432,1.13686838e-13 L1.5336061,1.13686838e-13 C0.686618839,1.13686838e-13 -1.13686838e-13,0.672570402 -1.13686838e-13,1.50222476 C-1.13686838e-13,2.33187911 0.686618839,3.00444685 1.5336061,3.00444685 L5.42050432,3.00444685 C5.79731881,2.99892599 6.12237424,3.26243227 6.18730737,3.62605599 L10.5765938,28.3350194 C10.8865369,30.1439719 12.4851529,31.4689655 14.3577261,31.4689655 L37.5204665,31.4689655 C38.3674537,31.4689655 39.0540726,30.7963978 39.0540726,29.9667434 C39.0540726,29.1370891 38.3674537,28.4645213 37.5204665,28.4645213 L14.2519601,28.4645213 C13.8284665,28.4645213 13.4851571,28.1282375 13.4851571,27.7134103 L12.9298859,24.5535638 C13.2127655,24.6380655 13.506717,24.6816922 13.8024549,24.6830657 L36.7536634,24.6830657 C38.1844157,24.6358312 39.3915355,23.6254021 39.6622267,22.2484299 L42.3063752,9.29823942 C42.4800747,8.41739612 42.2428334,7.5066045 41.6595341,6.81495504 C41.0762347,6.12330558 40.2079136,5.72317231 39.2920459,5.72398685 L39.239163,5.85348876 Z" id="路径"></path>
                </g>
                <path d="M59.7187454,41.2028793 L79.1631476,41.4781013 C80.2676065,41.4937342 81.1502744,42.4017479 81.1346415,43.5062068 C81.1325017,43.6573846 81.1132262,43.8078323 81.0771844,43.9546666 L79.2851551,51.2553928 C79.0218447,52.3281189 77.9387731,52.9842801 76.866047,52.7209698 C76.7593515,52.6947804 76.6549953,52.6598442 76.5540377,52.6165157 L58.9016647,45.0405675 C57.8866269,44.6049392 57.4169228,43.4289419 57.8525511,42.4139041 C58.1719975,41.6695766 58.9088453,41.1914158 59.7187454,41.2028793 Z" id="矩形" fill="#E7ECFC" opacity="0.775134859" transform="translate(65.651577, 47.303623) rotate(-21.000000) translate(-65.651577, -47.303623) "></path>
                <g id="编组" transform="translate(19.293103, 5.000000)" fill="#9BB9FC">
                    <path d="M64.6316109,0.318027728 L63.1798681,1.79428821 L61.7292444,0.318027728 C61.4991069,0.0550098017 61.1446394,-0.0567459288 60.8085468,0.0277521967 C60.4724542,0.112250322 60.2100374,0.379098918 60.1269426,0.720867598 C60.0438479,1.06263628 60.1537476,1.42309016 60.4123973,1.65711438 L61.8642261,3.13337486 L60.409126,4.61191136 C60.0817452,4.98734181 60.0985564,5.55710735 60.4474828,5.91190341 C60.7964092,6.26669947 61.3567132,6.28375727 61.7258871,5.95082294 L63.1765968,4.47456245 L64.6283397,5.95082294 C64.9974923,6.28408342 65.5580703,6.26715477 65.9071246,5.91220547 C66.2561789,5.55725617 66.2728264,4.9872109 65.9451007,4.61182382 L64.4933578,3.13556334 L65.9451007,1.65930286 C66.2041912,1.42540338 66.3144419,1.06474204 66.2314121,0.722697332 C66.1483822,0.380652624 65.8857541,0.113589096 65.5493901,0.0291570206 C65.213026,-0.055275055 64.8583545,0.0568376379 64.6283397,0.320303748 L64.6316109,0.318027728 Z M3.2093683,38.2334122 L2.17462278,39.285633 L1.14091029,38.2334122 C0.97361772,38.0591287 0.727087945,37.9897844 0.495499187,38.0518699 C0.263910429,38.1139554 0.0830414562,38.297879 0.0219870428,38.5333789 C-0.0390673706,38.7688789 0.0291252355,39.0195721 0.20051422,39.18969 L1.23422672,40.2419108 L0.20051422,41.2930812 C-0.0594542206,41.55715 -0.0596854517,41.9855254 0.199997751,42.2498843 C0.459680954,42.5142432 0.880941845,42.5144783 1.14091029,42.2504095 L2.17462278,41.1993267 L3.2093683,42.2504095 C3.37516862,42.4315927 3.62505787,42.5061986 3.86086298,42.444917 C4.09666808,42.3836355 4.28071504,42.1962573 4.34069801,41.956397 C4.40068097,41.7165367 4.32701661,41.4625162 4.14864517,41.2941316 L3.11501876,40.2419108 L4.14864517,39.18969 C4.32737141,39.021402 4.40131879,38.7672176 4.3413953,38.5271367 C4.2814718,38.2870558 4.09726734,38.0995 3.86125074,38.0382567 C3.62523415,37.9770133 3.37517654,38.0518835 3.20945438,38.2334122 L3.2093683,38.2334122 Z" id="形状" opacity="0.469029018"></path>
                    <path d="M91.0239079,66.4462316 L89.9905835,67.4732514 L88.952856,66.4474277 C88.6900977,66.2060348 88.2815022,66.2134152 88.0278207,66.4641365 C87.7741392,66.7148578 87.7661572,67.1191938 88.00975,67.3795286 L89.0474775,68.4065485 L88.00975,69.4324576 C87.7546677,69.69107 87.7571955,70.1046033 88.0154208,70.3601429 C88.2736461,70.6156824 88.6915256,70.618184 88.952856,70.3657547 L89.9905835,69.3398455 L91.0272749,70.3657547 C91.288605,70.6181856 91.706486,70.6156849 91.9647119,70.3601446 C92.2229379,70.1046044 92.225465,69.6910697 91.970381,69.4324576 L90.9326536,68.4065485 L91.970381,67.3796141 C92.225465,67.1210019 92.2229379,66.7074673 91.9647119,66.451927 C91.706486,66.1963868 91.288605,66.193886 91.0272749,66.446317 L91.0239079,66.4462316 Z M86.8453756,40.3883024 L85.7580928,41.468634 L84.6708099,40.3926596 C84.493889,40.2175788 84.2360212,40.1492019 83.9943427,40.2132859 C83.7526642,40.27737 83.5638919,40.464179 83.4991343,40.7033438 C83.4343768,40.9425087 83.5034723,41.1976945 83.6803932,41.3727753 L84.767676,42.4487497 L83.6803932,43.5258347 C83.4068972,43.7964862 83.4068972,44.2352989 83.6803932,44.5059504 C83.9538892,44.7766019 84.3973139,44.7766019 84.6708099,44.5059504 L85.7580928,43.4299761 L86.8453756,44.5059504 C87.1188716,44.7766019 87.5622963,44.7766019 87.8357923,44.5059504 C88.1092883,44.2352989 88.1092883,43.7964862 87.8357923,43.5258347 L86.7485095,42.4487497 L87.8357923,41.3727753 C88.0127133,41.1976945 88.0818087,40.9425087 88.0170512,40.7033438 C87.9522937,40.464179 87.7635213,40.27737 87.5218428,40.2132859 C87.2801644,40.1492019 87.0222965,40.2175788 86.8453756,40.3926596 L86.8453756,40.3883024 Z M30.7185228,66.6812411 C31.5393759,66.6812411 32.2048088,67.3397532 32.2048088,68.1520688 C32.2048088,68.9643845 31.5393759,69.6228965 30.7185228,69.6228965 C29.8976697,69.6228965 29.2322367,68.9643846 29.2322367,68.1520689 C29.2331731,67.3401373 29.8980579,66.6821678 30.7185228,66.6812411 M30.7185587,65.7032193 C29.7166624,65.7032193 28.8134193,66.3001618 28.4300103,67.2156935 C28.0466012,68.1312251 28.2585319,69.1850476 28.9669795,69.8857652 C29.6754272,70.5864828 30.740875,70.7961012 31.6665065,70.4168755 C32.5921379,70.0376499 33.1956662,69.1442623 33.1956662,68.153298 C33.1961121,67.5031288 32.9353569,66.879425 32.470786,66.4194487 C32.0062151,65.9594724 31.3759004,65.7009188 30.7185587,65.7006894 L30.7185587,65.7032193 Z" id="形状" opacity="0.473725818"></path>
                </g>
            </g>
        </g>
    </g>
</svg>