<?xml version="1.0" encoding="UTF-8"?>
<svg width="16px" height="16px" viewBox="0 0 16 16" version="1.1" xmlns="http://www.w3.org/2000/svg" xmlns:xlink="http://www.w3.org/1999/xlink">
    <!-- Generator: Sketch 60.1 (88133) - https://sketch.com -->
    <title>shopping cart-business</title>
    <desc>Created with Sketch.</desc>
    <g id="购物车" stroke="none" stroke-width="1" fill="none" fill-rule="evenodd">
        <g id="购物车-状态1" transform="translate(-14.000000, -91.000000)" fill="#3A74F1" fill-rule="nonzero">
            <g id="shopping-cart-business" transform="translate(14.000000, 91.000000)">
                <path d="M15.7550466,3.05534639 C15.7550466,3.0496988 15.7511646,3.04593373 15.7511646,3.03840361 C15.7453416,3.01581325 15.7356366,2.99510542 15.7239907,2.97439759 L14.376941,0.747364458 C14.1459627,0.288027108 13.5015528,0.00188253012 12.6940994,0.00188253012 L3.26086957,0.00188253012 C2.4689441,0.00188253012 1.85170807,0.282379518 1.63043478,0.724774096 L0.18439441,2.99698795 C0.178571429,3.01204819 0.16886646,3.02899096 0.163043478,3.0496988 C0.0582298137,3.26430723 0.00582298137,3.48456325 0.00582298137,3.70481928 C0.00582298137,4.48230422 0.646350932,5.19201807 1.67507764,5.55534639 C2.09821429,5.70783133 2.59704969,5.78313253 3.15799689,5.78313253 L3.16187888,5.78313253 C4.10131988,5.78125 4.97476708,5.5064006 5.56871118,5.0376506 C6.16071429,5.50451807 7.02251553,5.77748494 7.96389752,5.78125 C8.89363354,5.77748494 9.75737578,5.50263554 10.3454969,5.03576807 C10.939441,5.5064006 11.8128882,5.77936747 12.7581522,5.77936747 C13.3307453,5.77748494 13.8373447,5.69653614 14.2643634,5.54216867 C15.2775621,5.17319277 15.9064927,4.46724398 15.9064927,3.69917169 C15.9083851,3.47703313 15.8520963,3.25677711 15.7550466,3.05534639 Z M14.8738354,7.33433735 C14.8738354,7.02560241 14.6156832,6.7752259 14.2954193,6.7752259 C14.2371894,6.7752259 14.1828416,6.79028614 14.1265528,6.80911145 C13.6975932,6.9747741 13.1482919,7.06137048 12.7348602,7.04066265 C11.8225932,6.99171687 11.1238354,6.8185241 10.4541925,6.2688253 C9.79425466,6.81287651 8.94992236,7.12161145 8.05318323,7.1310241 C7.14285714,7.12537651 6.29270186,6.90512048 5.63082298,6.35918675 C4.96118012,6.90888554 4.10714286,7.17620482 3.19875776,7.17620482 L3.19487578,7.17620482 C2.63975155,7.17620482 2.32531056,7.07454819 1.82065217,6.8938253 C1.80900621,6.88817771 1.79347826,6.88441265 1.77795031,6.87876506 C1.75271739,6.86935241 1.73524845,6.86370482 1.71001553,6.85429217 C1.71001553,6.85429217 1.6265528,6.83923193 1.58190994,6.83923193 C1.26164596,6.83923193 1.00349379,7.09149096 1.00349379,7.39834337 L1.04425466,14.4766566 C1.04425466,15.2635542 1.71001553,15.9073795 2.52911491,15.9073795 L13.433618,15.9017319 C14.2488354,15.8979669 14.9165373,15.2560241 14.9165373,14.4691265 L14.8738354,7.33433735 L14.8738354,7.33433735 Z M9.94565217,11.7225151 L8.42585404,11.7225151 L8.42585404,13.1965361 C8.42585404,13.4469127 8.21622671,13.6502259 7.95807453,13.6502259 C7.69992236,13.6502259 7.49029503,13.4469127 7.49029503,13.1965361 L7.49029503,11.7225151 L5.97049689,11.7225151 C5.69681677,11.7225151 5.47360248,11.5060241 5.47360248,11.2405873 C5.47360248,10.9751506 5.69681677,10.7586596 5.97049689,10.7586596 L7.49029503,10.7586596 L7.49029503,9.28463855 C7.49029503,9.03426205 7.69992236,8.8309488 7.95807453,8.8309488 C8.21622671,8.8309488 8.42585404,9.03426205 8.42585404,9.28463855 L8.42585404,10.7586596 L9.94565217,10.7586596 C10.2193323,10.7586596 10.4425466,10.9751506 10.4425466,11.2405873 C10.4425466,11.5060241 10.2193323,11.7225151 9.94565217,11.7225151 Z" id="形状"></path>
            </g>
        </g>
    </g>
</svg>