<?xml version="1.0" encoding="UTF-8"?>
<svg width="60px" height="60px" viewBox="0 0 60 60" version="1.1" xmlns="http://www.w3.org/2000/svg" xmlns:xlink="http://www.w3.org/1999/xlink">
    <!-- Generator: Sketch 60.1 (88133) - https://sketch.com -->
    <title>shopping cart-bitmap2@3x</title>
    <desc>Created with Sketch.</desc>
    <g id="购物车" stroke="none" stroke-width="1" fill="none" fill-rule="evenodd">
        <g id="购物车-小程序-状态1" transform="translate(-44.000000, -255.000000)" fill-rule="nonzero">
            <g id="shopping-cart-bitmap2" transform="translate(44.000000, 255.000000)">
                <rect id="矩形" fill="#F7F7F7" x="0" y="0" width="60" height="60"></rect>
                <path d="M49.5250433,37.8481613 L36.9327099,37.8481613 L36.8840157,29.2744193 L38.0039835,29.2744193 C40.0394032,29.2744193 41.7047466,27.7567072 41.7047466,25.9017258 C41.7047466,24.0467443 40.0394032,22.5290323 38.0039835,22.5290323 L11.4169222,22.5290323 C9.38150246,22.5290323 7.71615907,24.0467443 7.71615907,25.9017258 C7.71615907,27.7567072 9.38150246,29.2744193 11.4169222,29.2744193 L13.3841699,29.2744193 L13.3452145,29.2744193 C15.9065322,29.3099214 17.9711684,31.2181559 17.9711684,33.5612903 C17.9711684,35.9044248 15.9065322,37.8126593 13.3452145,37.8481613 L13.3841699,37.8481613 L10.9007631,37.8481613 C8.8653434,37.8481613 7.2,39.3658734 7.2,41.2208549 C7.2,43.0758363 8.8653434,44.5935484 10.9007631,44.5935484 L49.5250433,44.5935484 C51.5604631,44.5935484 53.2258065,43.0758363 53.2258065,41.2208549 C53.2258065,39.3569979 51.5604631,37.8481613 49.5250433,37.8481613 Z" id="路径" fill="#F2F2F2"></path>
                <path d="M33.7811659,20.8954812 L33.5991697,20.8954812 C33.0914959,20.8954812 32.6796096,20.5006665 32.6796096,20.0140343 L32.6796096,18.4164118 C32.6796096,18.1225962 32.4305621,17.883871 32.1240421,17.883871 L22.679394,17.883871 C22.372874,17.883871 22.1238265,18.1225962 22.1238265,18.4164118 L22.1238265,20.234396 C22.1238265,20.5924838 21.8173064,20.8954812 21.4341564,20.8954812 C19.9877651,20.8954812 18.8,22.0340168 18.8,23.4204593 L18.8,41.8757538 C18.8,43.3723772 20.0739738,44.5935484 21.6353102,44.5935484 L33.5512759,44.5935484 C35.1126122,44.5935484 36.3865861,43.3723772 36.3865861,41.8757538 L36.3865861,23.4204593 C36.4153223,22.0248351 35.2275573,20.8954812 33.7811659,20.8954812 L33.7811659,20.8954812 Z" id="路径" fill="#F8F8F8"></path>
                <polygon id="路径" fill="#EFEFEF" points="19.1741935 26.0129032 36.3870968 26.0129032 36.3870968 37.2387097 19.1741935 37.2387097"></polygon>
                <path d="M33.9654753,44.5935484 L21.9795469,44.5935484 C20.2259786,44.5935484 18.8,43.2459938 18.8,41.5888658 L18.8,23.278512 C18.8,21.7306452 20.1296287,20.4741415 21.7675771,20.4741415 C21.9699119,20.4741415 22.1337068,20.3193548 22.1337068,20.1281478 L22.1337068,18.3253382 C22.1337068,17.8700832 22.5287414,17.4967742 23.0104909,17.4967742 L32.5105917,17.4967742 C32.9923413,17.4967742 33.3873759,17.8700832 33.3873759,18.3253382 L33.3873759,19.9096254 C33.3873759,20.2191988 33.6571556,20.4741415 33.9847453,20.4741415 L34.1678101,20.4741415 C35.8057586,20.4741415 37.1354358,21.7306452 37.1354358,23.278512 L37.1354358,41.5797607 C37.1450223,43.2459938 35.7190436,44.5935484 33.9654753,44.5935484 L33.9654753,44.5935484 Z M23.0201259,18.1159209 C22.894871,18.1159209 22.7888861,18.216077 22.7888861,18.3344433 L22.7888861,20.1372529 C22.7888861,20.6653486 22.3360416,21.0932882 21.7772121,21.0932882 C20.4957584,21.0932882 19.4551794,22.0766389 19.4551794,23.2876171 L19.4551794,41.5888658 C19.4551794,42.9091051 20.5921083,43.9744017 21.9795469,43.9744017 L33.9654753,43.9744017 C35.362549,43.9744017 36.4898429,42.9 36.4898429,41.5888658 L36.4898429,23.2876171 C36.4898429,22.0766389 35.4492639,21.0932882 34.1678101,21.0932882 L33.9847453,21.0932882 C33.300661,21.0932882 32.7418315,20.5651925 32.7418315,19.9187305 L32.7418315,18.3344433 C32.7418315,18.216077 32.6358466,18.1159209 32.5105917,18.1159209 L23.0201259,18.1159209 Z" id="形状" fill="#DDDDDD"></path>
                <path d="M33.2817907,19.4322581 L22.2794996,19.4322581 C21.8068926,19.4322581 21.4193548,19.0688008 21.4193548,18.6255602 L21.4193548,16.6753016 C21.4193548,15.6381187 22.3267603,14.7870968 23.4326607,14.7870968 L32.1286296,14.7870968 C33.23453,14.7870968 34.1419355,15.6381187 34.1419355,16.6753016 L34.1419355,18.6255602 C34.1419355,19.0688008 33.7543977,19.4322581 33.2817907,19.4322581 Z" id="路径" fill="#F8F8F8"></path>
                <path d="M33.6663868,19.4322581 L22.269097,19.4322581 C21.5934845,19.4322581 21.0451613,18.9562337 21.0451613,18.3697036 L21.0451613,16.4996077 C21.0451613,15.3435484 22.1320162,14.4 23.4636583,14.4 L32.4718255,14.4 C33.8034676,14.4 34.8903226,15.3435484 34.8903226,16.4996077 L34.8903226,18.3697036 C34.8903226,18.9647341 34.3419994,19.4322581 33.6663868,19.4322581 L33.6663868,19.4322581 Z M23.4636583,14.9780296 C22.4943012,14.9780296 21.7109823,15.6580645 21.7109823,16.4996077 L21.7109823,18.3697036 C21.7109823,18.6417175 21.9557695,18.8542284 22.269097,18.8542284 L33.6663868,18.8542284 C33.9797144,18.8542284 34.2245015,18.6417175 34.2245015,18.3697036 L34.2245015,16.4996077 C34.2245015,15.6580645 33.4411826,14.9780296 32.4718255,14.9780296 L23.4636583,14.9780296 Z" id="形状" fill="#DDDDDD"></path>
                <path d="M23.5952486,16.3354839 C23.4280311,16.3354839 23.2903226,16.4443063 23.2903226,16.5764477 L23.2903226,18.0300039 C23.2903226,18.1621454 23.4280311,18.2709677 23.5952486,18.2709677 C23.7624661,18.2709677 23.9001746,18.1621454 23.9001746,18.0300039 L23.9001746,16.5764477 C23.9001746,16.4443063 23.7624661,16.3354839 23.5952486,16.3354839 Z M25.7887485,16.3354839 C25.621531,16.3354839 25.4838225,16.4443063 25.4838225,16.5764477 L25.4838225,18.0300039 C25.4838225,18.1621454 25.621531,18.2709677 25.7887485,18.2709677 C25.955966,18.2709677 26.0936745,18.1621454 26.0936745,18.0300039 L26.0936745,16.5764477 C26.0838382,16.4443063 25.955966,16.3354839 25.7887485,16.3354839 Z M27.9724121,16.3354839 C27.8051947,16.3354839 27.6674861,16.4443063 27.6674861,16.5764477 L27.6674861,18.0300039 C27.6674861,18.1621454 27.8051947,18.2709677 27.9724121,18.2709677 C28.1396296,18.2709677 28.2773381,18.1621454 28.2773381,18.0300039 L28.2773381,16.5764477 C28.2773381,16.4443063 28.1396296,16.3354839 27.9724121,16.3354839 Z M30.1560758,16.3354839 C29.9888583,16.3354839 29.8511498,16.4443063 29.8511498,16.5764477 L29.8511498,18.0300039 C29.8511498,18.1621454 29.9888583,18.2709677 30.1560758,18.2709677 C30.3232933,18.2709677 30.4610018,18.1621454 30.4610018,18.0300039 L30.4610018,16.5764477 C30.4708381,16.4443063 30.3232933,16.3354839 30.1560758,16.3354839 L30.1560758,16.3354839 Z M32.3397394,16.3354839 C32.1725219,16.3354839 32.0348134,16.4443063 32.0348134,16.5764477 L32.0348134,18.0300039 C32.0348134,18.1621454 32.1725219,18.2709677 32.3397394,18.2709677 C32.5069569,18.2709677 32.6446654,18.1621454 32.6446654,18.0300039 L32.6446654,16.5764477 C32.6545017,16.4443063 32.5167932,16.3354839 32.3397394,16.3354839 Z" id="形状" fill="#DDDDDD"></path>
                <path d="M29.9025049,31.2692116 L27.9468343,31.2692116 L27.9468343,29.2372308 C27.9468343,28.9532859 27.7238192,28.7225806 27.4493391,28.7225806 L27.3635641,28.7225806 C27.089084,28.7225806 26.866069,28.9532859 26.866069,29.2372308 L26.866069,31.2603383 L24.9103984,31.2603383 C24.6359183,31.2603383 24.4129032,31.4910435 24.4129032,31.7749884 L24.4129032,31.8637212 C24.4129032,32.1476661 24.6359183,32.3783714 24.9103984,32.3783714 L26.866069,32.3783714 L26.866069,34.4014789 C26.866069,34.6854238 27.089084,34.916129 27.3635641,34.916129 L27.4493391,34.916129 C27.7238192,34.916129 27.9468343,34.6854238 27.9468343,34.4014789 L27.9468343,32.3783714 L29.9025049,32.3783714 C30.1769849,32.3783714 30.4,32.1476661 30.4,31.8637212 L30.4,31.7749884 C30.4,31.4999168 30.1769849,31.2692116 29.9025049,31.2692116 L29.9025049,31.2692116 Z" id="路径" fill="#FFFFFF"></path>
                <path d="M42.7483871,35.0565009 L36.8548387,40.3354839 L32.7387097,36.6485751 C31.1172043,35.1961565 31.1172043,32.8127003 32.7387097,31.3602817 C34.3602151,29.9078631 37.021147,29.9078631 38.6426523,31.3602817 L42.7483871,35.0565009 L42.7483871,35.0565009 Z" id="路径" stroke="#DDDDDD" fill="#E2E2E2"></path>
                <path d="M42.2751932,34.916129 L36.3870968,40.2 L40.4994181,43.8903226 C42.1194235,45.344086 44.7778938,45.344086 46.3978992,43.8903226 C48.0179046,42.4365591 48.0179046,40.0508961 46.3978992,38.5971326 L42.2751932,34.916129 L42.2751932,34.916129 Z" id="路径" stroke="#E5E5E5" fill="#EDEDED"></path>
                <path d="M46.5581864,18.3357034 C45.6134341,18.3357034 44.8537364,17.6221055 44.8537364,16.7549485 C44.8537364,15.8877915 45.6231738,15.1741935 46.5581864,15.1741935 C47.493199,15.1741935 48.2626364,15.8877915 48.2626364,16.7549485 C48.2626364,17.6221055 47.493199,18.3357034 46.5581864,18.3357034 Z M46.5581864,15.770364 C45.9738035,15.770364 45.5062972,16.2129754 45.5062972,16.7459156 C45.5062972,17.2788558 45.9835432,17.7214672 46.5581864,17.7214672 C47.1328296,17.7214672 47.6100756,17.2788558 47.6100756,16.7459156 C47.6100756,16.2129754 47.1328296,15.770364 46.5581864,15.770364 L46.5581864,15.770364 Z M9.28429891,33.7548387 C8.13501259,33.7548387 7.2,32.8876817 7.2,31.8218012 C7.2,30.7559208 8.13501259,29.8887638 9.28429891,29.8887638 C10.4335852,29.8887638 11.3685978,30.7559208 11.3685978,31.8218012 C11.3685978,32.8786488 10.4335852,33.7548387 9.28429891,33.7548387 Z M9.28429891,30.4939671 C8.49538203,30.4939671 7.85256087,31.0901375 7.85256087,31.8218012 C7.85256087,32.553465 8.49538203,33.1496354 9.28429891,33.1496354 C10.0732158,33.1496354 10.7160369,32.553465 10.7160369,31.8218012 C10.7062972,31.0901375 10.0732158,30.4939671 9.28429891,30.4939671 L9.28429891,30.4939671 Z M15.4592779,19.7267678 L14.8164568,19.7267678 L15.1768262,19.238992 C15.2742233,19.1125316 15.2352645,18.9318739 15.0989085,18.8505779 C14.9625525,18.760249 14.7677582,18.7963806 14.6801008,18.922841 L14.2515533,19.5009456 L13.8424853,18.9138081 C13.7548279,18.7873477 13.5600336,18.7421833 13.4236776,18.8325121 C13.2873216,18.9138081 13.238623,19.0944658 13.3360202,19.2209262 L13.6963896,19.7358006 L13.034089,19.7358006 C12.8685139,19.7358006 12.7321579,19.862261 12.7321579,20.0158201 C12.7321579,20.1693791 12.8685139,20.2958395 13.034089,20.2958395 L13.6769102,20.2958395 L13.3165407,20.7836153 C13.2191436,20.9100757 13.2581024,21.0907335 13.3944584,21.1720294 C13.5308144,21.2623583 13.7256087,21.2262267 13.8132662,21.0997663 L14.2418136,20.5216617 L14.6508816,21.1087992 C14.738539,21.2352596 14.9333333,21.280424 15.0696893,21.1900952 C15.2060453,21.0997663 15.2547439,20.9281415 15.1573468,20.8016811 L14.7969773,20.2868067 L15.4592779,20.2868067 C15.6248531,20.2868067 15.7612091,20.1603463 15.7612091,20.0067872 C15.7612091,19.8532282 15.6345928,19.7267678 15.4592779,19.7267678 Z M45.9445844,24.6316245 L45.3017632,24.6316245 L45.6621327,24.1438487 C45.7595298,24.0173883 45.7205709,23.8367306 45.5842149,23.7554346 C45.4478589,23.6651058 45.2530647,23.7012373 45.1654072,23.8276977 L44.7368598,24.4058024 L44.3277918,23.8186648 C44.2401343,23.6922044 44.0453401,23.64704 43.908984,23.7373689 C43.772628,23.8186648 43.7239295,23.9993225 43.8213266,24.1257829 L44.1816961,24.6406574 L43.5193955,24.6406574 C43.3538203,24.6406574 43.2174643,24.7671178 43.2174643,24.9206768 C43.2174643,25.0742359 43.3538203,25.2006963 43.5193955,25.2006963 L44.1622166,25.2006963 L43.8018472,25.6884721 C43.70445,25.8149325 43.7434089,25.9955902 43.8797649,26.0768862 C44.0161209,26.167215 44.2109152,26.1310835 44.2985726,26.0046231 L44.7271201,25.4265184 L45.1361881,26.013656 C45.2238455,26.1401164 45.4186398,26.1852808 45.5549958,26.0949519 C45.6913518,26.0046231 45.7400504,25.8329983 45.6426532,25.7065379 L45.2822838,25.1916634 L45.9445844,25.1916634 C46.1101595,25.1916634 46.2465155,25.065203 46.2465155,24.911644 C46.2465155,24.7580849 46.1101595,24.6316245 45.9445844,24.6316245 Z M51.4475231,27.1969639 C51.4475231,27.1969639 51.4475231,29.0667712 49.2463476,29.0667712 C49.2463476,29.0667712 51.4475231,29.1571001 51.4475231,30.9365785 C51.4475231,30.9365785 51.9150294,29.0667712 53.6,29.0667712 C53.6,29.0577383 51.4475231,28.7144887 51.4475231,27.1969639 L51.4475231,27.1969639 Z" id="形状" fill="#EAEAEA"></path>
            </g>
        </g>
    </g>
</svg>