<?xml version="1.0" encoding="UTF-8"?>
<svg width="20px" height="23px" viewBox="0 0 20 23" version="1.1" xmlns="http://www.w3.org/2000/svg" xmlns:xlink="http://www.w3.org/1999/xlink">
    <!-- Generator: Sketch 60.1 (88133) - https://sketch.com -->
    <title>shopping cart-prescription</title>
    <desc>Created with Sketch.</desc>
    <g id="购物车" stroke="none" stroke-width="1" fill="none" fill-rule="evenodd" opacity="0.604073661">
        <g id="购物车-订单结算-状态1" transform="translate(-16.000000, -170.000000)" fill-rule="nonzero">
            <g id="shopping-cart-prescription" transform="translate(16.000000, 170.000000)">
                <path d="M17.4396,0 L2.53607368,0 C1.07233449,0 0.00779689839,1.06453759 0.00779689839,2.52827678 L0.00779689839,20.3592814 C0.00779689839,21.6899534 1.07233449,22.8875582 2.53607368,22.8875582 L17.4396,22.8875582 C18.9033392,22.8875582 19.9678768,21.8230206 19.9678768,20.3592814 L19.9678768,2.52827678 C19.9678768,1.06453759 18.9033392,0 17.4396,0 Z M9.72170242,5.98802395 C9.45556802,5.72188955 9.45556802,5.18962077 9.72170242,4.92348636 C9.98783683,4.65735196 10.5201056,4.65735196 10.78624,4.92348636 L12.3830464,6.52029276 L13.9798528,4.92348636 C14.2459872,4.65735196 14.778256,4.65735196 15.0443904,4.92348636 C15.3105248,5.18962077 15.3105248,5.72188955 15.0443904,5.98802395 L13.447584,7.58483035 L15.0443904,9.18163672 C15.3105248,9.44777112 15.3105248,9.9800399 15.0443904,10.2461743 C14.778256,10.5123087 14.2459872,10.5123087 13.9798528,10.2461743 L12.3830464,8.64936794 L10.78624,10.2461743 C10.5201056,10.5123087 9.98783683,10.5123087 9.72170242,10.2461743 C9.45556802,9.9800399 9.45556802,9.44777112 9.72170242,9.18163672 L11.3185088,7.58483035 L9.72170242,5.98802395 L9.72170242,5.98802395 Z M2.53607368,7.45176315 L2.53607368,2.92747839 L5.72968647,2.92747839 C6.92729126,2.92747839 7.99182885,3.99201598 7.99182885,5.18962077 C7.99182885,6.25415836 7.19342566,7.18562874 6.12888805,7.31869594 L7.85876165,9.04856952 C8.12489605,9.31470392 8.12489605,9.8469727 7.85876165,10.1131071 C7.45956004,10.3792415 6.92729126,10.3792415 6.66115686,10.1131071 L3.99981287,7.45176315 L3.99981287,9.71390552 C3.99981287,10.1131071 3.60061127,10.5123087 3.20140969,10.5123087 C2.80220811,10.5123087 2.53607368,9.9800399 2.53607368,9.71390552 L2.53607368,7.45176315 Z M16.774264,19.2947438 L3.20140969,19.2947438 C2.80220808,19.2947438 2.40300648,18.8955422 2.40300648,18.4963407 C2.40300648,18.0971391 2.80220808,17.6979375 3.20140969,17.6979375 L16.6411968,17.6979375 C17.0403984,17.6979375 17.4396,18.0971391 17.4396,18.4963407 C17.4396,18.8955423 17.1734656,19.2947438 16.774264,19.2947438 Z M16.774264,15.8349967 L3.20140969,15.8349967 C2.80220808,15.8349967 2.40300648,15.4357951 2.40300648,15.0365935 C2.40300648,14.6373919 2.80220808,14.2381903 3.20140969,14.2381903 L16.6411968,14.2381903 C17.0403984,14.2381903 17.4396,14.6373919 17.4396,15.0365935 C17.4396,15.4357951 17.1734656,15.8349967 16.774264,15.8349967 Z" id="形状" fill="#3A74F1"></path>
                <path d="M6.26195525,5.18962077 C6.26195525,4.79041916 5.86275365,4.52428476 5.46355207,4.52428476 L3.86674567,4.52428476 L3.86674567,5.98802395 L5.59661927,5.98802395 C5.99582087,5.98802395 6.26195525,5.58882235 6.26195525,5.18962077 L6.26195525,5.18962077 Z" id="路径" fill="#89ACF7"></path>
            </g>
        </g>
    </g>
</svg>