<?xml version="1.0" encoding="UTF-8"?>
<svg width="15px" height="16px" viewBox="0 0 15 16" version="1.1" xmlns="http://www.w3.org/2000/svg" xmlns:xlink="http://www.w3.org/1999/xlink">
    <!-- Generator: Sketch 60.1 (88133) - https://sketch.com -->
    <title>shopping cart-edit address</title>
    <desc>Created with Sketch.</desc>
    <g id="购物车" stroke="none" stroke-width="1" fill="none" fill-rule="evenodd">
        <g id="购物车-地址-状态1" transform="translate(-343.000000, -95.000000)" fill="#000000" fill-rule="nonzero">
            <g id="shopping-cart-edit-address" transform="translate(343.000000, 95.000000)">
                <path d="M14.3845324,6.83411561 C14.2316131,6.83411561 14.1092778,6.8952833 13.9869424,6.98703483 C13.8951908,7.07878636 13.8340232,7.2317056 13.8340231,7.38462483 L13.8340231,13.103804 C13.8340231,13.6543132 13.4976008,14.2354062 12.9776755,14.2354062 L2.30391335,14.2354062 C2.05924258,14.2354062 1.75340412,14.1130709 1.50873336,13.8684001 C1.29464645,13.6543132 1.14172721,13.3484747 1.14172721,13.103804 L1.14172721,2.001868 C1.14172721,1.45135877 1.75340412,1.11493647 2.30391335,1.11493649 L8.08426016,1.11493649 C8.39009862,1.11493649 8.63476939,0.870265721 8.63476939,0.56442726 C8.63476939,0.258588799 8.39009862,0.0139180308 8.08426016,0.0139180308 L2.30391335,0.0139180308 C1.75340412,0.0139180308 1.2028949,0.197421107 0.774721059,0.533843423 C0.285379522,0.900849576 0.0101249323,1.45135879 0.0101249323,2.03245185 L0.0101249323,13.103804 C0.0101249323,13.6543132 0.254795701,14.2354062 0.713553367,14.6635801 C1.14172721,15.0917539 1.72282028,15.3364247 2.30391335,15.3364247 L12.9776755,15.3364247 C13.5587685,15.3364247 14.0786939,15.0611701 14.4457001,14.6024124 C14.7821224,14.1742386 14.9350416,13.6543132 14.9350416,13.0732201 L14.9350416,7.38462483 C14.9350416,7.07878636 14.6903708,6.8341156 14.3845324,6.83411561 Z" id="路径"></path>
                <path d="M6.98324172,7.99630175 C7.1055771,8.11863713 7.22791249,8.14922097 7.35024787,8.14922097 C7.50316709,8.14922097 7.62550248,8.08805328 7.74783786,7.99630175 L14.7821224,0.962017251 C14.9350416,0.809098029 14.9962093,0.56442726 14.9044577,0.380924184 C14.8127062,0.16683727 14.6292031,0.0445018854 14.4151162,0.0445018854 C14.262197,0.0445018854 14.1398616,0.105669578 14.0481101,0.197421107 L7.01382557,7.2317056 C6.7691548,7.44579252 6.7691548,7.78221483 6.98324172,7.99630175 Z" id="路径"></path>
            </g>
        </g>
    </g>
</svg>